<mxfile host="app.diagrams.net" modified="2023-10-07T13:16:55.801Z" agent="Mozilla/5.0 (Windows NT 10.0; Win64; x64) AppleWebKit/537.36 (KHTML, like Gecko) Chrome/117.0.0.0 Safari/537.36" etag="xEFGY0QvMeJJkv93lhw9" version="21.7.5" type="device">
  <diagram name="Page-1" id="xhHaKkoPDmEQ0Plsemnc">
    <mxGraphModel dx="1434" dy="750" grid="0" gridSize="10" guides="1" tooltips="1" connect="1" arrows="1" fold="1" page="1" pageScale="1" pageWidth="850" pageHeight="1100" math="0" shadow="0">
      <root>
        <mxCell id="0" />
        <mxCell id="1" parent="0" />
        <mxCell id="1K2mb-ZTbDSpn3l00hay-1" value="" style="rounded=0;whiteSpace=wrap;html=1;" vertex="1" parent="1">
          <mxGeometry x="32" y="175" width="694" height="306" as="geometry" />
        </mxCell>
        <mxCell id="K8HsDQawc-SPM4IhQZPu-2" value="" style="shape=image;verticalLabelPosition=bottom;labelBackgroundColor=default;verticalAlign=top;aspect=fixed;imageAspect=0;image=data:image/jpeg,/9j/4AAQSkZJRgABAQEBLAEsAAD/4QFWRXhpZgAATU0AKgAAAAgABgEOAAIAAACWAAAAVgESAAMAAAABAAEAAAExAAIAAAAgAAAA7AEyAAIAAAAUAAABDAE7AAIAAAAOAAABIIdpAAQAAAABAAABLgAAAABVc2VyIEljb24gVmVjdG9yIFdpdGggTGFwdG9wIENvbXB1dGVyIE1hbGUgUGVyc29uIFByb2ZpbGUgQXZhdGFyIGZvciBCdXNpbmVzcyBhbmQgT25saW5lIENvbW11bmljYXRpb24gTmV0d29yayBpbiBHbHlwaCBQaWN0b2dyYW0gU3ltYm9sIGlsbHVzdHJhdGlvbgBBZG9iZSBJbGx1c3RyYXRvciBDUzYgKFdpbmRvd3MpADIwMTc6MTI6MjIgMTg6MTg6MjcAVHVrVHVrIERlc2lnbgAAApAAAAcAAAAEMDIyMaABAAMAAAABAAEAAAAAAAAAAP/hTWRodHRwOi8vbnMuYWRvYmUuY29tL3hhcC8xLjAvADw/eHBhY2tldCBiZWdpbj0i77u/IiBpZD0iVzVNME1wQ2VoaUh6cmVTek5UY3prYzlkIj8+DQo8eDp4bXBtZXRhIHhtbG5zOng9ImFkb2JlOm5zOm1ldGEvIiB4OnhtcHRrPSJYTVAgQ29yZSA0LjQuMC1FeGl2MiI+DQoJPHJkZjpSREYgeG1sbnM6cmRmPSJodHRwOi8vd3d3LnczLm9yZy8xOTk5LzAyLzIyLXJkZi1zeW50YXgtbnMjIj4NCgkJPHJkZjpEZXNjcmlwdGlvbiByZGY6YWJvdXQ9IiIgeG1sbnM6eG1wPSJodHRwOi8vbnMuYWRvYmUuY29tL3hhcC8xLjAvIiB4bWxuczp4bXBHSW1nPSJodHRwOi8vbnMuYWRvYmUuY29tL3hhcC8xLjAvZy9pbWcvIiB4bWxuczpkYz0iaHR0cDovL3B1cmwub3JnL2RjL2VsZW1lbnRzLzEuMS8iIHhtbG5zOnhtcE1NPSJodHRwOi8vbnMuYWRvYmUuY29tL3hhcC8xLjAvbW0vIiB4bWxuczpzdEV2dD0iaHR0cDovL25zLmFkb2JlLmNvbS94YXAvMS4wL3NUeXBlL1Jlc291cmNlRXZlbnQjIiB4bWxuczpwaG90b3Nob3A9Imh0dHA6Ly9ucy5hZG9iZS5jb20vcGhvdG9zaG9wLzEuMC8iIHhtbG5zOnhtcFJpZ2h0cz0iaHR0cDovL25zLmFkb2JlLmNvbS94YXAvMS4wL3JpZ2h0cy8iIHhtcDpDcmVhdG9yVG9vbD0iQWRvYmUgSWxsdXN0cmF0b3IgQ1M2IChXaW5kb3dzKSIgeG1wOkNyZWF0ZURhdGU9IjIwMTctMTItMjJUMjM6NDg6MjcrMDU6MzAiIHhtcDpNb2RpZnlEYXRlPSIyMDE3LTEyLTIyVDE4OjE4OjI3WiIgeG1wOlJhdGluZz0iNSIgeG1wOk1ldGFkYXRhRGF0ZT0iMjAxNy0xMi0yM1QwMDo1OToyMiswNTozMCIgZGM6Zm9ybWF0PSJpbWFnZS9qcGVnIiB4bXBNTTpEb2N1bWVudElEPSJBM0RDOEFGNDNFQjdDQzY2QTg1MjMwMzVFMzBGOEQxRiIgeG1wTU06T3JpZ2luYWxEb2N1bWVudElEPSJBM0RDOEFGNDNFQjdDQzY2QTg1MjMwMzVFMzBGOEQxRiIgeG1wTU06SW5zdGFuY2VJRD0ieG1wLmlpZDo5NDg5MDhFMjRERTdFNzExOTNCQ0QyNjNBNUQ0NEJENCIgcGhvdG9zaG9wOkF1dGhvcnNQb3NpdGlvbj0iVmVjdG9yIEFydGlzdCIgcGhvdG9zaG9wOkNhcHRpb25Xcml0ZXI9IlR1a1R1ayBEZXNpZ24iIHhtcFJpZ2h0czpNYXJrZWQ9IlRydWUiIHhtcFJpZ2h0czpXZWJTdGF0ZW1lbnQ9Imh0dHA6Ly93d3cudHVrdHVrZGVzaWduLmNvbSI+DQoJCQk8eG1wOlRodW1ibmFpbHM+DQoJCQkJPHJkZjpBbHQ+DQoJCQkJCTxyZGY6bGkgeG1wR0ltZzp3aWR0aD0iMjAwIiB4bXBHSW1nOmhlaWdodD0iMjU2IiB4bXBHSW1nOmZvcm1hdD0iSlBFRyIgeG1wR0ltZzppbWFnZT0iLzlqLzRBQVFTa1pKUmdBQkFnRUJMQUVzQUFELzdRQXNVR2h2ZEc5emFHOXdJRE11TUFBNFFrbE5BKzBBQUFBQUFCQUJMQUFBQUFFQSYjeEE7QVFFc0FBQUFBUUFCLytJTVdFbERRMTlRVWs5R1NVeEZBQUVCQUFBTVNFeHBibThDRUFBQWJXNTBjbEpIUWlCWVdWb2dCODRBQWdBSiYjeEE7QUFZQU1RQUFZV056Y0UxVFJsUUFBQUFBU1VWRElITlNSMElBQUFBQUFBQUFBQUFBQUFBQUFQYldBQUVBQUFBQTB5MUlVQ0FnQUFBQSYjeEE7QUFBQUFBQUFBQUFBQUFBQUFBQUFBQUFBQUFBQUFBQUFBQUFBQUFBQUFBQUFBQUFBQUFBQUFBQUFBQUFSWTNCeWRBQUFBVkFBQUFBeiYjeEE7WkdWell3QUFBWVFBQUFCc2QzUndkQUFBQWZBQUFBQVVZbXR3ZEFBQUFnUUFBQUFVY2xoWldnQUFBaGdBQUFBVVoxaFpXZ0FBQWl3QSYjeEE7QUFBVVlsaFpXZ0FBQWtBQUFBQVVaRzF1WkFBQUFsUUFBQUJ3Wkcxa1pBQUFBc1FBQUFDSWRuVmxaQUFBQTB3QUFBQ0dkbWxsZHdBQSYjeEE7QTlRQUFBQWtiSFZ0YVFBQUEvZ0FBQUFVYldWaGN3QUFCQXdBQUFBa2RHVmphQUFBQkRBQUFBQU1jbFJTUXdBQUJEd0FBQWdNWjFSUyYjeEE7UXdBQUJEd0FBQWdNWWxSU1F3QUFCRHdBQUFnTWRHVjRkQUFBQUFCRGIzQjVjbWxuYUhRZ0tHTXBJREU1T1RnZ1NHVjNiR1YwZEMxUSYjeEE7WVdOcllYSmtJRU52YlhCaGJua0FBR1JsYzJNQUFBQUFBQUFBRW5OU1IwSWdTVVZETmpFNU5qWXRNaTR4QUFBQUFBQUFBQUFBQUFBUyYjeEE7YzFKSFFpQkpSVU0yTVRrMk5pMHlMakVBQUFBQUFBQUFBQUFBQUFBQUFBQUFBQUFBQUFBQUFBQUFBQUFBQUFBQUFBQUFBQUFBQUFBQSYjeEE7QUFBQUFBQUFBQUFBQUZoWldpQUFBQUFBQUFEelVRQUJBQUFBQVJiTVdGbGFJQUFBQUFBQUFBQUFBQUFBQUFBQUFBQllXVm9nQUFBQSYjeEE7QUFBQWI2SUFBRGoxQUFBRGtGaFpXaUFBQUFBQUFBQmltUUFBdDRVQUFCamFXRmxhSUFBQUFBQUFBQ1NnQUFBUGhBQUF0czlrWlhOaiYjeEE7QUFBQUFBQUFBQlpKUlVNZ2FIUjBjRG92TDNkM2R5NXBaV011WTJnQUFBQUFBQUFBQUFBQUFCWkpSVU1nYUhSMGNEb3ZMM2QzZHk1cCYjeEE7WldNdVkyZ0FBQUFBQUFBQUFBQUFBQUFBQUFBQUFBQUFBQUFBQUFBQUFBQUFBQUFBQUFBQUFBQUFBQUFBQUFBQUFBQUFaR1Z6WXdBQSYjeEE7QUFBQUFBQXVTVVZESURZeE9UWTJMVEl1TVNCRVpXWmhkV3gwSUZKSFFpQmpiMnh2ZFhJZ2MzQmhZMlVnTFNCelVrZENBQUFBQUFBQSYjeEE7QUFBQUFBQXVTVVZESURZeE9UWTJMVEl1TVNCRVpXWmhkV3gwSUZKSFFpQmpiMnh2ZFhJZ2MzQmhZMlVnTFNCelVrZENBQUFBQUFBQSYjeEE7QUFBQUFBQUFBQUFBQUFBQUFBQUFBR1JsYzJNQUFBQUFBQUFBTEZKbFptVnlaVzVqWlNCV2FXVjNhVzVuSUVOdmJtUnBkR2x2YmlCcCYjeEE7YmlCSlJVTTJNVGsyTmkweUxqRUFBQUFBQUFBQUFBQUFBQ3hTWldabGNtVnVZMlVnVm1sbGQybHVaeUJEYjI1a2FYUnBiMjRnYVc0ZyYjeEE7U1VWRE5qRTVOall0TWk0eEFBQUFBQUFBQUFBQUFBQUFBQUFBQUFBQUFBQUFBQUFBQUFCMmFXVjNBQUFBQUFBVHBQNEFGRjh1QUJEUCYjeEE7RkFBRDdjd0FCQk1MQUFOY25nQUFBQUZZV1ZvZ0FBQUFBQUJNQ1ZZQVVBQUFBRmNmNTIxbFlYTUFBQUFBQUFBQUFRQUFBQUFBQUFBQSYjeEE7QUFBQUFBQUFBQUFBQUFLUEFBQUFBbk5wWnlBQUFBQUFRMUpVSUdOMWNuWUFBQUFBQUFBRUFBQUFBQVVBQ2dBUEFCUUFHUUFlQUNNQSYjeEE7S0FBdEFESUFOd0E3QUVBQVJRQktBRThBVkFCWkFGNEFZd0JvQUcwQWNnQjNBSHdBZ1FDR0FJc0FrQUNWQUpvQW53Q2tBS2tBcmdDeSYjeEE7QUxjQXZBREJBTVlBeXdEUUFOVUEyd0RnQU9VQTZ3RHdBUFlBK3dFQkFRY0JEUUVUQVJrQkh3RWxBU3NCTWdFNEFUNEJSUUZNQVZJQiYjeEE7V1FGZ0FXY0JiZ0YxQVh3Qmd3R0xBWklCbWdHaEFha0JzUUc1QWNFQnlRSFJBZGtCNFFIcEFmSUIrZ0lEQWd3Q0ZBSWRBaVlDTHdJNCYjeEE7QWtFQ1N3SlVBbDBDWndKeEFub0NoQUtPQXBnQ29nS3NBcllDd1FMTEF0VUM0QUxyQXZVREFBTUxBeFlESVFNdEF6Z0RRd05QQTFvRCYjeEE7WmdOeUEzNERpZ09XQTZJRHJnTzZBOGNEMHdQZ0Erd0QrUVFHQkJNRUlBUXRCRHNFU0FSVkJHTUVjUVIrQkl3RW1nU29CTFlFeEFUVCYjeEE7Qk9FRThBVCtCUTBGSEFVckJUb0ZTUVZZQldjRmR3V0dCWllGcGdXMUJjVUYxUVhsQmZZR0JnWVdCaWNHTndaSUJsa0dhZ1o3Qm93RyYjeEE7blFhdkJzQUcwUWJqQnZVSEJ3Y1pCeXNIUFFkUEIyRUhkQWVHQjVrSHJBZS9COUlINVFmNENBc0lId2d5Q0VZSVdnaHVDSUlJbGdpcSYjeEE7Q0w0STBnam5DUHNKRUFrbENUb0pUd2xrQ1hrSmp3bWtDYm9KendubENmc0tFUW9uQ2owS1ZBcHFDb0VLbUFxdUNzVUszQXJ6Q3dzTCYjeEE7SWdzNUMxRUxhUXVBQzVnTHNBdklDK0VMK1F3U0RDb01Rd3hjREhVTWpneW5ETUFNMlF6ekRRME5KZzFBRFZvTmRBMk9EYWtOd3czZSYjeEE7RGZnT0V3NHVEa2tPWkE1L0Rwc090ZzdTRHU0UENROGxEMEVQWGc5NkQ1WVBzdy9QRCt3UUNSQW1FRU1RWVJCK0VKc1F1UkRYRVBVUiYjeEE7RXhFeEVVOFJiUkdNRWFvUnlSSG9FZ2NTSmhKRkVtUVNoQktqRXNNUzR4TURFeU1UUXhOakU0TVRwQlBGRStVVUJoUW5GRWtVYWhTTCYjeEE7RkswVXpoVHdGUklWTkJWV0ZYZ1ZteFc5RmVBV0F4WW1Ga2tXYkJhUEZySVcxaGI2RngwWFFSZGxGNGtYcmhmU0YvY1lHeGhBR0dVWSYjeEE7aWhpdkdOVVkraGtnR1VVWmF4bVJHYmNaM1JvRUdpb2FVUnAzR3A0YXhScnNHeFFiT3h0akc0b2JzaHZhSEFJY0toeFNISHNjb3h6TSYjeEE7SFBVZEhoMUhIWEFkbVIzREhld2VGaDVBSG1vZWxCNitIdWtmRXg4K0gya2ZsQisvSCtvZ0ZTQkJJR3dnbUNERUlQQWhIQ0ZJSVhVaCYjeEE7b1NIT0lmc2lKeUpWSW9JaXJ5TGRJd29qT0NObUk1UWp3aVB3SkI4a1RTUjhKS3NrMmlVSkpUZ2xhQ1dYSmNjbDl5WW5KbGNtaHlhMyYjeEE7SnVnbkdDZEpKM29ucXlmY0tBMG9QeWh4S0tJbzFDa0dLVGdwYXltZEtkQXFBaW8xS21ncW15clBLd0lyTml0cEs1MHIwU3dGTERrcyYjeEE7Yml5aUxOY3REQzFCTFhZdHF5M2hMaFl1VEM2Q0xyY3U3aThrTDFvdmtTL0hMLzR3TlRCc01LUXcyekVTTVVveGdqRzZNZkl5S2pKaiYjeEE7TXBzeTFETU5NMFl6ZnpPNE0vRTBLelJsTko0MDJEVVROVTAxaHpYQ05mMDJOelp5TnE0MjZUY2tOMkEzbkRmWE9CUTRVRGlNT01nNSYjeEE7QlRsQ09YODV2RG41T2pZNmREcXlPdTg3TFR0ck82bzc2RHduUEdVOHBEempQU0k5WVQyaFBlQStJRDVnUHFBKzREOGhQMkUvb2ovaSYjeEE7UUNOQVpFQ21RT2RCS1VGcVFheEI3a0l3UW5KQ3RVTDNRenBEZlVQQVJBTkVSMFNLUk01RkVrVlZSWnBGM2tZaVJtZEdxMGJ3UnpWSCYjeEE7ZTBmQVNBVklTMGlSU05kSkhVbGpTYWxKOEVvM1NuMUt4RXNNUzFOTG1rdmlUQ3BNY2t5NlRRSk5TazJUVGR4T0pVNXVUcmRQQUU5SiYjeEE7VDVOUDNWQW5VSEZRdTFFR1VWQlJtMUhtVWpGU2ZGTEhVeE5UWDFPcVUvWlVRbFNQVk50VktGVjFWY0pXRDFaY1ZxbFc5MWRFVjVKWCYjeEE7NEZndldIMVl5MWthV1dsWnVGb0hXbFphcGxyMVcwVmJsVnZsWERWY2hseldYU2RkZUYzSlhocGViRjY5WHc5ZllWK3pZQVZnVjJDcSYjeEE7WVB4aFQyR2lZZlZpU1dLY1l2QmpRMk9YWSt0a1FHU1VaT2xsUFdXU1plZG1QV2FTWnVoblBXZVRaK2xvUDJpV2FPeHBRMm1hYWZGcSYjeEE7U0dxZmF2ZHJUMnVuYS85c1YyeXZiUWh0WUcyNWJoSnVhMjdFYng1dmVHL1JjQ3R3aG5EZ2NUcHhsWEh3Y2t0eXBuTUJjMTF6dUhRVSYjeEE7ZEhCMHpIVW9kWVYxNFhZK2RwdDIrSGRXZDdONEVYaHVlTXg1S25tSmVlZDZSbnFsZXdSN1kzdkNmQ0Y4Z1h6aGZVRjlvWDRCZm1KKyYjeEE7d244amY0Ui81WUJIZ0tpQkNvRnJnYzJDTUlLU2d2U0RWNE82aEIyRWdJVGpoVWVGcTRZT2huS0cxNGM3aDUrSUJJaHBpTTZKTTRtWiYjeEE7aWY2S1pJcktpekNMbG92OGpHT015bzB4alppTi80NW1qczZQTm8rZWtBYVFicERXa1QrUnFKSVJrbnFTNDVOTms3YVVJSlNLbFBTViYjeEE7WDVYSmxqU1duNWNLbDNXWDRKaE1tTGlaSkptUW1meWFhSnJWbTBLYnI1d2NuSW1jOTUxa25kS2VRSjZ1bngyZmk1LzZvR21nMktGSCYjeEE7b2JhaUpxS1dvd2FqZHFQbXBGYWt4NlU0cGFtbUdxYUxwdjJuYnFmZ3FGS294S2szcWFtcUhLcVBxd0tyZGF2cHJGeXMwSzFFcmJpdSYjeEE7TGE2aHJ4YXZpN0FBc0hXdzZyRmdzZGF5UzdMQ3N6aXpyclFsdEp5MUU3V0t0Z0cyZWJid3QyaTM0TGhadU5HNVNybkN1anU2dGJzdSYjeEE7dTZlOElieWJ2Ulc5ajc0S3ZvUysvNzk2di9YQWNNRHN3V2ZCNDhKZnd0dkRXTVBVeEZIRXpzVkx4Y2pHUnNiRHgwSEh2OGc5eUx6SiYjeEE7T3NtNXlqakt0OHMyeTdiTU5jeTF6VFhOdGM0MnpyYlBOOCs0MERuUXV0RTgwYjdTUDlMQjAwVFR4dFJKMU12VlR0WFIxbFhXMk5kYyYjeEE7MStEWVpOam8yV3paOGRwMjJ2dmJnTndGM0lyZEVOMlczaHplb3Q4cDM2L2dOdUM5NFVUaHpPSlQ0dHZqWStQcjVIUGsvT1dFNWczbSYjeEE7bHVjZjU2bm9NdWk4NlVicDBPcGI2dVhyY092NzdJYnRFZTJjN2lqdXRPOUE3OHp3V1BEbDhYTHgvL0tNOHhuenAvUTA5TUwxVVBYZSYjeEE7OW0zMisvZUsrQm40cVBrNCtjZjZWL3JuKzNmOEIveVkvU245dXY1TC90ei9iZi8vLys0QURrRmtiMkpsQUdUQUFBQUFBZi9iQUlRQSYjeEE7QmdRRUJBVUVCZ1VGQmdrR0JRWUpDd2dHQmdnTERBb0tDd29LREJBTURBd01EQXdRREE0UEVBOE9EQk1URkJRVEV4d2JHeHNjSHg4ZiYjeEE7SHg4Zkh4OGZId0VIQndjTkRBMFlFQkFZR2hVUkZSb2ZIeDhmSHg4Zkh4OGZIeDhmSHg4Zkh4OGZIeDhmSHg4Zkh4OGZIeDhmSHg4ZiYjeEE7SHg4Zkh4OGZIeDhmSHg4Zkh4OGYvOEFBRVFnQkFBRElBd0VSQUFJUkFRTVJBZi9FQWFJQUFBQUhBUUVCQVFFQUFBQUFBQUFBQUFRRiYjeEE7QXdJR0FRQUhDQWtLQ3dFQUFnSURBUUVCQVFFQUFBQUFBQUFBQVFBQ0F3UUZCZ2NJQ1FvTEVBQUNBUU1EQWdRQ0JnY0RCQUlHQW5NQiYjeEE7QWdNUkJBQUZJUkl4UVZFR0UyRWljWUVVTXBHaEJ4V3hRaVBCVXRIaE14Wmk4Q1J5Z3ZFbFF6UlRrcUt5WTNQQ05VUW5rNk96TmhkVSYjeEE7WkhURDB1SUlKb01KQ2hnWmhKUkZScVMwVnROVktCcnk0L1BFMU9UMFpYV0ZsYVcxeGRYbDlXWjJocGFtdHNiVzV2WTNSMWRuZDRlWCYjeEE7cDdmSDErZjNPRWhZYUhpSW1LaTR5TmpvK0NrNVNWbHBlWW1acWJuSjJlbjVLanBLV21wNmlwcXF1c3JhNnZvUkFBSUNBUUlEQlFVRSYjeEE7QlFZRUNBTURiUUVBQWhFREJDRVNNVUVGVVJOaElnWnhnWkV5b2JId0ZNSFI0U05DRlZKaWN2RXpKRFJEZ2hhU1V5V2lZN0xDQjNQUyYjeEE7TmVKRWd4ZFVrd2dKQ2hnWkpqWkZHaWRrZEZVMzhxT3p3eWdwMCtQemhKU2t0TVRVNVBSbGRZV1ZwYlhGMWVYMVJsWm1kb2FXcHJiRyYjeEE7MXViMlIxZG5kNGVYcDdmSDErZjNPRWhZYUhpSW1LaTR5TmpvK0RsSldXbDVpWm1wdWNuWjZma3FPa3BhYW5xS21xcTZ5dHJxK3YvYSYjeEE7QUF3REFRQUNFUU1SQUQ4QTlVNHE3RlhZcTdGWFlxN0ZYWXE3RlhZcThsL05ML25KVHlGNUVrbTA2TnpyZXZ4VlZ0T3RHWGhFNC9adSYjeEE7SjkxalBpb0RNTzY0cStaZk9IL09WSDV0K1lYZExTL1RRYkpqOE52cHFjSHAyck8vT1d2K3F5ajJ4VjVmcW5tRFh0V2tNbXE2bGRhaCYjeEE7SXhxejNVOGt6RStKTWpOaXFBVm1WZ3lrcXltcXNOaUNNVlpSNWUvTkg4eGZMc2l2bzNtTy90VlhwQ0ozZUUwNlZoa0x4SDZWeFY3YiYjeEE7NUIvNXpRMSswa2l0Zk8rbkpxZHIwZlViRlZodVIvbE5DU0laUGt2REZYMUQ1Tjg4K1ZmT1drcnF2bHpVSTcrME5CSUZxc2tUSDlpVyYjeEE7TnFPamV6RDViWXFudUt1eFYyS3V4VjJLdXhWMkt1eFYyS3V4VjJLdXhWMkt1eFYyS3V4VjJLdmszL25JZi9uSnU1bHVMbnlqNUV1eiYjeEE7RmJSOG9kVTF5RWtQSTROR2l0WEgyVUhScEJ1MzdPMjdLdmw0a2sxTzVPS3RZcTdGWFlxN0ZYWXFuM2tyeno1bjhsNjVGclhsNjlhMCYjeEE7dkk5cEY2eFRSMXFZcG8ram9mQS9NVUlCeFY5NS9reCtjbWlmbVg1Zk4xQW9zOWFzK0s2cHBoYXBqWTlKSXoxYUoreDdkRDdxdlE4ViYjeEE7ZGlyc1ZkaXJzVmRpcnNWZGlyc1ZkaXJzVmRpcnNWZGlyc1ZmUC84QXpsZitjTW5sblFVOG42TE9ZOWMxcUl0ZXpJYVBiMlJKVTBJNiYjeEE7UE1RVkhnb2IyT0t2aXZGWFlxN0ZYWXE3RlhZcTdGWFlxeVA4dnZQV3RlUnZOZGw1ajBoLzM5cTFKb0NTRW5nYis4aGsvd0FseDl4byYjeEE7UnVCaXI5SFBLbm1iU3ZOSGx6VC9BREJwVW5xV0dwUXJOQ1RUa3RkbVJxVm95TUNyRHhHS3ByaXJzVmRpcnNWZGlyc1ZkaXJzVmRpciYjeEE7c1ZkaXJzVmRpcW5jWEVGdGJ5M0U3aUtDRkdrbGtZMFZVUVZaaWZBQVlxL05QOHgvT04xNXk4NzZ2NWp1QzMrbjNETmJ4dDFqdDErQyYjeEE7Q1A4QTJNYXFNVlkzaXJzVmRpcnNWZGlyc1ZkaXJzVmRpcjZ1L3dDY0t2UFVza2VzK1NMcVRra0kvU2VtS1Q5bFN3anVVRmUzSm8yQSYjeEE7OTJPS3ZxYkZYWXE3RlhZcTdGWFlxN0ZYWXE3RlhZcTdGWFlxN0ZYblgvT1EydVBvdjVOZWFMcU51TWsxcUxKS2JFL1hKRnRtcC9zSiYjeEE7U2NWZm5oaXJzVmRpcnNWZGlyc1ZkaXJzVmRpcnNWZWsvd0RPT211dm8zNXplV1pnMUk3dTROaEt0YUJoZG8wS2cvN04xSTl4aXI5QyYjeEE7OFZkaXJzVmRpcnNWZGlyc1ZkaXJzVmRpcnNWZGlyc1ZlTGY4NWR1Ni9remRoV0lEM3RvR0FQVWN5YUg2UmlyNFV4VjJLdXhWMkt1eCYjeEE7VjJLdXhWMkt1eFYyS3NrL0xSNWsvTWZ5bzhBSm1YV0xBeEFDcExDNmo0MEhmZkZYNllZcTdGWFlxN0ZYWXE3RlhZcTdGWFlxN0ZYWSYjeEE7cTdGWFlxOHYvd0NjbWRJZlUveVU4eHBHdktXMVNDN1QyRnZjUnZJZitSWWJGWDU5NHE3RlhZcTdGWFlxN0ZYWXE3RlhZcTdGV2ZmayYjeEE7TG84bXJmbkY1VHRrRmZTdjQ3eHV1d3M2M0pPMVA5OVlxL1JiRlhZcTdGWFlxN0ZYWXE3RlhZcTdGWFlxN0ZYWXE3RlVKcSttV3VxNiYjeEE7VGU2WGVMenRMK0NXMXVGOFk1a0tPUDhBZ1d4VitaWG1qeTlmK1hQTVdwYURmcnh2Tk11SkxhYmFnWXhzUUdIK1N3K0llMktwWGlycyYjeEE7VmRpcnNWZGlyc1ZkaXJzVmRpcjZXLzV3cjhseVhYbUhXUE9FNmY2TnAwUDFDeVk5RGNUMGVVcjd4eEtBZjlmRlgxOWlyc1ZkaXJzViYjeEE7ZGlyc1ZkaXJzVmRpcnNWZGlyc1ZkaXJzVmZLLy9PWWY1VFNTR0w4dzlJZzVjVlMyOHdJZ0pOQlJZTGsvSVVqZi9ZKytLdmxQRlhZcSYjeEE7N0ZYWXE3RlhZcTdGWFlxajlCMFBWTmUxbXowYlNvR3VkUnY1Vmd0b1Y3dXhwdWV3SFVrOUJ2aXI5SFB5eDhoMkhrVHlUcHZsdTBJZCYjeEE7cldQbGVYQUZQV3VaUGltazMzb1crelhvdEIyeFZsT0t1eFYyS3V4VjJLdXhWMkt1eFYyS3V4VjJLdXhWMkt1eFZTdkxTMXZiU2F6dSYjeEE7NGxudGJoR2luZ2tBWkhSeHhaV0I2Z2cweFY4TC9uOS96ajdxbmtMVUp0YTBXSjd2eWRjUFdPVVZaN05uTzBNM1U4T3lTZCtoK0xxcSYjeEE7OFl4VjJLdXhWMkt1eFYyS29qVDlQdnRSdlliR3d0NUxxOXVYRWR2YlFxWGtkMjZLcXJVazRxKzMvd0RuSGI4Z0l2SU5rZGQxOUk1diYjeEE7TjEyaFdpa09sbkMxS3hJZWhrYjl0eC9xamFwWlY3Ymlyc1ZkaXJzVmRpcnNWZGlyc1ZkaXJzVmRpcnNWZGlyc1ZkaXJzVlU3aTN0NyYjeEE7bUNTM3VZa210NWxLVFF5S0hSMFlVWldVMUJCSFVIRlh6WCthdi9PSG1uNmpMTnF2a0c0ajA2NGFyeWFMY2x2cXpOMS9jUy9FMFZmNSYjeEE7V0JYM1VZcStaL04zNWNlZWZLRTdRK1k5RnVkUEFQRVhEcHlnWTFwOEU2Y29tK2hzVlkzaXJzVlh4UlNTeUxGRWpTU09RcUlvSllrOSYjeEE7QUFPdUt2VnZJWC9PTXY1cGViSklwWnRQT2hhVzVCZSsxSU5FM0U3MWp0eisrZmJwOElVL3pZcSt0dnlwL0lyeVYrWE1IcTZmRWI3VyYjeEE7NUY0M0dzM0lCbUlQVllsRzBTSHdYYy90RTRxOUZ4VjJLdXhWMkt1eFYyS3V4VjJLdXhWMkt1eFYyS3V4VjJLdXhWMkt1eFYyS3V4ViYjeEE7cDBSMFpIVU1qQWhsSXFDRHNRUWNWWWxxbjVRL2xicXJ0SmZlVk5Ma2xmZDVWdFlvNUdOYTFMeGhXUDM0cWw2ZmtKK1RpT0hIbEt3SiYjeEE7VTFBWkN3K2tFa0hGV1Q2SjVQOEFLZWcvOGNUUmJIVERTaGF6dG9vQ1I3bU5WSituRlUzeFYyS3V4VjJLdXhWMkt1eFYyS3V4VjJLdSYjeEE7eFYyS3V4VjJLdXhWMktySnA0SUl6TE5Jc1VhOVhjaFZIMG5GVXQveFo1Vi82dk5qL3dCSk1QOEF6VmlydjhXZVZmOEFxODJQL1NURCYjeEE7L3dBMVlxNy9BQlo1Vi82dk5qLzBrdy84MVlxNy9GbmxYL3E4MlA4QTBrdy84MVlxNy9GbmxYL3E4MlAvQUVrdy93RE5XS3UveFo1ViYjeEE7L3dDcnpZLzlKTVAvQURWaXJ2OEFGbmxYL3E4MlAvU1REL3pWaXJ2OFdlVmYrcnpZL3dEU1REL3pWaXJ2OFdlVmYrcnpZLzhBU1RELyYjeEE7QU0xWXE3L0ZubFgvQUt2TmovMGt3LzhBTldLdS93QVdlVmYrcnpZLzlKTVAvTldLdS94WjVWLzZ2TmovQU5KTVAvTldLcTFyNWgwQyYjeEE7N2xFTnBxVnJjVEhwSEZQRzdIZW5SV0o3NHFqOFZkaXJzVmRpcnNWZGlyc1ZkaXJzVlN6eko1bDBMeTFvOXhyT3Uzc2RocHRxdktXNCYjeEE7bE8zc3FnVlptYm9xcUNTZW1LdmtqOHpmK2N3dk5PcXpTMlBraUw5Q2FZQ1ZHb1Nxa2w3S1BFQnVVY0lJN0FNMytVTVZlRGF6NWgxLyYjeEE7WExrM1dzNmxkYWxjRTFNdDNNOHpmZTViRlV1eFYyS3V4VjJLdXhWMkt1eFYyS3V4VjJLdXhWMkt1eFZtdmsvODVmekw4b3lvMmphOSYjeEE7Y3JicFFmVWJoemNXeEhoNk12TlYrYTBQdmlyNnMvSnYvbktQeTk1MG5nMFR6RkVtaWVZNUtKQzNML1E3cC9DSm0zamM5a2NuMlluYiYjeEE7Rlh1ZUt1eFYyS3V4VjJLdXhWUnZyMjBzTEtlK3ZKVmd0TFdOcHJpZHpSVWpqQlptWStBQXJpcjgvUHp5L09YVmZ6STh5dTZQSkI1YSYjeEE7c1haZEkwOG1ncDA5ZVVEckpJUCtCSHdqdVNxODB4VjJLdXhWMkt1eFYyS3V4VjJLdXhWMkt1eFYyS3V4VjJLdXhWMkt0Z2tHbzJJeCYjeEE7VjlvZjg0cy9uaGMrYXJCdkovbUs0TXV2NmJGenNMeVExZTd0VTJJY243VXNWUnYxWmQrb1k0cStnOFZkaXJzVmRpcnNWZUFmODVqZSYjeEE7ZUp0RzhoMmZseTBrS1hQbUtaaGNGVHY5VXRlTHlMN2M1SGpIdUtqRlh4Vmlyc1ZkaXJzVmRpcnNWZGlyc1ZkaXJzVmRpcnNWZGlycyYjeEE7VmRpcnNWZGlyc1ZUbnlkNW8xSHlyNW8wenpGcHpVdTlNdUVuUmEwRHFEUjQyL3laRUpSdlk0cS9UTFM5U3RkVDB5MDFLemJuYVgwTSYjeEE7ZHpidjR4eklIUS9TcllxaWNWZGlyc1ZkaXI0ci93Q2MwdFFsbS9NM1RiSWsramFhVEVWWC9MbG5tTEVmTUtvK2pGWHovaXJzVmRpciYjeEE7c1ZkaXJzVmRpcnNWZGlyc1ZkaXJzVmRpcnNWZGlyc1ZkaXJzVmRpcjlEditjZGRUazFIOGxmS3R3NTVNbHE5c0NmQzFua3QxSDBDTCYjeEE7RlhvMkt1eFY0Wi96a0ovemtPZklqcjVhOHRJbHo1c3VFVjVaSFhuSFp4eUQ0Q1UvYmxicXFuWURjMXFBVlhsR25ma1gvd0E1RmZtRiYjeEE7QXV0ZVk5Y2V3VzQvZXdRNnBkVGlTamRDdHRDcnJDUDhraFQ3WXFxVGY4NFcvbU5PL09iekRwa3IwcHlkcnBqVDVtTEZWUDhBNkVsOCYjeEE7L3dEL0FGZmRLKys1L3dDcVdLdS82RWw4L3dEL0FGZmRLKys1L3dDcVdLdS82RWw4L3dEL0FGZmRLKys1L3dDcVdLdS82RWw4L3dELyYjeEE7QUZmZEsrKzUvd0NxV0t1LzZFbDgvd0QvQUZmZEsrKzUvd0NxV0t1LzZFbDgvd0QvQUZmZEsrKzUvd0NxV0t1LzZFbDgvd0QvQUZmZCYjeEE7SysrNS93Q3FXS3UvNkVsOC93RC9BRmZkSysrNS93Q3FXS3UvNkVsOC93RC9BRmZkSysrNS93Q3FXS3UvNkVsOC93RC9BRmZkSysrNSYjeEE7L3dDcVdLdS82RWw4L3dEL0FGZmRLKys1L3dDcVdLdS82RWw4L3dEL0FGZmRLKys1L3dDcVdLdS82RWw4L3dEL0FGZmRLKys1L3dDcSYjeEE7V0t1LzZFbDgvd0QvQUZmZEsrKzUvd0NxV0t1LzZFbDgvd0QvQUZmZEsrKzUvd0NxV0t1LzZFbDgvd0QvQUZmZEsrKzUvd0NxV0t1LyYjeEE7NkVsOC93RC9BRmZkSysrNS93Q3FXS3UvNkVsOC93RC9BRmZkSysrNS93Q3FXS3UvNkVsOC93RC9BRmZkSysrNS93Q3FXS29pTC9uRCYjeEE7ZjgwWUl3dHY1bTArTUp2R2lTM2FBR3RkcVJiYjRxZ0I1djhBK2NnUHlLMWkyaDh5dkxxL2w2WnVDUjNFelhWcE1vM0syOXcxWklIQSYjeEE7cVFwQThTaEdLdnJUeVA1MDBUem41WXN2TVdpeUY3SzhXdkJxQ1NLUmRuaWtBSm82TnNmdkd4QnhWOHAvODQyNlFuNWlmblRyZm5YWCYjeEE7VitzdHA3TnFVVWNtNEYzY1MwdDl0eFNGRmJnT3hDMDZZcSt5Y1ZkaXJzVmRpcnNWZGlyc1ZkaXJzVmRpcnNWZGlyc1ZkaXJzVmRpciYjeEE7c1ZkaXJzVmRpcnNWZGlxUmVlZkorbGVjUEttbytYZFRqVjdlK2haRWNnRXhTMHJITWxmMm8zb3d4VjgyL3dET0ZHdTMxdnEvbWp5ciYjeEE7TXhhM0NSM3lKV3FwTEUvb1NrZjY0WksvNm94Vkx2OEFuR092bG44L2ZNL2xhVDRFTWQ5WlJ4bnZKWjNTbER0c2YzYVBpcjdBeFYySyYjeEE7dXhWMkt1eFYyS3V4VjJLdXhWMkt1eFYyS3V4VjJLdXhWMkt1eFYyS3V4VjJLdXhWMktwYjVuMVpkRzh0YXRxN0dpNmRaM0YyU2VsSSYjeEE7SW1rNy93Q3JpcjVqL3dDY0lkSmVXOTgyYTVMVm5WTFcwamxZVkxHUnBKWmZpUDhBcUpYRlVzMXIvblZQK2N6clc0SDd1RFViK0FvUiYjeEE7VGY4QVNkcUlIclgvQUl0bGJGWDJEaXJzVmRpcnNWZGlyc1ZkaXJzVmRpcnNWZGlyc1ZkaXJzVmRpcnNWZGlyc1ZkaXJzVmRpcnNWZSYjeEE7Wi84QU9TV3Mvb3I4bHZNc3F0eGt1WVk3T01iNy9XWmtpY2Y4aTJZNHF4Zi9BSnc0MFkyWDVUU1h6TFJ0VjFLNG5WdkdPSlV0d1BvYSYjeEE7SnNWZWIvOEFPWWR2Tm92NW1lVlBOTUNrTTFxbkE5QVpkUHVUTDk5SjF4VjljVzF4RGMyOFZ6QXdlR2RGa2ljZENyaXFrZk1IRlZURiYjeEE7WFlxN0ZYWXE3RlhZcTdGWFlxN0ZYWXE3RlhZcTdGWFlxN0ZYWXE3RlhZcTdGWFlxN0ZYenovem1yckgxZjh2dEgwcFdvK29ha0pXSCYjeEE7akhiUXZ5SC9BQWNxSEZYcG41RjZOK2gveWg4cVdSWGl4MCtPNWRhVW8xM1c1YW84YXk3NHE4cy81emEwYjEvSk9nNndBQzFocUxXeCYjeEE7UGNKZFFzeFB5NVc2NHE5Wi9KZldmMHorVkhsUy93Q1hOMjAyQ0dWajFNbHV2b1NINlhqT0tzMHhWMkt1eFYyS3V4VjJLdXhWMkt1eCYjeEE7VjJLcWNWemJ6TTZ4U3BJMFpwSXFNR0tud05PblRGVlRGWFlxN0ZYWXE3RlhZcTdGWFlxN0ZYWXErUmYrY3pieWJWZlBubFB5emJFUCYjeEE7T2xzMGthZUVsL2NDRlFmbjlYR0t2ck93czRiS3h0N0tBVWh0b2toaUgrVEdvVmZ3R0t2TlArY205Ry9TbjVLK1lGVUV5MlN3M3NkTyYjeEE7M29Ub3puL2tYeXhWSS84QW5EN1dSZjhBNVFSMlJhcmFUZjNOcnhydUZrSzNJTlBBbTRPS3Zic1ZkaXJzVmRpcnNWZGlyc1ZkaXJzViYjeEE7Zk9IL0FEbVQ1Kzh3YUpwR2krWGRKdVpMS0hXZnJFdW9Ud3NVa2VPRGdxdzhsM0NNWkNYOGFBZEs0cStUL0xYbWZYdkxPc1crc2FIZSYjeEE7eVdPb1d6Qm81WXpTb0JxVmRlam9lNnRzY1ZmcFQ1UjF4dGY4cDZMcnJSaUZ0V3NMVythRUdvUTNNS3k4UWZiblRGVTJ4VjJLdXhWMiYjeEE7S3V4VjJLdXhWMkt1eFY4ZitieC9pdjhBNXpKMCt3SDd5RFRyMnpWVklxT09ud0xkeXFSNGMwZkZYMkJpcVQrY3RHR3VlVWRiMFlqbCYjeEE7K2tyQzV0UUQ0elFzZy9Gc1ZmTjMvT0Qycy9ENXEwUjI2RzF2WVYrZnFSU24vazNpcjZweFYyS3V4VjJLdXhWMkt1eFYyS3V4VjV6KyYjeEE7ZDM1TmFiK1ozbCszdEh1UHFHcjZjN1M2WmY4QUhtcStvQUpJcEZxQ1VrNHJXbTRJQjhRVlhoUGxmL25DanpOK21vVzgwYXpZTG95TSYjeEE7R21UVG1ua3VKRkIrd1BWaWhWT1g4MVdwNFlxK3Q3UzB0ck8xaHRMYU1SVzF2R3NVRVMvWlZFQVZWSHNBS1lxcTRxN0ZYWXE3RlhZcSYjeEE7N0ZYWXE3RlhZcStQditjYzZlYWYrY2p2TXZtZjdVTVExSy9oY2RBYnE0RVVhai9ubksxUGxpcjdCeFYyS3ZqL0FQSVUvd0NGditjbiYjeEE7dk1YbDM3TVYwMnAyTUtFMHFzVTMxbUpnUEgwNFB1T0t2c0RGWFlxN0ZYWXE3RlhZcTdGWFlxN0ZYWXE3RlhZcTdGWFlxN0ZYWXE3RiYjeEE7WFlxN0ZYWXFrWG56V2YwSjVKMS9XQVNHMC9UcnE1UWpyemloWmxBOXl3R0t2bm4vQUp3ZTBZTForYXRiWmFtU1Mxc29XcDA5TlhsayYjeEE7RmZmMUV4VjlSNHE3Rlh4OStZQi93ci96bUZwZXBwU0tIVWJ6VDVTUjBDWGthMmN6SDVubVRpcjdCeFYyS3V4VjJLdXhWMkt1eFYySyYjeEE7dXhWMkt1eFYyS3V4VjJLdXhWMkt1eFYyS3V4VjJLdkovd0RuS1RXZjBaK1N1dHFwQWwxQnJleWlyL3haT3JPUCtSYU5pcVhmODRpNiYjeEE7TitqL0FNbTdXNjQ4VzFhOXVydzE3OFhGc1B3dDhWZTA0cTdGWHlUL0FNNXEyRTFoNXM4cCtZNFBobWUzbHQwbEhaN09aWmsvRzVPSyYjeEE7dnF6U3RRaDFMUzdQVVlmN204Z2p1SXFHbzR5b0hYZnZzY1ZSV0t1eFYyS3V4VjJLdXhWMkt1eFYyS3V4VjJLdXhWMkt1eFYyS3V4ViYjeEE7Mkt1eFYyS3ZtMy9uTnpXVEQ1Ujh1YU1EVDY5ZnkzWkE3aTBoNGZydWhpcjJUOG9kR0dqZmxkNVcwN2p3ZUxUTFo1bEFwU1dhTVN5LyYjeEE7OE81eFZsMkt1eFY4Ky84QU9hV2pDNi9MZlROVFZRWmRPMU5GWnZDSzRpa1Z2K0hWTVZlaC9rRnJKMWY4blBLbDJXNU5IWkxhTWU5YiYjeEE7Tm10dC93RGtUaXJQOFZkaXJzVmRpcnNWZGlyc1ZkaXJzVmRpcnNWZGlyc1ZkaXJzVmRpcnNWZGlyc1ZmSVA4QXpsdkxKci81dStWdiYjeEE7S3NMY2o5WGdpQVhxSnIrNktFYjkrS0ljVmZYa1VVY1VTUlJxRmpqVUtpam9GQW9BTVZYWXE3RlhudjhBemtCNVh1L012NVJlWXROcyYjeEE7bzJsdkVoUzd0NDEzWm10SkZuS3FCMUxKR1ZBOGNWZWFmODRiZm1CcGw1NVN1UEpVOHl4NnJwazBselp3a2dHVzFuUE5pbjh4amxMYyYjeEE7dllyaXI2TnhWMkt1eFYyS3V4VjJLdXhWMkt1eFYyS3V4VjJLdXhWMkt1eFYyS3V4VjJLcko1NExlQ1NlZVJZb0lsTHl5dVFxSWlpciYjeEE7TXpIWUFEY2s0cStOOUgxQWZtdC96bGRiNnhwYW1UUnRNdW9ycU9jZzBGcnBhcndsUGNDV2RWNC82NHhWOWw0cTdGWFlxN0ZYeTcrYiYjeEE7bi9PTW5tT3k4eHQ1MC9LdVUyOTM2aHVaTktoa0Z0TkRNYWxuczVLcXZGcW45MlNLZEZxRHhDcVIyZjU3Zjg1UzZLUHFXbytWcE5RdSYjeEE7SXZoYVc4MGk3RG5mclcxYUJEOHdNVlJYL1F5Zi9PU1gvVWl3Zjl3clZQOEFxdmlyditoay93RG5KTC9xUllQKzRWcW4vVmZGWGY4QSYjeEE7UXlmL0FEa2wvd0JTTEIvM0N0VS82cjRxNy9vWlAvbkpML3FSWVA4QXVGYXAvd0JWOFZkLzBNbi9BTTVKZjlTTEIvM0N0VS82cjRxNyYjeEE7L29aUC9uSkwvcVJZUCs0VnFuL1ZmRlhmOURKLzg1SmY5U0xCL3dCd3JWUCtxK0t1L3dDaGsvOEFuSkwvQUtrV0QvdUZhcC8xWHhWMyYjeEE7L1F5Zi9PU1gvVWl3Zjl3clZQOEFxdmlyditoay93RG5KTC9xUllQKzRWcW4vVmZGWGY4QVF5Zi9BRGtsL3dCU0xCLzNDdFUvNnI0cSYjeEE7Ny9vWlAvbkpML3FSWVA4QXVGYXAvd0JWOFZkLzBNbi9BTTVKZjlTTEIvM0N0VS82cjRxNy9vWlAvbkpML3FSWVArNFZxbi9WZkZYZiYjeEE7OURKLzg1SmY5U0xCL3dCd3JWUCtxK0t1L3dDaGsvOEFuSkwvQUtrV0QvdUZhcC8xWHhWMy9ReWYvT1NYL1Vpd2Y5d3JWUDhBcXZpcSYjeEE7UzZuSi93QTVUZm02cTZUZGFmYzZab3NwcE9qd05wbG1SV2hNankvdlpsQi9aQmYyWEZYMFIrU3Y1TDZOK1dlaHlRUlNDKzF1KzR0cSYjeEE7ZXBGZVBMajltS0libFkwK2RTZHoyQVZlallxN0ZYWXE3RlhnWC9PV0g1Zy9tSDVRMHZRLzhMenlhZlkzcnpqVWRTaFJXWlhUaDZVWCYjeEE7TmczcDh1VEh4TlBZNHErYVArVi9mbkovMU5sOS93QUV2L05PS3UvNVg5K2NuL1UyWDMvQkwvelRpcnYrVi9mbkovMU5sOS93Uy84QSYjeEE7Tk9LdS93Q1YvZm5KL3dCVFpmZjhFdjhBelRpcnYrVi9mbkovMU5sOS93QUV2L05PS3UvNVg5K2NuL1UyWDMvQkwvelRpcnYrVi9mbiYjeEE7Si8xTmw5L3dTLzhBTk9LdS93Q1YvZm5KL3dCVFpmZjhFdjhBelRpcnYrVi9mbkovMU5sOS93QUV2L05PS3UvNVg5K2NuL1UyWDMvQiYjeEE7TC96VGlyditWL2ZuSi8xTmw5L3dTLzhBTk9LdS93Q1YvZm5KL3dCVFpmZjhFdjhBelRpcnYrVi9mbkovMU5sOS93QUV2L05PS3UvNSYjeEE7WDkrY24vVTJYMy9CTC96VGlyditWL2ZuSi8xTmw5L3dTLzhBTk9LdS93Q1YvZm5KL3dCVFpmZjhFdjhBelRpcnYrVi9mbkovMU5sOSYjeEE7L3dBRXYvTk9LdS81WDkrY24vVTJYMy9CTC96VGlxdlkvd0RPUVA1MXBlUU5CNW52WjUrYStuQ3dTVU94TkFwaktNR3IwcFRGWDM3NSYjeEE7ZXV0U3ZOQTB5NzFTMytxYW5jV2tFdDlhQ3RJcDNqVnBZOTkvZ2NrWXFtR0t1eFYvLzlrPSIvPg0KCQkJCTwvcmRmOkFsdD4NCgkJCTwveG1wOlRodW1ibmFpbHM+DQoJCQk8ZGM6dGl0bGU+DQoJCQkJPHJkZjpBbHQ+DQoJCQkJCTxyZGY6bGkgeG1sOmxhbmc9IngtZGVmYXVsdCI+VXNlciBJY29uIFZlY3RvciBXaXRoIExhcHRvcCBDb21wdXRlciBNYWxlIFBlcnNvbiBQcm9maWxlIEF2YXRhciBmb3IgQnVzaW5lc3MgYW5kIE9ubGluZSBDb21tdW5pY2F0aW9uIE5ldHdvcmsgaW4gR2x5cGggUGljdG9ncmFtIFN5bWJvbCBpbGx1c3RyYXRpb248L3JkZjpsaT4NCgkJCQk8L3JkZjpBbHQ+DQoJCQk8L2RjOnRpdGxlPg0KCQkJPGRjOmRlc2NyaXB0aW9uPg0KCQkJCTxyZGY6QWx0Pg0KCQkJCQk8cmRmOmxpIHhtbDpsYW5nPSJ4LWRlZmF1bHQiPlVzZXIgSWNvbiBWZWN0b3IgV2l0aCBMYXB0b3AgQ29tcHV0ZXIgTWFsZSBQZXJzb24gUHJvZmlsZSBBdmF0YXIgZm9yIEJ1c2luZXNzIGFuZCBPbmxpbmUgQ29tbXVuaWNhdGlvbiBOZXR3b3JrIGluIEdseXBoIFBpY3RvZ3JhbSBTeW1ib2wgaWxsdXN0cmF0aW9uPC9yZGY6bGk+DQoJCQkJPC9yZGY6QWx0Pg0KCQkJPC9kYzpkZXNjcmlwdGlvbj4NCgkJCTxkYzpzdWJqZWN0Pg0KCQkJCTxyZGY6QmFnPg0KCQkJCQk8cmRmOmxpPkJ1c2luZXNzPC9yZGY6bGk+DQoJCQkJCTxyZGY6bGk+VXNlcjwvcmRmOmxpPg0KCQkJCQk8cmRmOmxpPkljb248L3JkZjpsaT4NCgkJCQkJPHJkZjpsaT5QZXJzb248L3JkZjpsaT4NCgkJCQkJPHJkZjpsaT5QZW9wbGU8L3JkZjpsaT4NCgkJCQkJPHJkZjpsaT5Qcm9maWxlPC9yZGY6bGk+DQoJCQkJCTxyZGY6bGk+QWNjb3VudDwvcmRmOmxpPg0KCQkJCQk8cmRmOmxpPkh1bWFuPC9yZGY6bGk+DQoJCQkJCTxyZGY6bGk+QXZhdGFyPC9yZGY6bGk+DQoJCQkJCTxyZGY6bGk+TWFuPC9yZGY6bGk+DQoJCQkJCTxyZGY6bGk+QnVzaW5lc3NtYW48L3JkZjpsaT4NCgkJCQkJPHJkZjpsaT5NYWxlPC9yZGY6bGk+DQoJCQkJCTxyZGY6bGk+Qm95PC9yZGY6bGk+DQoJCQkJCTxyZGY6bGk+VmVjdG9yPC9yZGY6bGk+DQoJCQkJCTxyZGY6bGk+SWxsdXN0cmF0aW9uPC9yZGY6bGk+DQoJCQkJCTxyZGY6bGk+R2x5cGg8L3JkZjpsaT4NCgkJCQkJPHJkZjpsaT5QaWN0b2dyYW08L3JkZjpsaT4NCgkJCQkJPHJkZjpsaT5TeW1ib2w8L3JkZjpsaT4NCgkJCQkJPHJkZjpsaT5HcmFwaGljPC9yZGY6bGk+DQoJCQkJCTxyZGY6bGk+U2lnbjwvcmRmOmxpPg0KCQkJCQk8cmRmOmxpPkluZm9ncmFwaGljPC9yZGY6bGk+DQoJCQkJCTxyZGY6bGk+RGVzaWduPC9yZGY6bGk+DQoJCQkJCTxyZGY6bGk+QXJ0PC9yZGY6bGk+DQoJCQkJCTxyZGY6bGk+QmxhY2s8L3JkZjpsaT4NCgkJCQkJPHJkZjpsaT5Vc2VyIEludGVyZmFjZTwvcmRmOmxpPg0KCQkJCQk8cmRmOmxpPkZsYXQgSWNvbjwvcmRmOmxpPg0KCQkJCQk8cmRmOmxpPkNsaXAgQXJ0PC9yZGY6bGk+DQoJCQkJCTxyZGY6bGk+V2ViPC9yZGY6bGk+DQoJCQkJCTxyZGY6bGk+TGFwdG9wPC9yZGY6bGk+DQoJCQkJCTxyZGY6bGk+Q29tcHV0ZXI8L3JkZjpsaT4NCgkJCQkJPHJkZjpsaT5EZXZpY2U8L3JkZjpsaT4NCgkJCQkJPHJkZjpsaT5JbnRlcm5ldDwvcmRmOmxpPg0KCQkJCQk8cmRmOmxpPk9ubGluZTwvcmRmOmxpPg0KCQkJCQk8cmRmOmxpPldvcmtlcjwvcmRmOmxpPg0KCQkJCQk8cmRmOmxpPkVtcGxveWVlPC9yZGY6bGk+DQoJCQkJCTxyZGY6bGk+TWFuYWdlcjwvcmRmOmxpPg0KCQkJCQk8cmRmOmxpPlRlY2hub2xvZ3k8L3JkZjpsaT4NCgkJCQkJPHJkZjpsaT5DbGllbnQ8L3JkZjpsaT4NCgkJCQkJPHJkZjpsaT5DdXN0b21lcjwvcmRmOmxpPg0KCQkJCQk8cmRmOmxpPldvcmtwbGFjZTwvcmRmOmxpPg0KCQkJCQk8cmRmOmxpPk9mZmljZTwvcmRmOmxpPg0KCQkJCQk8cmRmOmxpPkNvbmZlcmVuY2U8L3JkZjpsaT4NCgkJCQkJPHJkZjpsaT5Kb2I8L3JkZjpsaT4NCgkJCQkJPHJkZjpsaT5OZXR3b3JrPC9yZGY6bGk+DQoJCQkJCTxyZGY6bGk+T3V0c291cmNpbmc8L3JkZjpsaT4NCgkJCQkJPHJkZjpsaT5Qcm9ncmFtbWVyPC9yZGY6bGk+DQoJCQkJCTxyZGY6bGk+TWFpbDwvcmRmOmxpPg0KCQkJCQk8cmRmOmxpPkNvbW11bmljYXRpb248L3JkZjpsaT4NCgkJCQkJPHJkZjpsaT5NZXNzYWdlPC9yZGY6bGk+DQoJCQkJCTxyZGY6bGk+U3R1ZGVudDwvcmRmOmxpPg0KCQkJCTwvcmRmOkJhZz4NCgkJCTwvZGM6c3ViamVjdD4NCgkJCTxkYzpjcmVhdG9yPg0KCQkJCTxyZGY6U2VxPg0KCQkJCQk8cmRmOmxpPlZlY3RvclN0b2NrLmNvbS8xOTI5OTgyNzwvcmRmOmxpPg0KCQkJCTwvcmRmOlNlcT4NCgkJCTwvZGM6Y3JlYXRvcj4NCgkJCTx4bXBNTTpIaXN0b3J5Pg0KCQkJCTxyZGY6U2VxPg0KCQkJCQk8cmRmOmxpIHN0RXZ0OmFjdGlvbj0ic2F2ZWQiIHN0RXZ0Omluc3RhbmNlSUQ9InhtcC5paWQ6Q0M0NkY3NTg0OEU3RTcxMTkxRDdBMDU0Qjg1MzhBM0QiIHN0RXZ0OndoZW49IjIwMTctMTItMjNUMDA6MTU6NTgrMDU6MzAiIHN0RXZ0OnNvZnR3YXJlQWdlbnQ9IkFkb2JlIFBob3Rvc2hvcCBDYW1lcmEgUmF3IDcuMCIgc3RFdnQ6Y2hhbmdlZD0iL21ldGFkYXRhIi8+DQoJCQkJCTxyZGY6bGkgc3RFdnQ6YWN0aW9uPSJzYXZlZCIgc3RFdnQ6aW5zdGFuY2VJRD0ieG1wLmlpZDo5NDg5MDhFMjRERTdFNzExOTNCQ0QyNjNBNUQ0NEJENCIgc3RFdnQ6d2hlbj0iMjAxNy0xMi0yM1QwMDo1OToyMiswNTozMCIgc3RFdnQ6c29mdHdhcmVBZ2VudD0iQWRvYmUgUGhvdG9zaG9wIENhbWVyYSBSYXcgNy4wIChXaW5kb3dzKSIgc3RFdnQ6Y2hhbmdlZD0iL21ldGFkYXRhIi8+DQoJCQkJPC9yZGY6U2VxPg0KCQkJPC94bXBNTTpIaXN0b3J5Pg0KCQk8L3JkZjpEZXNjcmlwdGlvbj4NCgk8L3JkZjpSREY+DQo8L3g6eG1wbWV0YT4NCiAgICAgICAgICAgICAgICAgICAgICAgICAgICAgICAgICAgICAgICAgICAgICAgICAgICAgICAgICAgICAgICAgICAgICAgICAgICAgICAgICAgICAgICAgICAgICAgICAgICAKICAgICAgICAgICAgICAgICAgICAgICAgICAgICAgICAgICAgICAgICAgICAgICAgICAgICAgICAgICAgICAgICAgICAgICAgICAgICAgICAgICAgICAgICAgICAgICAgICAgIAogICAgICAgICAgICAgICAgICAgICAgICAgICAgICAgICAgICAgICAgICAgICAgICAgICAgICAgICAgICAgICAgICAgICAgICAgICAgICAgICAgICAgICAgICAgICAgICAgICAgCiAgICAgICAgICAgICAgICAgICAgICAgICAgICAgICAgICAgICAgICAgICAgICAgICAgICAgICAgICAgICAgICAgICAgICAgICAgICAgICAgICAgICAgICAgICAgICAgICAgICAKICAgICAgICAgICAgICAgICAgICAgICAgICAgICAgICAgICAgICAgICAgICAgICAgICAgICAgICAgICAgICAgICAgICAgICAgICAgICAgICAgICAgICAgICAgICAgICAgICAgIAogICAgICAgICAgICAgICAgICAgICAgICAgICAgICAgICAgICAgICAgICAgICAgICAgICAgICAgICAgICAgICAgICAgICAgICAgICAgICAgICAgICAgICAgICAgICAgICAgICAgCiAgICAgICAgICAgICAgICAgICAgICAgICAgICAgICAgICAgICAgICAgICAgICAgICAgICAgICAgICAgICAgICAgICAgICAgICAgICAgICAgICAgICAgICAgICAgICAgICAgICAKICAgICAgICAgICAgICAgICAgICAgICAgICAgICAgICAgICAgICAgICAgICAgICAgICAgICAgICAgICAgICAgICAgICAgICAgICAgICAgICAgICAgICAgICAgICAgICAgICAgIAogICAgICAgICAgICAgICAgICAgICAgICAgICAgICAgICAgICAgICAgICAgICAgICAgICAgICAgICAgICAgICAgICAgICAgICAgICAgICAgICAgICAgICAgICAgICAgICAgICAgCiAgICAgICAgICAgICAgICAgICAgICAgICAgICAgICAgICAgICAgICAgICAgICAgICAgICAgICAgICAgICAgICAgICAgICAgICAgICAgICAgICAgICAgICAgICAgICAgICAgICAKICAgICAgICAgICAgICAgICAgICAgICAgICAgICAgICAgICAgICAgICAgICAgICAgICAgICAgICAgICAgICAgICAgICAgICAgICAgICAgICAgICAgICAgICAgICAgICAgICAgIAogICAgICAgICAgICAgICAgICAgICAgICAgICAgICAgICAgICAgICAgICAgICAgICAgICAgICAgICAgICAgICAgICAgICAgICAgICAgICAgICAgICAgICAgICAgICAgICAgICAgCiAgICAgICAgICAgICAgICAgICAgICAgICAgICAgICAgICAgICAgICAgICAgICAgICAgICAgICAgICAgICAgICAgICAgICAgICAgICAgICAgICAgICAgICAgICAgICAgICAgICAKICAgICAgICAgICAgICAgICAgICAgICAgICAgICAgICAgICAgICAgICAgICAgICAgICAgICAgICAgICAgICAgICAgICAgICAgICAgICAgICAgICAgICAgICAgICAgICAgICAgIAogICAgICAgICAgICAgICAgICAgICAgICAgICAgICAgICAgICAgICAgICAgICAgICAgICAgICAgICAgICAgICAgICAgICAgICAgICAgICAgICAgICAgICAgICAgICAgICAgICAgCiAgICAgICAgICAgICAgICAgICAgICAgICAgICAgICAgICAgICAgICAgICAgICAgICAgICAgICAgICAgICAgICAgICAgICAgICAgICA8P3hwYWNrZXQgZW5kPSd3Jz8+/+0EBFBob3Rvc2hvcCAzLjAAOEJJTQPtAAAAAAAQASwAAAABAAEBLAAAAAEAAThCSU0EBAAAAAADehwBWgADGyVHHAIAAAIABBwCBQBAVXNlciBJY29uIFZlY3RvciBXaXRoIExhcHRvcCBDb21wdXRlciBNYWxlIFBlcnNvbiBQcm9maWxlIEF2YXRhchwCGQAIQnVzaW5lc3McAhkABFVzZXIcAhkABEljb24cAhkABlBlcnNvbhwCGQAGUGVvcGxlHAIZAAdQcm9maWxlHAIZAAdBY2NvdW50HAIZAAVIdW1hbhwCGQAGQXZhdGFyHAIZAANNYW4cAhkAC0J1c2luZXNzbWFuHAIZAARNYWxlHAIZAANCb3kcAhkABlZlY3RvchwCGQAMSWxsdXN0cmF0aW9uHAIZAAVHbHlwaBwCGQAJUGljdG9ncmFtHAIZAAZTeW1ib2wcAhkAB0dyYXBoaWMcAhkABFNpZ24cAhkAC0luZm9ncmFwaGljHAIZAAZEZXNpZ24cAhkAA0FydBwCGQAFQmxhY2scAhkADlVzZXIgSW50ZXJmYWNlHAIZAAlGbGF0IEljb24cAhkACENsaXAgQXJ0HAIZAANXZWIcAhkABkxhcHRvcBwCGQAIQ29tcHV0ZXIcAhkABkRldmljZRwCGQAISW50ZXJuZXQcAhkABk9ubGluZRwCGQAGV29ya2VyHAIZAAhFbXBsb3llZRwCGQAHTWFuYWdlchwCGQAKVGVjaG5vbG9neRwCGQAGQ2xpZW50HAIZAAhDdXN0b21lchwCGQAJV29ya3BsYWNlHAIZAAZPZmZpY2UcAhkACkNvbmZlcmVuY2UcAhkAA0pvYhwCGQAHTmV0d29yaxwCGQALT3V0c291cmNpbmccAhkAClByb2dyYW1tZXIcAhkABE1haWwcAhkADUNvbW11bmljYXRpb24cAhkAB01lc3NhZ2UcAhkAB1N0dWRlbnQcAlAADVR1a1R1ayBEZXNpZ24cAlUADVZlY3RvciBBcnRpc3QcAngAlVVzZXIgSWNvbiBWZWN0b3IgV2l0aCBMYXB0b3AgQ29tcHV0ZXIgTWFsZSBQZXJzb24gUHJvZmlsZSBBdmF0YXIgZm9yIEJ1c2luZXNzIGFuZCBPbmxpbmUgQ29tbXVuaWNhdGlvbiBOZXR3b3JrIGluIEdseXBoIFBpY3RvZ3JhbSBTeW1ib2wgaWxsdXN0cmF0aW9uHAJ6AA1UdWtUdWsgRGVzaWduOEJJTQQKAAAAAAABAQA4QklNBAsAAAAAABtodHRwOi8vd3d3LnR1a3R1a2Rlc2lnbi5jb20AOEJJTQQlAAAAAAAQUQUSajB4NyDxgVtOAp09wf/iDFhJQ0NfUFJPRklMRQABAQAADEhMaW5vAhAAAG1udHJSR0IgWFlaIAfOAAIACQAGADEAAGFjc3BNU0ZUAAAAAElFQyBzUkdCAAAAAAAAAAAAAAAAAAD21gABAAAAANMtSFAgIAAAAAAAAAAAAAAAAAAAAAAAAAAAAAAAAAAAAAAAAAAAAAAAAAAAAAAAAAAAAAAAEWNwcnQAAAFQAAAAM2Rlc2MAAAGEAAAAbHd0cHQAAAHwAAAAFGJrcHQAAAIEAAAAFHJYWVoAAAIYAAAAFGdYWVoAAAIsAAAAFGJYWVoAAAJAAAAAFGRtbmQAAAJUAAAAcGRtZGQAAALEAAAAiHZ1ZWQAAANMAAAAhnZpZXcAAAPUAAAAJGx1bWkAAAP4AAAAFG1lYXMAAAQMAAAAJHRlY2gAAAQwAAAADHJUUkMAAAQ8AAAIDGdUUkMAAAQ8AAAIDGJUUkMAAAQ8AAAIDHRleHQAAAAAQ29weXJpZ2h0IChjKSAxOTk4IEhld2xldHQtUGFja2FyZCBDb21wYW55AABkZXNjAAAAAAAAABJzUkdCIElFQzYxOTY2LTIuMQAAAAAAAAAAAAAAEnNSR0IgSUVDNjE5NjYtMi4xAAAAAAAAAAAAAAAAAAAAAAAAAAAAAAAAAAAAAAAAAAAAAAAAAAAAAAAAAAAAAAAAAABYWVogAAAAAAAA81EAAQAAAAEWzFhZWiAAAAAAAAAAAAAAAAAAAAAAWFlaIAAAAAAAAG+iAAA49QAAA5BYWVogAAAAAAAAYpkAALeFAAAY2lhZWiAAAAAAAAAkoAAAD4QAALbPZGVzYwAAAAAAAAAWSUVDIGh0dHA6Ly93d3cuaWVjLmNoAAAAAAAAAAAAAAAWSUVDIGh0dHA6Ly93d3cuaWVjLmNoAAAAAAAAAAAAAAAAAAAAAAAAAAAAAAAAAAAAAAAAAAAAAAAAAAAAAAAAAAAAAGRlc2MAAAAAAAAALklFQyA2MTk2Ni0yLjEgRGVmYXVsdCBSR0IgY29sb3VyIHNwYWNlIC0gc1JHQgAAAAAAAAAAAAAALklFQyA2MTk2Ni0yLjEgRGVmYXVsdCBSR0IgY29sb3VyIHNwYWNlIC0gc1JHQgAAAAAAAAAAAAAAAAAAAAAAAAAAAABkZXNjAAAAAAAAACxSZWZlcmVuY2UgVmlld2luZyBDb25kaXRpb24gaW4gSUVDNjE5NjYtMi4xAAAAAAAAAAAAAAAsUmVmZXJlbmNlIFZpZXdpbmcgQ29uZGl0aW9uIGluIElFQzYxOTY2LTIuMQAAAAAAAAAAAAAAAAAAAAAAAAAAAAAAAAAAdmlldwAAAAAAE6T+ABRfLgAQzxQAA+3MAAQTCwADXJ4AAAABWFlaIAAAAAAATAlWAFAAAABXH+dtZWFzAAAAAAAAAAEAAAAAAAAAAAAAAAAAAAAAAAACjwAAAAJzaWcgAAAAAENSVCBjdXJ2AAAAAAAABAAAAAAFAAoADwAUABkAHgAjACgALQAyADcAOwBAAEUASgBPAFQAWQBeAGMAaABtAHIAdwB8AIEAhgCLAJAAlQCaAJ8ApACpAK4AsgC3ALwAwQDGAMsA0ADVANsA4ADlAOsA8AD2APsBAQEHAQ0BEwEZAR8BJQErATIBOAE+AUUBTAFSAVkBYAFnAW4BdQF8AYMBiwGSAZoBoQGpAbEBuQHBAckB0QHZAeEB6QHyAfoCAwIMAhQCHQImAi8COAJBAksCVAJdAmcCcQJ6AoQCjgKYAqICrAK2AsECywLVAuAC6wL1AwADCwMWAyEDLQM4A0MDTwNaA2YDcgN+A4oDlgOiA64DugPHA9MD4APsA/kEBgQTBCAELQQ7BEgEVQRjBHEEfgSMBJoEqAS2BMQE0wThBPAE/gUNBRwFKwU6BUkFWAVnBXcFhgWWBaYFtQXFBdUF5QX2BgYGFgYnBjcGSAZZBmoGewaMBp0GrwbABtEG4wb1BwcHGQcrBz0HTwdhB3QHhgeZB6wHvwfSB+UH+AgLCB8IMghGCFoIbgiCCJYIqgi+CNII5wj7CRAJJQk6CU8JZAl5CY8JpAm6Cc8J5Qn7ChEKJwo9ClQKagqBCpgKrgrFCtwK8wsLCyILOQtRC2kLgAuYC7ALyAvhC/kMEgwqDEMMXAx1DI4MpwzADNkM8w0NDSYNQA1aDXQNjg2pDcMN3g34DhMOLg5JDmQOfw6bDrYO0g7uDwkPJQ9BD14Peg+WD7MPzw/sEAkQJhBDEGEQfhCbELkQ1xD1ERMRMRFPEW0RjBGqEckR6BIHEiYSRRJkEoQSoxLDEuMTAxMjE0MTYxODE6QTxRPlFAYUJxRJFGoUixStFM4U8BUSFTQVVhV4FZsVvRXgFgMWJhZJFmwWjxayFtYW+hcdF0EXZReJF64X0hf3GBsYQBhlGIoYrxjVGPoZIBlFGWsZkRm3Gd0aBBoqGlEadxqeGsUa7BsUGzsbYxuKG7Ib2hwCHCocUhx7HKMczBz1HR4dRx1wHZkdwx3sHhYeQB5qHpQevh7pHxMfPh9pH5Qfvx/qIBUgQSBsIJggxCDwIRwhSCF1IaEhziH7IiciVSKCIq8i3SMKIzgjZiOUI8Ij8CQfJE0kfCSrJNolCSU4JWgllyXHJfcmJyZXJocmtyboJxgnSSd6J6sn3CgNKD8ocSiiKNQpBik4KWspnSnQKgIqNSpoKpsqzysCKzYraSudK9EsBSw5LG4soizXLQwtQS12Last4S4WLkwugi63Lu4vJC9aL5Evxy/+MDUwbDCkMNsxEjFKMYIxujHyMioyYzKbMtQzDTNGM38zuDPxNCs0ZTSeNNg1EzVNNYc1wjX9Njc2cjauNuk3JDdgN5w31zgUOFA4jDjIOQU5Qjl/Obw5+To2OnQ6sjrvOy07azuqO+g8JzxlPKQ84z0iPWE9oT3gPiA+YD6gPuA/IT9hP6I/4kAjQGRApkDnQSlBakGsQe5CMEJyQrVC90M6Q31DwEQDREdEikTORRJFVUWaRd5GIkZnRqtG8Ec1R3tHwEgFSEtIkUjXSR1JY0mpSfBKN0p9SsRLDEtTS5pL4kwqTHJMuk0CTUpNk03cTiVObk63TwBPSU+TT91QJ1BxULtRBlFQUZtR5lIxUnxSx1MTU19TqlP2VEJUj1TbVShVdVXCVg9WXFapVvdXRFeSV+BYL1h9WMtZGllpWbhaB1pWWqZa9VtFW5Vb5Vw1XIZc1l0nXXhdyV4aXmxevV8PX2Ffs2AFYFdgqmD8YU9homH1YklinGLwY0Njl2PrZEBklGTpZT1lkmXnZj1mkmboZz1nk2fpaD9olmjsaUNpmmnxakhqn2r3a09rp2v/bFdsr20IbWBtuW4SbmtuxG8eb3hv0XArcIZw4HE6cZVx8HJLcqZzAXNdc7h0FHRwdMx1KHWFdeF2Pnabdvh3VnezeBF4bnjMeSp5iXnnekZ6pXsEe2N7wnwhfIF84X1BfaF+AX5ifsJ/I3+Ef+WAR4CogQqBa4HNgjCCkoL0g1eDuoQdhICE44VHhauGDoZyhteHO4efiASIaYjOiTOJmYn+imSKyoswi5aL/IxjjMqNMY2Yjf+OZo7OjzaPnpAGkG6Q1pE/kaiSEZJ6kuOTTZO2lCCUipT0lV+VyZY0lp+XCpd1l+CYTJi4mSSZkJn8mmia1ZtCm6+cHJyJnPedZJ3SnkCerp8dn4uf+qBpoNihR6G2oiailqMGo3aj5qRWpMelOKWpphqmi6b9p26n4KhSqMSpN6mpqhyqj6sCq3Wr6axcrNCtRK24ri2uoa8Wr4uwALB1sOqxYLHWskuywrM4s660JbSctRO1irYBtnm28Ldot+C4WbjRuUq5wro7urW7LrunvCG8m70VvY++Cr6Evv+/er/1wHDA7MFnwePCX8Lbw1jD1MRRxM7FS8XIxkbGw8dBx7/IPci8yTrJuco4yrfLNsu2zDXMtc01zbXONs62zzfPuNA50LrRPNG+0j/SwdNE08bUSdTL1U7V0dZV1tjXXNfg2GTY6Nls2fHadtr724DcBdyK3RDdlt4c3qLfKd+v4DbgveFE4cziU+Lb42Pj6+Rz5PzlhOYN5pbnH+ep6DLovOlG6dDqW+rl63Dr++yG7RHtnO4o7rTvQO/M8Fjw5fFy8f/yjPMZ86f0NPTC9VD13vZt9vv3ivgZ+Kj5OPnH+lf65/t3/Af8mP0p/br+S/7c/23////bAEMAAgEBAgEBAgICAgICAgIDBQMDAwMDBgQEAwUHBgcHBwYHBwgJCwkICAoIBwcKDQoKCwwMDAwHCQ4PDQwOCwwMDP/bAEMBAgICAwMDBgMDBgwIBwgMDAwMDAwMDAwMDAwMDAwMDAwMDAwMDAwMDAwMDAwMDAwMDAwMDAwMDAwMDAwMDAwMDP/AABEIA5wDwQMBIgACEQEDEQH/xAAfAAABBQEBAQEBAQAAAAAAAAAAAQIDBAUGBwgJCgv/xAC1EAACAQMDAgQDBQUEBAAAAX0BAgMABBEFEiExQQYTUWEHInEUMoGRoQgjQrHBFVLR8CQzYnKCCQoWFxgZGiUmJygpKjQ1Njc4OTpDREVGR0hJSlNUVVZXWFlaY2RlZmdoaWpzdHV2d3h5eoOEhYaHiImKkpOUlZaXmJmaoqOkpaanqKmqsrO0tba3uLm6wsPExcbHyMnK0tPU1dbX2Nna4eLj5OXm5+jp6vHy8/T19vf4+fr/xAAfAQADAQEBAQEBAQEBAAAAAAAAAQIDBAUGBwgJCgv/xAC1EQACAQIEBAMEBwUEBAABAncAAQIDEQQFITEGEkFRB2FxEyIygQgUQpGhscEJIzNS8BVictEKFiQ04SXxFxgZGiYnKCkqNTY3ODk6Q0RFRkdISUpTVFVWV1hZWmNkZWZnaGlqc3R1dnd4eXqCg4SFhoeIiYqSk5SVlpeYmZqio6Slpqeoqaqys7S1tre4ubrCw8TFxsfIycrS09TV1tfY2dri4+Tl5ufo6ery8/T19vf4+fr/2gAMAwEAAhEDEQA/AP38ooooAKKKKACiiigAooooAKKKKACiiigAooooAKKKKACiiigAooooAKKKKACiiigAooooAKKKKACiiigAooooAKKKKACiiigAooooAKKKKACiiigAooooAKKKKACiiigAooooAKKKKACiiigAooooAKKKKACiiigAooooAKKKKACiiigAooooAKKKKACiiigAooooAKKKKACiiigAooooAKKKKACiiigAooooAKKKKACiiigAooooAKKKKACiiigAooooAKKKKACiiigAooooAKKKKACiiigAooooAKKKKACiiigAooooAKKKKACiiigAooooAKKKKACiiigAooooAKKKKACiiigAooooAKKKKACiiigAooooAKKKKACiiigAooooAKKKKACiiigAooooAKKKKACiiigAooooAKKKKACiiigAooooAKKKKACiiigAooooAKKKKACiiigAooooAKKKKACiiigAooooAKKKKACiiigAooooAKKKKACiiigAooooAKKKKACiiigAooooAKKKKACiiigAooooAKKKKACiiigAooooAKKKKACiiigAooooAKKKKACiiigAooooAKKKKACiiigAooooAKKKKACiiigAooooAKKKKACiiigAooooAKKKKACiiigAooooAKKKKACiiigAooooAKKKKACiiigAooooAKKKKACiiigAooooAKKKKACiiigAooooAKKKKACiiigAooooAKKKKACiiigAooooAKKKKACiiigAooooAKKKKACiiigAooooAKKKKACiiigAooooAKKKKACiiigAooooAKKKKACiiigAooooAKKKKACiiigAooooAKKKKACiiigAooooAKKKKACiiigAooooAKKKKACiiigAooooAKKKKACiiigAooooAKKKKACiiigAooooAKKKKACiiigAooooAKKKKACiiigAooooAKKKKACiiigAooooAKKKKACiiigAooooAKKKKACiiigAooooAKKKKACiiigAooooAKKKKACiiigAooooAKKKKACiiigAooooAKKKKACiiigAooooAKKKKACiiigAooooAKKKKACiiigAooooAKKKKACiimlwKAHE4ozXLfFn43eDvgP4Qm17xt4q8PeD9Dt8+ZqGtajFYWycZx5krKufYHNfnt+1H/wdffsk/s+yXVpoXiLxF8UtUhynkeFdLLWwcdM3NwYomXP8UZcY7GgD9MPMGfwzQZlHU4+vFfzp/H//AIPa/HOqyTwfDD4K+F9BjAKQ3fifVZ9UkYdmMMAt1U+29h9a+Qfi5/wdNftofFMyJbfErT/CFrKSTBoHh+zt9gPYSSJJL/4/mgD+uoyKBSCdT2bj/ZNfxJfED/grz+1H8TzJ/bP7QXxguI5DloYvFV5bQnPX93E6Jj2xivM9a/aw+KHiVmbUviR4+1Bm6tc+IbuUn/vqQ0Af3dGUAfxflR5y/wC1/wB8mv4MY/jx42hk3p4w8VI/XcurXAb/ANDrovD/AO2p8YfCLq2kfFb4laWy9DaeJ72HH02yDFAH91hlVRnNAkU1/Fd8PP8Agt9+1x8LzH/Zf7Q3xUkEOAi6jrUmpxrj/ZufMFfSPwd/4O4f2wvhlLbjWdc8EePoIsBk13w5FEzgdfns2gbJ9TmgD+sEPn88Uua/Av8AZ5/4PcdPuZLe1+K3wPvLVdw87UfCWsLNn1ItLlVx/wCBGffvX6Gfsr/8HG/7Iv7V0tva2PxU0/wbrNztxpnjCFtElVj0Xzpf9HYk8YWU5oA+6KKp6P4gsfEGlwX1hdW97Y3SCSG4t5BLDKp5DK6khgfUHFXAc0AFFFFABRRRQAUUUUAFFFFABRRRQAUUUUAFFFFABRRRQAUUUUAFFFFABRRRQAUUUUAFFFFABRRRQAUUUUAFFFFABRRRQAUUUUAFFFFABRRRQAUUUUAFFFFABRRRQAUUUUAFFFFABRRRQAUUUUAFFFFABRRRQAUUUUAFFFFABRRRQAUUUUAFFFFABRRRQAUUUUAFFFFABRRRQAUUUUAFFFFABRRRQAUUUUAFFFFABRRRQAUUUUAFFFFABRRRQAUUUUAFFFFABRRRQAUUUUAFFFNWUN+fHvQA4nAqP7QuO/tx1/z+teK/twf8FDPhH/wTz+FL+Lfit4vsfDtjIGWxtM+dqGrSL/yytbdfnlbJAJA2LuBZlXmv52/+CoX/AAdhfGL9rWXUfDPwbF58G/AUu6I3lrOG8R6kh4y9yvFrkDO23IcdDKwoA/eD/goF/wAFrv2ev+CbtpcWvxA8bW914qjQtH4W0MLqGtSnGRuhVgsAI6NO0an1r8QP26f+DxT41fGqa80r4L+H9J+EuhSbo01O4CatrsqdMhpF+zw5HZYnZT0fjNfj9qer3GtX891eTTXV1dOZZpZXLvK5OSzMeSTk8kk5qrmgDtvjf+0f48/aX8YSeIPiF4x8TeNNck3D7brOpS3sqgnO1TIx2r6KuAPSuLZwR07YptFABRRRQAUUUUAFFFFABRRRQAA4NOWXaabRQB7l+yP/AMFJ/jl+wrrEV18KviZ4q8JwrJ5j2EF352m3BOP9ZaS77d/qY889a/YT9gb/AIPQLiO4sdD/AGivh/HLG5WN/E/g9drjtvmsJWw3qzRSA9dsZOBX4Eg4pQcf4UAf3P8A7JX7dfwl/bn8AL4l+FPjvQPGmmqqtcLZT4urAnotxbvtlgb2kVSccZr1oTKT364/Gv4Nfgp8fPGf7OPxFsfFngLxRrvhHxJprbrfUtKvXtbhB/dLIRuUjhlbKsCQQRxX7mf8Esv+DwlvM03wf+1Jpq7cpDH480S12kZ/ivrGMY9cy2w9vKOd1AH9AFFc38KPi/4X+OfgHS/FPg3xBpPifw3rMXnWOp6ZdJc2t0ncq6kjg5BHUEEEAg10Syh/WgB1FFFABRRRQAUUUUAFFFFABRRRQAUUUUAFFFFABRRRQAUUUUAFFFFABRRRQAUUUUAFFFFABRRRQAUUUUAFFFFABRRRQAUUUUAFFFFABRRRQAUUUUAFFFFABRRRQAUUUUAFFFFABRRRQAUUUUAFFFFABRRRQAUUUUAFFFFABRRRQAUUUUAFFFFABRRRQAUUUUAFFFFABRRRQAUUUUAFFFFABRRRQAUUUUAFFFFABRRRQAUUUUAFFFFABRRRQAUUUUAFBOKCcCq2p6vb6Rp891dTR29tbRtLLLKwWOJVGWZiSAFAGSTgAc5oAleYYPX0549q/J//AILV/wDBzl4I/YHuNW+HPwjGmfET4vQ77W8n8zzdF8LSD7wndD+/uFPWCMgKTiRlK+Wfjn/gvZ/wdD3XxIk1r4N/s061NZeGwXste8eWUpjn1YdHt9ObrHB2a4GGk52bUw8n4ZyXXmly2SznJJPfv+f+cUAd7+0v+1V4/wD2w/i3qXjr4l+KNW8YeKNUP768v5d2xASRFFGuEhiXJCxxhVUE4Arz8ycY5plFABRRRQAUUUUAFFFFABRRRQAUUUUAFFFFABRRRQAUUUUAAODUglUev9KjooA+o/8Agml/wV2+MX/BLf4j/wBqfDvXJJvD+oTK+seFtQkaXSdYUYHzR5zFKAMLNGVcYAJZcqf6k/8AglB/wWo+En/BWL4fG48LXn/CP+OtLtxNrfg/Up1+36fyA0sLfKLi23EASooxld6xsQp/jJBwa6r4Q/GfxP8AAP4laP4w8F65qnhnxR4fuFudP1LT7gw3Fq47hvQ8hlPDBiCMEggH96Aky+3DU6vyr/4IP/8ABx34b/4KMWWm/DP4oyad4V+N1vFttyuIbDxiqglpLUZxHchQS9v/ABYLRkjckf6pLMrdKAHUUUUAFFFFABRRRQAUUUUAFFFFABRRRQAUUUUAFFFFABRRRQAUUUUAFFFFABRRRQAUUUUAFFFFABRRRQAUUUUAFFFFABRRRQAUUUUAFFFFABRRRQAUUUUAFFFFABRRRQAUUUUAFFFFABRRRQAUUUUAFFFFABRRRQAUUUUAFFFFABRRRQAUUUUAFFFFABRRRQAUUUUAFFFFABRRRQAUUUUAFFFFABRRRQAUUUUAFFFFABRRRQAUUUUAFFFRtKNp6jjjHP5UAR32qW+m2M1xcTRwW8CF5ZZGCpGoGSxJ4AABJPQYPpX8zf8AwcXf8HE1z+17q+sfA/4J6vJb/Cmxka11/X7OQo/jGVThoomHIsQw6/8ALfGT+7wG9Y/4Ojf+C87eIr7XP2ZPg/rJGnWrtZ/EDXLOf/j6lXhtJhcf8s0PE7Ly7Dys4WUN+DRlyD9MfSgBXm3A/eOec1HRRQAUUUUAFFFFABRRRQAUUUUAFFFFABRRRQAUUUUAFFFFABRRRQAUUUUAFAODRRQBe0PxFeeGdas9S067vNP1DT5o7i2uraZoZreRGDLIjqcq6sAwI5BAx0r+nL/g3R/4OF7b9ujSNP8Agz8Y9StrP4yaZAV0nVZdsUfjSCNcnjgLeqoJZAMSKC6jIdR/L+Dg1qeFfF+o+B/FGn61o99d6Xq2lXKXlleWkzQT2kyMGSSN1OUZWAII6EUAf3zJMr4285GQe2KdX5tf8G9H/Bb7T/8AgqL8Ej4T8ZXVtZ/GzwTaIdZgUCNPEFqCEXUYEHA5KpNGowjsGACyKB+kazK/TntkdKAHUUUUAFFFFABRRRQAUUUUAFFFFABRRRQAUUUUAFFFFABRRRQAUUUUAFFFFABRRRQAUUUUAFFFFABRRRQAUUUUAFFFFABRRRQAUUUUAFFFFABRRRQAUUUUAFFFFABRRRQAUUUUAFFFFABRRRQAUUUUAFFFFABRRRQAUUUUAFFFFABRRRQAUUUUAFFFFABRRRQAUUUUAFFFFABRRRQAUUUUAFFFFABRRRQAUUUUAFFFFABRRQTgUABOBX5d/wDByv8A8Fnf+Hcn7O0fgHwDqyw/GX4jWsi2U0LDzPDumnMcmoHuJWw0cB/vb3/5ZYP3l+2Z+1p4T/Yf/Zl8YfFLxrdfZtB8IWD3ckYYLLeSnCw20WeDLLIyRqDxlwTgZNfxXftt/tgeLf28P2n/ABd8U/G119q1zxVeNOIlYmHT7cALBaxZ5EUUYVFzydu5ssSSAeWXV695cSzTPJNNMxZpHYszEnJJJ6k5PPXmoaKKACiiigAooooAKKKKACiiigAooooAKKKKACiiigAooooAKKKKACiiigAooooAKKKKAChTg/4UUUAejfsqftT+Mv2Mfj/4Z+JfgDVH0fxV4VvBdWkxG6KVfuvDKvG+GRCyOndWPTt/Zl/wTO/4KC+Ef+CmH7Jnhv4o+E3Fu2oJ9l1nS2kDzaHqMYHn2kh6/KTuRiBvjdHx81fxDjrX6Gf8G6f/AAVpm/4Jmftm2un+I9Qkh+EvxIlh0vxNHI58rTJNxW31EDsYWYiT+9E8nBZUwAf14UVDaXkd5DHJC6yxyKHR0O5XUjIIPQg54PepqACiiigAooooAKKKKACiiigAooooAKKKKACiiigAooooAKKKKACiiigAooooAKKKKACiiigAooooAKKKKACiiigAooooAKKKKACiiigAooooAKKKKACiiigAooooAKKKKACiiigAooooAKKKKACiiigAooooAKKKKACiiigAooooAKKKKACiiigAooooAKKKKACiiigAooooAKKKKACiiigAooooAKKKKACiiigANNdwFbrx6U48ivA/+Cmf7a+m/wDBPb9h/wCIPxZv/Jkm8M6aw0q2lbC32oSkRWsOOpDTOm7HITcf4TQB+E3/AAd9/wDBTyX41/tAab+zt4V1Dd4X+G8i3/iZoJfkvdZdPkgbBIZbaFsH0lmkBAKCvxaL5H88961vHvjvVfib431jxHr19canrmv3s2o393M2ZLm4mcySSMe5ZmYn61j0AFFFFABRRRQAUUUUAFFFFABRRRQAUUUUAFFFFABRRRQAUUUUAFFFFABRRRQAUUUUAFFFFABRRRQAA805WyeOp4+v4U2gHBoA/qm/4NUP+Cnsn7Zv7FbfDHxRqDXXxA+DccOn75pd82paO2RaTkk5Zotpt2I6COInl6/VbNfxV/8ABG39v66/4Jv/APBQfwL8RvPli8M/af7I8TwLkrcaVckJOSo+8Y/kmUcZeBPev7StK1O31fT7e6tZori1uo1mhliffHIjAMGUjqpByD3oAtUUUUAFFFFABRRRQAUUUUAFFFFABRRRQAUUUUAFFFFABRRRQAUUUUAFFFFABRRRQAUUUUAFFFFABRRRQAUUUUAFFFFABRRRQAUUUUAFFFFABRRRQAUUUUAFFFFABRRRQAUUUUAFFFFABRRRQAUUUUAFFFFABRRRQAUUUUAFFFFABRRRQAUUUUAFFFFABRRRQAUUUUAFFFFABRRRQAUUUUAFFFFABRRRQAUUUZoARuVP0r+eL/g9G/bnk1/x98O/2fNHvf8AQ9Ch/wCEw8RRxvw1zMrw2cTDsUh86QqeouUPbj+hTV9St9I0ye6upUt7W2jaWaVztWNFBLMT2AAJ/Cv4gP8AgpF+1ddftvftzfFL4pXE0kkPi7Xri4sFdjmKxQ+TaR/8At44l/CgDwyiiigAooooAKKKKACiiigAooooAKKKKACiiigAooooAKKKKACiiigAooooAKKKKACiiigAooooAKKKKACiiigBUO1x9a/rb/4NdP25H/bF/wCCXXhvR9VvTd+KvhHN/wAIhf723SSW0SK9lIfb7OyRbs8tbsa/kkX7w+vav1p/4M/f2vpPgZ/wUg1D4b3l15ei/GHRpbOOMttU6jZq1zbN6cxfa0A7mUegoA/qSopqSAqKdQAUUUUAFFFFABRRRQAUUUUAFFFFABRRRQAUUUUAFFFFABRRRQAUUUUAFFFFABRRRQAUUUUAFFFFABRRRQAUUUUAFFFFABRRRQAUUUUAFFFFABRRRQAUUUUAFFFFABRRRQAUUUUAFFFFABRRRQAUUUUAFFFFABRRRQAUUUUAFFFFABRRRQAUUUUAFFFFABRRRQAUUUUAFFFFABRRRQAUUUUAFFFFABQelFFAHxf/AMHA37Tj/so/8Ej/AIya9a3LWuraxo//AAjWnMpw/n6g62pKH+8kUkr57bM1/GtK4Prx6jrX9HP/AAez/HhvDv7Mvwb+G9vcbT4q8Q3fiC5jVuXjsbcRJkf3S18T9Y/av5w6ACiiigAooooAKKKKACiiigAooooAKKKKACiiigAooooAKKKKACiiigAooooAKKKKACiiigAooooAKKKKACiiigAr0b9kv4+337Lf7Tvw/wDiNpsky3ngfxBZa0gTrKsE6SNH16MoZSO4Yjoa85pyffH1oA/vo8LeIbLxd4esdV06dbjT9St47q1lX7s0Uiq6MPYhh+daVfHv/BBD49N+0Z/wSI+BPiCa4FxeWfhyPQLlycsZdOkexO7/AGmW3VvfdX2FQAUUUUAFFFFABRRRQAUUUUAFFFFABRRRQAUUUUAFFFFABRRRQAUUUUAFFFFABRRRQAUUUUAFFFFABRRRQAUUUUAFFFFABRRRQAUUUUAFFFFABRRRQAUUUUAFFFFABRRRQAUUUUAFFFFABRRRQAUUUUAFFFFABRRRQAUUUUAFFFFABRRRQAUUUUAFFFFABRRRQAUUUUAFFFFABRRRQAUUUUAFFFFABRRSM20UAfzEf8Hn3xZbxX/wUc8D+FY5C1p4T8DQSFc5xPdXdzIx9spHD+Qr8e6/Qb/g6M8cN4z/AOC2HxbhDFodDi0jS4v9kR6XasR/33I9fnzQAUUUUAFFFFABRRRQAUUUUAFFFFABRRRQAUUUUAFFFFABRRRQAUUUUAFFFFABRRRQAUUUUAFFFFABRRRQAUUUUAFA60UUAf1Cf8GZfxYbxp/wTK8UeG55C03g3xzdxQqT92C5traccf8AXQzH8TX68V+BP/Bj547aXSP2iPDbM22GfQtUiX0Li+ic/kiflX77A5oAKKKKACiiigAooooAKKKKACiiigAooooAKKKKACiiigAooooAKKKKACiiigAooooAKKKKACiiigAooooAKKKKACiiigAooooAKKKKACiiigAooooAKKKKACiiigAooooAKKKKACiiigAooooAKKKKACiiigAooooAKKKKACiiigAooooAKKKKACiiigAooooAKKKKACiiigAooooAKKKKACiiigAqO5OIW+hqSmXB/ct9KAP4yv8Agv7qza3/AMFjv2gpm+8niqS3/CKGGMfolfHdfXH/AAXgha3/AOCwH7QqMNp/4TK7b8CEI/Q18j0AFFFFABRRRQAUUUUAFFFFABRRRQAUUUUAFFFFABRRRQAUUUUAFFFFABRRRQAUUUUAFFFFABRRRQAUUUUAFFFFABQOtFA60AfuF/wZHas0H7THxxsOdtz4Y0+4PuY7x1H/AKNNf0dDpX82/wDwZLQM37XPxmm/gj8H2qH2LXy4/ka/pIHSgAooooAKKKKACiiigAooooAKKKKACiiigAooooAKKKKACiiigAooooAKKKKACiiigAooooAKKKKACiiigAooooAKKKKACiiigAooooAKKKKACiiigAooooAKKKKACiiigAooooAKKKKACiiigAooooAKKKKACiiigAooooAKKKKACiiigAooooAKKKKACiiigAooooAKKKKACiiigAooooAKKKKACmzDMZp1IwyKAP44/wDg488NN4U/4LUfHi2ZNnnataXq5/iE2n2kufx3V8QV+oH/AAd2/DtvBn/BYXVtUaPZ/wAJh4T0jVg2Pv7Y3syf/JX9K/L+gAooooAKKKKACiiigAooooAKKKKACiiigAooooAKKKKACiiigAooooAKKKKACiiigAooooAKKKKACiiigAooooAKKKKAP3e/4MgPDL3PxS/aF1jyz5dnpWiWYftmSe8fH/kKv6HhwK/ET/gyR+HZ0v8AZU+NXivyzt1zxZZaUrkff+yWfmkfgbw/nX7d0AFFFFABRRRQAUUUUAFFFFABRRRQAUUUUAFFFFABRRRQAUUUUAFFFFABRRRQAUUUUAFFFFABRRRQAUUUUAFFFFABRRRQAUUUUAFFFFABRRRQAUUUUAFFFFABRRRQAUUUUAFFFFABRRRQAUUUUAFFFFABRRRQAUUUUAFFFFABRRRQAUUUUAFFFFABRRRQAUUUUAFFFFABRRRQAUUUUAFFFFABRRRQAUUUGgD+eH/g92+Cr2PxS+BXxEji3LqWk6l4duZQPufZ5oriFT9Rcz4/3TX4Q1/Vl/wd0/s6N8aP+CTN54mtbfzL74ZeJLDXyy/eFvJusph/uj7TGx/3M9q/lPK8+3WgBtFFFABRRRQAUUUUAFFFFABRRRQAUUUUAFFFFABRRRQAUUUUAFFFFABRRRQAUUUUAFFFFABRRRQAUUUUAFFFFABQv3hRVrSdKuNY1O3s7WJ57q6kWGGNBlpHZgqqB6kkCgD+tL/g1O+C0nwh/wCCNXgW9li8m48capqniKZT1Ie5a2iP4w2sZHsa/SCvLf2JvgNF+y7+yH8Mfh1Eip/whXhfTtGkI/5aSw26JI31Zw7E+9epUAFFFFABRRRQAUUUUAFFFFABRRRQAUUUUAFFFFABRRRQAUUUUAFFFFABRRRQAUUUUAFFFFABRRRQAUUUUAFFFFABRRRQAUUUUAFFFFABRRRQAUUUUAFFFFABRRRQAUUUUAFFFFABRRRQAUUUUAFFFFABRRRQAUUUUAFFFFABRRRQAUUUUAFFFFABRRRQAUUUUAFFFFABRRRQAUUUUAFFFFABRRRQAUUUUAea/thfs92P7V37LPxC+G2pLH9l8ceHr3RSzD/UvNCyJID6pIUcHsUFfwx+NPCWoeAfF2raHq1u9nqui3k1jeQSLh4ZonMciMOxDKR9RX98kq74yK/kp/4Omf2LG/ZP/wCCqPifXbGza38N/FyEeL7FlXEYuZTsvkz3b7SjyEdhcJ68AH5t0UUUAFFFFABRRRQAUUUUAFFFFABRRRQAUUUUAFFFFABRRRQAUUUUAFFFFABRRRQAUUUUAFFFFABRRRQAUUUUACnBr7Q/4N//ANlH/hr3/grL8I/D81r9q0XQdVHijVgVzH9m08faQH/2ZJUhjPb96BXxeDg1/RD/AMGWP7FbeHfhr8TPjxq1lsuPENwvhHQZXXB+zQMs946nurzGBM+tsw+oB+68Ue1P9o9T61JRRQAUUUUAFFFFABRRRQAUUUUAFFFFABRRRQAUUUUAFFFFABRRRQAUUUUAFFFFABRRRQAUUUUAFFFFABRRRQAUUUUAFFFFABRRRQAUUUUAFFFFABRRRQAUUUUAFFFFABRRRQAUUUUAFFFFABRRRQAUUUUAFFFFABRRRQAUUUUAFFFFABRRRQAUUUUAFFFFABRRRQAUUUUAFFFFABRRRQAUUUUAFFFFABRRRQAHpX5d/wDB1x+wFJ+11/wTduvG2i2f2jxb8FZ38QQbFzLNprKEv48+gjEc5/69T61+oh6VS1zQrXxFpF1Y31vBeWN7C9vcwTIHjnjdSrKwPBUqSCDwQaAP4EniKD/IzTa+rv8Ags//AME8bz/gmf8At9eMvh6tvMvhW4l/tjwrcyA/6Vpc7MYRuP3miIeFj3aFj3r5RoAKKKKACiiigAooooAKKKKACiiigAooooAKKKKACiiigAooooAKKKKACiiigAooooAKKKKACiiigAoAyaKB1oA6D4XfDPW/jD8SfD/hPw5Zyal4g8S6jb6XptrGMtcXE0ixxoPqzKPxr+3r9gn9knSf2F/2P/h58KNF8qS28F6PDZTXCLt+23JHmXM5HrLO8sn/AAMelfgT/wAGfX/BNlvjV+0lrH7QniTT9/hz4Y7tP8OmaP8Ad3esyx4aReMEW8Dk+zzxN1Wv6Vki8scf5HagB1FFFABRRRQAUUUUAFFFFABRRRQAUUUUAFFFFABRRRQAUUUUAFFFFABRRRQAUUUUAFFFFABRRRQAUUUUAFFFFABRRRQAUUUUAFFFFABRRRQAUUUUAFFFFABRRRQAUUUUAFFFFABRRRQAUUUUAFFFFABRRRQAUUUUAFFFFABRRRQAUUUUAFFFFABRRRQAUUUUAFFFFABRRRQAUUUUAFFFFABRRRQAUUUUAFFFFABSN90/TtS0GgD80/8Ag5m/4JVt/wAFDP2JJvE3hXT1uPij8KEm1bSFiQedqtlt3Xlh0yxKqssY6mSIAY3sa/kyeBoy2eNvrxmv79TDxk9fbtjpX8tv/B0b/wAEdJP2Jf2jZPjF4F0tl+FnxOvXkuoreLbB4d1h8vJBgcLDPh5YuwYSpgBVyAfkzRTjEQM+2f8AP502gAooooAKKKKACiiigAooooAKKKKACiiigAooooAKKKKACiiigAooooAKKKKACiiigAoooAyaAAc13n7M37OHir9rT4++E/hv4Lsv7Q8TeMNRi06wi/gDOeZHOPljRQzux+6qMe1cMsTb+gO01/S//wAGof8AwR1k/Zk+EH/DQnxA0x4PHfxAsvK8NWV1CPM0XR5Pm8/B5Wa6G1vVYQnP7xgAD9M/2BP2NfDH7An7Jvgv4U+E1V9P8K2KxT3mwLJql0/z3F3Jj+OWUu2OwIA4UV7PTFjIb+dPoAKKKKACiiigAooooAKKKKACiiigAooooAKKKKACiiigAooooAKKKKACiiigAooooAKKKKACiiigAooooAKKKKACiiigAooooAKKKKACiiigAooooAKKKKACiiigAooooAKKKKACiiigAooooAKKKKACiiigAooooAKKKKACiiigAooooAKKKKACiiigAooooAKKKKACiiigAooooAKKKKACiiigAooooAKKKKACiiigANee/tQ/sx+D/wBsH4BeJ/hv480mPWPC3iyyezvYM7ZFzgpLG/OyVHCujjkMintivQqCMigD+Jv/AIKp/wDBM/xn/wAEtf2rNY+HfiaO4vdJkJvPDWuCLZBr2ns2I5lH8Mi/ckTqrg4ypVm+afLOD7V/bB/wVT/4JgeB/wDgqh+zDfeA/FkaWOsWu+88N6/FEGutAvtuBInTdE4wksROHX0ZUZf49/20P2NPH37Bv7QuvfDP4jaPJpPiHQ3wjKC1tqEDEmK6t5CB5kMgBKsORypAZWUAHktFO8slc02gAooooAKKKKACiiigAooooAKKKKACiiigAooooAKKKKACiiigAooooAKKKBzQADk04REN+v4etAibI/Ovub/giD/wRg8Wf8FZ/j6EmS+0H4T+F7lJPE/iFU2nnDCytSRhrmRcc8iJTvbqiuAe5/8ABtL/AMEP5v8AgoD8aY/it8SNIm/4U14EvEMVvcJhPFmpRkMtsPW2i4aY9GysYzucp/U3b2aWsaJGqIsYwAo2gDsABxj2rmvgp8FPC/7O3wq8P+CfBWjWPh3wr4Ys0sNM061TbFbQr0HOSzE5ZmYlmZmZiSST1dABRRRQAUUUUAFFFFABRRRQAUUUUAFFFFABRRRQAUUUUAFFFFABRRRQAUUUUAFFFFABRRRQAUUUUAFFFFABRRRQAUUUUAFFFFABRRRQAUUUUAFFFFABRRRQAUUUUAFFFFABRRRQAUUUUAFFFFABRRRQAUUUUAFFFFABRRRQAUUUUAFFFFABRRRQAUUUUAFFFFABRRRQAUUUUAFFFFABRRRQAUUUUAFFFFABRRRQAUUUUAFFFFABRRRQAMMivkf/AIK3/wDBIX4f/wDBWP4FHQPEix6L4y0WOR/DHiiC3D3WjzNglG6ebbSEASRE4IAIKsoavrihhuFAH8Nf7dH7CPxJ/wCCePx31D4e/EzQZdJ1ezzJa3SZkstWtiSFubWXAEsLc4OAVOUYBlIHjPl8f55r+3z/AIKF/wDBNr4Yf8FMPgXc+B/iXpH2qNA8ml6vbYTU9CuCMCe2lIO1sABkIKSAAOrAAD+VH/grR/wRJ+LH/BKDx7L/AMJBZy+JvhzqM2zRvGNhbsLG467YbheTbXOP+WbnDYbY0gBIAPi+inmFl3f7PWmUAFFFFABRRRQAUUUUAFFFFABRRRQAUUUUAFFFFABRRRQAUUUDk0AA5pyodw/xp3kkN689v8a/XP8A4Ii/8GxHi79tm50n4l/Gy31bwP8ACZ2jurHS3DW+seK0+8pQfetrVx/y1YCRlP7sYIlAB88f8EV/+CHXj7/grF8UI75lu/Cfwj0S6C674oeH/WsNrNaWQYYluWUjJ5SIHc3JRH/rK/Zf/Zd8EfsdfBDQvh58O9Bs/DvhTw9F5VpaQLySTl5JHPzSSu3zO7EszEknnjc+E3we8M/Af4d6N4R8G6Jpvhvwv4ftxa6fpmnwiC3tYhnCqqjHUkknksSSSWJPTUAFFFFABRRRQAUUUUAFFFFABRRRQAUUUUAFFFFABRRRQAUUUUAFFFFABRRRQAUUUUAFFFFABRRRQAUUUUAFFFFABRRRQAUUUUAFFFFABRRRQAUUUUAFFFFABRRRQAUUUUAFFFFABRRRQAUUUUAFFFFABRRRQAUUUUAFFFFABRRRQAUUUUAFFFFABRRRQAUUUUAFFFFABRRRQAUUUUAFFFFABRRRQAUUUUAFFFFABRRRQAUUUUAFFFFABRRRQAUUUUAB5Fc/8R/hf4f+LngXVPDPirRdL8ReHdZga2v9N1G2S5tbuM9VeNwVYH36cYxiugooA/no/wCCu3/BolqHh2TU/HP7LLNqWnsXuLnwFqNzi5tgOT/Z9zI371ewhnbf/dkckIPwz8c/DzXfhj4v1Dw/4k0fUtA17SZjbX2nalayWl1ZyjqkkcgVkYdSGAr+98Q8n0PYfz//AF5r5n/4KF/8Eifgb/wU08LG1+J3g+3uNct4TFYeJNNItNb04dglwAd6DJPlyq8eTnbnmgD+KExkH/IptfrN/wAFE/8Ag0p+On7Lr32ufCOUfGrweitKttYw/ZvEFtH1w1mSRPjpmBmdj/yyWvyr8VeDtW8C+IbzSNa02+0nVdPkaG6s7y3eC4tnHVXRwGUj0IBoAzaKUJmkIxQAUUUUAFFFFABRRRQAUUUUAFFFKFz/ACzQAlAGTShCTXe/s8/sufEb9q/x/B4X+GvgvxH411+YjFnpNk9w0QJxvkIG2NB1LuVVRkkgDNAHBrEzjivUv2SP2J/ih+3R8Vbfwb8K/B+reLtbl2tMLWPbbWEROPOuZ2xFBF1G+RlGeBkkA/sd/wAE3/8Agzb1jX5tP8TftLeKF0i03CQ+D/DVws12/fZdX2DHH6MsIkyCQJVNfup+zL+yV8Of2N/hja+Dfhj4P0PwZ4ctCGFrp1vsM79PMmc5eaQgcySMzHHWgD81f+CPn/BrH8PP2MJ9J8ffGh9L+J3xPt9lxbWJi8zw/wCHpgcgxpIM3UynpLMuwHBSMMoc/rYkGzbzwvb/AD/WlWLa2e/rT6ACiiigAooooAKKKKACiiigAooooAKKKKACiiigAooooAKKKKACiiigAooooAKKKKACiiigAooooAKKKKACiiigAooooAKKKKACiiigAooooAKKKKACiiigAooooAKKKKACiiigAooooAKKKKACiiigAooooAKKKKACiiigAooooAKKKKACiiigAooooAKKKKACiiigAooooAKKKKACiiigAooooAKKKKACiiigAooooAKKKKACiiigAooooAKKKKACiiigAooooAKGG4Y9aKKAIzDli38R9OOf8+teIfth/wDBNj4H/t7aE1l8WPhv4Z8WSLF5UOoTW3k6naL2EV3EVnjHfargHvnpXudFAH4P/tjf8GVPh/W57rU/gT8VL3QpWy0Wh+MLf7ZbhuuFvYFEkajoA0Erf7Rr8xf2ov8Ag3R/a8/ZWa4m1D4R6v4s0e33Ean4SkXW4ZFGcv5cJNwgwM/PEtf2NU0x5P4UAfwM+KfBWr+Btcm0zWtL1DR9StziW0vrZ7eeI+jI4DD8RWb5TEA+tf3lfFb9n3wL8dtK+w+NvBvhXxhY7Sv2fW9It9Qj568TIw/KvlH4t/8ABuT+xn8ZHml1D4HeHdJuZju83Qbu80fYfZLeZI//AB3FAH8cW3ilCZr+pfx9/wAGcX7KPi1pX0vVPiz4Ykf7q2WvQXEae2Li3kb82rzLWv8AgyX+DMrn+zfjB8ULVc8C6s7C5P5rHHQB/NmBk0pXFf0bp/wZIfDXcu744eO2UdQNDswf/Qq6Lw7/AMGT3wJtpEbVvit8W77aRuFsNOtQ35wPQB/NOEJ/z1oETE1/Vp8Pf+DQr9j7wW6/2jpvxE8WKANy6r4meJX/AAtUgP619JfBz/ghX+yP8CZ4pPD/AMA/h7JLDgpLq9i2tSqR0YNeNLg98igD+On4Q/s9ePPj/ry6X4F8F+KvGeos4T7NomlT38mTwMiJGx+NffH7Kv8Awam/tbftFSWtxrnhnRvhXo8wDG68VaisdxsPXFrAJZg2P4ZFTJ4JHWv6vfCfgjSPAeiRaboml6do+n24xFa2NqltBGPQIgCj8BWmFxQB+Pf7GH/BnB8Cfgy9rqXxa8S+Ivi7q0TB2sUzoujA8HBiidp5MHuZ1BHVO1fql8D/ANnXwL+zR4Gh8M/D7wj4c8F6DDgrYaNp8VlCTjG5gijcx7s2WPcmu0ooAYsOG/Lr14p9FFABRRRQAUUUUAFFFFABRRRQAUUUUAFFFFABRRRQAUUUUAFFFFABRRRQAUUUUAFFFFABRRRQAUUUUAFFFFABRRRQAUUUUAFFFFABRRRQAUUUUAFFFFABRRRQAUUUUAFFFFABRRRQAUUUUAFFFFABRRRQAUUUUAFFFFABRRRQAUUUUAFFFFABRRRQAUUUUAFFFFABRRRQAUUUUAFFFFABRRRQAUUUUAFFFFABRRRQAUUUUAFFFFABRRRQAUUUUAFFFFABRRRQAUUUUAFFFFABRRRQAUUUUAFFFFABRRRQAUdaKKADFFFFABRRRQAUUUUAFFFFABRRRQAUUUUAFFFFABRRRQAUUUUAFFFFABRRRQAUUUUAFFFFABRRRQAUUUUAFFFFABRRRQAUUUUAFFFFABRRRQAUUUUAFFFFABRRRQAUUUUAFFFFABRRRQAUUUUAFFFFABRRRQAUUUUAFFFFABRRRQAUUUUAFFFFABRRRQAUUUUAFFFFABRRRQAUUUUAFFFFABRRRQAUUUUAFFFFABRRRQAUUUUAFFFFABRRRQAUUUUAFFFFABRRRQAUUUUAFFFFABRRRQAUUUUAFFFFABRRRQAUUUUAFFFFABRRRQAUUUUAFFFFABRRRQAUUUUAFFFFABRRRQAUUUUAFFFFABRRRQAUUUUAFFFFABRRRQAUUUUAFFFFABRRRQAUUUUAFFFFABRRRQAUUUUAFFFFABRRRQAUUUUAFFFFABRRRQAUUUUAFFFFABRRRQAUUUUAFFFFABRRRQAUUUUAFFFFABRRRQAUUUUAFFFFABRRRQAUUUUAFFFFABRRRQAUUUUAFFFFABRRRQAUUUUAFFFFABRRRQAUUUUAFFFFABRRRQAUUUUAFFFFABRQTgU3zRjPP4jpQA6kLYPeue+Jnxc8L/Bnwlc694u8RaH4V0SzGZ9Q1e/isrWHjPzSSMqj86/PL9qj/g65/ZK/Z3kurLRPEWv/ABT1a3JQweFNNMlqGGcZurgxQsCf4ozJ64PSgD9LfNXP60GVQM9vWv52Pjv/AMHt/jTUZp4fhn8EfDOiwjKxXPibWJ9SkcdmMMCwBT7eYw96+WPiN/wdnftmeOHkOm+MPCfhBJOBHo/he0YIPQG5WdvxzmgD+s7z1z94Unnof4hX8bWs/wDBxN+2lr8rPcfH7xbGzHOLa1srZR9BHAoFZp/4L8/tjH/m4L4gev8Ax8Q//G6AP7NvtMf/AD0X86PtMf8Az0X86/jI/wCH/H7Y3/RwXxC/8Cov/jdH/D/j9sb/AKOC+IX/AIFRf/G6AP7N/tMf/PRfzo+0x/8APRfzr+Mj/h/x+2N/0cF8Qv8AwKi/+N0f8P8Aj9sb/o4L4hf+BUX/AMboA/s3+0x/89F/Oj7TH/z0X86/jI/4f8ftjf8ARwXxC/8AAqL/AON0f8P+P2xv+jgviF/4FRf/ABugD+zf7TH/AM9F/Oj7TH/z0X86/jI/4f8AH7Y3/RwXxC/8Cov/AI3R/wAP+P2xv+jgviF/4FRf/G6AP7N/tMf/AD0X86PtMf8Az0X86/jI/wCH/H7Y3/RwXxC/8Cov/jdH/D/j9sb/AKOC+IX/AIFRf/G6AP7N/tMf/PRfzo+0x/8APRfzr+Mj/h/x+2N/0cF8Qv8AwKi/+N0f8P8Aj9sb/o4L4hf+BUX/AMboA/s3+0x/89F/Oj7TH/z0X86/jI/4f8ftjf8ARwXxC/8AAqL/AON0f8P+P2xv+jgviF/4FRf/ABugD+zf7TH/AM9F/Oj7TH/z0X86/jI/4f8AH7Y3/RwXxC/8Cov/AI3R/wAP+P2xv+jgviF/4FRf/G6AP7N/tMf/AD0X86PtMf8Az0X86/jI/wCH/H7Y3/RwXxC/8Cov/jdH/D/j9sb/AKOC+IX/AIFRf/G6AP7N/tMf/PRfzo+0x/8APRfzr+Mj/h/x+2N/0cF8Qv8AwKi/+N0f8P8Aj9sb/o4L4hf+BUX/AMboA/s3+0x/89F/Oj7TH/z0X86/jI/4f8ftjf8ARwXxC/8AAqL/AON0f8P+P2xv+jgviF/4FRf/ABugD+zf7TH/AM9F/Oj7TH/z0X86/jI/4f8AH7Y3/RwXxC/8Cov/AI3R/wAP+P2xv+jgviF/4FRf/G6AP7N/tMf/AD0X86PtMf8Az0X86/jI/wCH/H7Y3/RwXxC/8Cov/jdH/D/j9sb/AKOC+IX/AIFRf/G6AP7N/tMf/PRfzo+0x/8APRfzr+Mj/h/x+2N/0cF8Qv8AwKi/+N0f8P8Aj9sb/o4L4hf+BUX/AMboA/s3+0x/89F/Oj7TH/z0X86/jI/4f8ftjf8ARwXxC/8AAqL/AON0f8P+P2xv+jgviF/4FRf/ABugD+zf7TH/AM9F/Oj7TH/z0X86/jI/4f8AH7Y3/RwXxC/8Cov/AI3R/wAP+P2xv+jgviF/4FRf/G6AP7N/tMf/AD0X86PtMf8Az0X86/jI/wCH/H7Y3/RwXxC/8Cov/jdH/D/j9sb/AKOC+IX/AIFRf/G6AP7N/tMf/PRfzo+0x/8APRfzr+Mj/h/x+2N/0cF8Qv8AwKi/+N0f8P8Aj9sb/o4L4hf+BUX/AMboA/s3+0xn+NfzpfPUfxDPpX8Y/wDw/wB/2xv+jgviF/4FRf8AxunJ/wAF/P2x0bcP2gviBn3nhP8A7ToA/s3M6j+IfnRvGa/jo8M/8HJH7bHhSdXt/jxr1wFx8t7pWm3an6+ZbtXtfwu/4PAP2uPAtxCdal+HPjaJWG8ar4d+zu47/NaSQ4PvigD+qzzAR69uOacDmvwM/Z8/4PcdPupIbb4q/A68tk483UPCutLcd+SLW5VMf9/8+/ev0Q/ZN/4OK/2S/wBru4trPSvilp/hPXLraBpXi+M6LOGOMIskv+juxJwAkrEmgD7joqvp+q2+q2UVzazR3FvOgkjlicOkikZDKw4YHsRmpi+D3/KgB1FFFABRRRQAUUUUAFFFFABRRRQAUUUUAFFFFABRRRQAUUUUAFFFFABRRRQAUUUUAFFFFABRRRQAUUUUAFFFFABRRRQAUUUUAFFFFABRRRQAUUUUAFFFFABRRRQAUUUUAFFFFABRRRQAUUUUAFFFFABRRRQAUUUUAFFFFABRRRQAUUUUAFFFBOKACm+cv+e9I0q9PY+9fkx/wWa/4OhPAn7C8+rfD34Qx6T8S/itbq9veXJlMuheGpASpWd0ObmdTwYYmCqQd7ggx0Afo1+1X+2X8Mf2JvhlP4v+KXjTRfBmgxgrHLfTfvrxxz5cEK5lnk/2I1Zvbg4/C3/gon/weV+IPEk194f/AGbfCUPh2w+ZB4t8TwJc30meN9vZAmKLBwQ0zS5HWNTX45/tUftifEj9tn4qXnjT4peL9a8YeIbwkCa9l/d2qHJ8uCJQI4Ix2SNFXknGea8zMnt+nSgD0f8AaQ/a/wDid+194zbxB8TvHXijxvqhJZJNWv3nS3z1EUeQkS+ixqoHpXnBfI/DFNooAKKKKACiiigAooooAKKKKACiiigAooooAKKKKACiiigAooooAKKKKACiiigAooooAKKKKACiiigAooooAKKKKACiiigAooooAKKKKACiiigAooooAKKKKACneZj6Z6dqbRQB9KfsTf8ABXL9oL/gnzqUDfDL4ka9pmkQyBn0K9l+3aNOO4a0l3Rrnpuj2OOzA81+4f8AwTc/4PCfhv8AGqfT/DP7QWgp8L/EMxWBfEWmCS68P3LnGWkQ7p7QE+plQclpFAr+ahTtb/61PEu3GM/4GgD++HwR490X4k+E7DXvDurabr2h6pCLiy1DTrlLq1vIz0eOVCVZT6gkVrCQE1/Fn/wTT/4LJ/Gr/glv42S68A682oeE7iZZNT8JaqzTaPqA7kJndDL6SxMrZC7tygqf6gP+CUP/AAW3+EX/AAVd8Ff8Uzdnw14+06LzdY8G6lOpv7TGA0sDDC3VvnjzI1yNy70jJAIB9nUU0Sgn8/0OKdQAUUUUAFFFFABRRRQAUUUUAFFFFABRRRQAUUUUAFFFFABRRRQAUUUUAFFFFABRRRQAUUUUAFFFFABRRRQAUUUUAFFFFABRRRQAUUUUAFFFFABRRRQAUUUUAFFFFABRRRQAUUUUAFFFFABRRRQAUUUUAFFFFABRRRQAUUUE4FAATgVV1PWbbRtNuLy6mhtba1jaWaaVwkcSqMszMThQACSTwACc4qZ5lXg59K/m6/4OZ/8Agv8AXHx68Ra5+zx8F9cKeAdPlaz8YeILGb/kZZ0bDWUDg82cZBDup/fuCB+6X94AaX/BfP8A4Oer74uXeufBn9m3WptN8Hxl7LXvG1k5juNd/heCwcfNFbfwtOpDTchNsfMn4fST+YvcZOce/wD9ekaTcP8AP+fSmUAFFFFABRRRQAUUUUAFFFFABRRRQAUUUUAFFFFABRRRQAUUUUAFFFFABRRRQAUUUUAFFFFABRRRQAUUUUAFFFFABRRRQAUUUUAFFFFABRRRQAUUUUAFFFFABRRRQAUUUUAFFFFABRRRQAA4NdJ8Kvi34k+CHxC0jxZ4Q1rVPDvibQbhbrTtS0+4aC4tJF6FWU59iOhBIIIJFc3QpwaAP6nv+CCH/Bxvof8AwUQs9P8Ahf8AFmTT/DXxstYdtnOiCCx8Zqg+Z4F4WK6VQS9uOG5aPjcifq2J1Y8c59Oa/gU0LxFe+F9bs9S0u7utO1LT547m1uraVoZ7aVGDJIjqQVZWAYMOQQCDwK/qY/4Nx/8AgvHD/wAFGvACfDD4nahb2/xt8L2m5bhisaeMbOMAG6jAwBcxjHnRqMEfvVAUuqAH6rUU1JQ4p1ABRRRQAUUUUAFFFFABRRRQAUUUUAFFFFABRRRQAUUUUAFFFFABRRRQAUUUUAFFFFABRRRQAUUUUAFFFFABRRRQAUUUUAFFFFABRRRQAUUUUAFFFFABRRRQAUUUUAFFFFABRRRQAUUUUAFFFFABRRRQAUUUUAFI/wB0/T0pa8H/AOCkP7d3hv8A4JzfsceMfix4i2yroFrs02wZtr6rqEuVtbVe/wA8mNxHKorsRhTQB+cf/B1B/wAFp5v2TPhfL+z98NdXktviN45st/iLUbSXE3hzSpAR5alTlLi5G4AjlIstw0kbD+Zt594b/a4/D/63Fdh+0H8evE37Tvxp8TfEDxlqEmreKPF2oS6lqNyxOGlc52qOdsarhVUcKqqOgAri6ACiiigAooooAKKKKACiiigAooooAKKKKACiiigAooooAKKKKACiiigAooooAKKKKACiiigAooooAKKKKACiiigAooooAKKKKACiiigAooooAKKKKACiiigAooooAKKKKACiiigAooooAKKKKACiiigAHWuq+D3xl8S/AT4paF408H6xe6D4o8N30Wo6bqFq22W2njbKsOxHUFSCGVmBBBIrlaAcGgD+0L/gjP8A8FStA/4Ku/sgaX44tVt9N8YaOU0zxdo0b5/s2/Cgl0GSfImH7yMnsWUktG1fXVfxm/8ABDv/AIKhah/wS4/bi0XxZcXF03gLxIyaN4ysly4lsHfi4VBjdNbsRIp6kB043k1/ZH4c8TWHizQbHU9NvLfUNP1K3jurS5t5BJFcQyKGSRGHBVlIII4IIoAv0UUUAFFFFABRRRQAUUUUAFFFFABRRRQAUUUUAFFFFABRRRQAUUUUAFFFFABRRRQAUUUUAFFFFABRRRQAUUUUAFFFFABRRRQAUUUUAFFFFABRRRQAUUUUAFFFFABRRRQAUUUUAFFFFABRRRQAUUUUAFFFBOBQA2QgId33cc1/MX/wd7f8FGZP2gv2vtO+Bvh+/MnhP4Qr52qrG42XeuTpmTOOv2eFliHJIaScV/Q5+3T+1Npv7FP7IXxE+KmrBGtfA+h3GoxxO20XVwF228Gc9ZZmjjHu9fw8/Ef4iat8WPH+ueJ9fvZtQ1vxFfz6nqF1IctcXE0jSSOT7s7H8aAMOiiigAooooAKKKKACiiigAooooAKKKKACiiigAooooAKKKKACiiigAooooAKKKKACiiigAooooAKKKKACiiigAooooAKKKKACiiigAooooAKKKKACiiigAooooAKKKKACiiigAooooAKKKKACiiigAooooAKKKKAFVirDbnPbFf1B/8ABo1/wUak/aa/Yxvfg34iv/P8WfBd44dPMj7nutEmJFvj1+zuHg7hUMFfy9g4NfYn/BCP9uaT9gX/AIKb/DjxddXhtfDOsXg8N+I9zbYzp94ViaR/aKTyp/8AtjQB/ZxRTY33L0p1ABRRRQAUUUUAFFFFABRRRQAUUUUAFFFFABRRRQAUUUUAFFFFABRRRQAUUUUAFFFFABRRRQAUUUUAFFFFABRRRQAUUUUAFFFFABRRRQAUUUUAFFFFABRRRQAUUUUAFFFFABRRRQAUUUUAFFFFABQTgUUjnC80Afi9/wAHn/7Vr/Dj9jHwD8J7G68q6+JOvvqOoRq3zSWOnqrbWHo1zNbt9YK/mlNfqp/wd9/tASfFT/gq9J4TS48yz+GnhbT9IMSt8qz3Aa+lY/7RFxCD/uCvyroAKKKKACiiigAooooAKKKKACiiigAooooAKKKKACiiigAooooAKKKKACiiigAooooAKKKKACiiigAooooAKKKKACiiigAooooAKKKKACiiigAooooAKKKKACiiigAooooAKKKKACiiigAooooAKKKKACiiigAooooAKcrfP/U9qbRQB/ax/wAEYP2rX/bQ/wCCZPwd8e3l0LrWLzQY9P1aTOWe+sybS4Zvd5ITJ/20r6kr8Vv+DKv4/SeL/wBjn4qfDm4uPNl8D+KYdWgQt80UGoW+3AH93zbSU/Vya/akHNABRRRQAUUUUAFFFFABRRRQAUUUUAFFFFABRRRQAUUUUAFFFFABRRRQAUUUUAFFFFABRRRQAUUUUAFFFFABRRRQAUUUUAFFFFABRRRQAUUUUAFFFFABRRRQAUUUUAFFFFABRRRQAUUUUAFFBPFIG5/+tQApOKbKNy49eKUNn1/KmTA449RQB/FR/wAFpfiifjD/AMFX/wBoLW/NMyf8JxqVhC/96K1lNon/AI5AtfL1d9+1J4hfxf8AtLfETVnYs+qeJtTvGJ6nzLuR8n6571wNABRRRQAUUUUAFFFFABRRRQAUUUUAFFFFABRRRQAUUUUAFFFFABRRRQAUUUUAFFFFABRRRQAUUUUAFFFFABRRRQAUUUUAFFFFABRRRQAUUUUAFFFFABRRRQAUUUUAFFFFABRRRQAUUUUAFFFFABRRRQAUUUUAFFFFABQOtFA60Afs/wD8GU/xP/sP9u34p+EWk2w+IvBA1FU/vyWd7Aq/kt1J+tf0ujgV/J9/waO6++i/8FjvD9srFV1bwxrNm/uBAJsfnCDz6V/V+nTPtQA6ik3/AF/Kjfz3/KgBaKM0UAFFFFABRRRQAUUUUAFFFFABRRRQAUUUUAFFFFABRRRQAUUUUAFFFFABRRRQAUUUUAFFFFABRRRQAUUUUAFFFFABRRRQAUUUUAFFFFABRRRQAUUUUAFFFFABRRQzbRk8AckntQAVGblQM9vX1ry79sD9tD4b/sK/BbUvHnxQ8TWfhfw7p/yK8xLT30xBKwW8S/PNK2DhEBOAWOFBYfzef8FSf+DrX4yfteahqHhv4OTaj8HPh3JujWezn2+ItVT+9Ncof9GyADst2BXJBlccUAf0Mftc/wDBUn9n/wDYWjkT4pfFTwp4X1BU8waU1wbvVXXGcizgDz4P97Zj3r8+/jR/wecfs4eCryS38I+D/if43ZCQtytlbaZZy46YM0plwfeIV/Mnq2sXeualcXl9dTXt5dSGWeeaQySzOTkuzHlmJPUnJqsev9aAP6Gbv/g+E8LpOwg/Z38QSRg/Kz+MYY2I91FoQPzqNv8Ag+H8Okf8m5651z/yOkX/AMh1/PTtOOnHrSY9qANPxf4iXxP4o1PUFhaFdQupblY2bd5e9y3UAAkAgZxzjtWXRijFABRRijFABRRijFABRRijFABRRijFABRRijFABRRijFABRRijFABRRijFABRRijFABRRijFABRRijFABRRijFABRRijFABRRijFABRRijFABRRijFABRRijFABRRijFABRRijFABRRijFABRRijFABRRijFABRRijFABRRijFABRRijFABRRijFABRRijFABRRijFABRRijFABRRijFABQDijFGKAPpr/AIJJf8FArX/gmX+3F4b+L954XuPGFv4ftL+2/suC/WyeX7TayQDErRybQpk3Y2847V+v3/EcP4eAH/GOeuf+FpF/8h1/PPilx7UAf0S6J/we++C7m7VdS/Z/8VWdvkZe28U29y49fla3QfrX0J+z7/wd8/sm/Fy7t7XxJN4++GtxMQpk1zRBc2oYnH+ssnmbHuyLX8q+wqRn5felyR+I5oA/u4/Z9/at+G37Vvg5df8Aht458K+ONIwN9xoupRXQgY/wSBTujf8A2XCkeld+swY9+eh9a/g1+DHx28afs5+PrPxT4B8Va94P8SWLZi1HR72SzuU5Hy7kILKccocqw4II4r9zP+CSX/B3pNcanpfgb9qiGDZcMtvbfEDTrUR7PQ6haxqBtz/y2gUYwA0WCXAB/QBRWX4R8ZaT498NWGsaHqVjrGkapAl1Z31lOs9tdwuAUkjkUlWVgQQwJB7VqUAFFFFABRRRQAUUUUAFFFFABRRRQAUUUUAFFFFABRRRQAUUUUAFFFFABRRRQAUUUUAFFFFABRRRQAUUUUAFFFFABRRRQAUUUUAFFFFABRRRQAUUUUAFeN/t4ftw+Bv+Cen7MviL4oeP75rXR9DjCwWsRX7Vqt24Pk2kCsQGlkIIGSAArMxCqxHsTPle/I9cYr+SP/g5L/4Ku3X/AAUV/bUvfDfhzU2k+E/wruJtJ0KOGQ+Tqt0DsutRYDht7KUj9IY1ICl3yAfOX/BTL/gp78SP+Cov7RF1428d37Q6bau8Hh/w9byt/Z/h60JysUQONzngyTMA8jDPyqFVfnRTg4GS3p/n3/Wowlf0Lf8ABvB/wbUaTpfhbQPjr+0V4fj1LWNSjTUfC3gvUrcNb6fCwBju7+JhiSVgQyW7grGCpcbztjAPzn/4Jsf8G437Q/8AwUY0yw8RW+j2/wAO/h5eYeHxJ4lDxLexH+K0tlHm3AI5D4SJscSCv1+/Zx/4M1P2dPhvp0EvxB8TeP8A4k6oAPPUXaaNp7eyxQqZh/3/ADmv14gtFt1VVVVVRgD0H+QPpjFTUAfA+m/8Gxf7D+nWccP/AApC3uNgwZJvEusM7fU/av6VN/xDM/sP/wDRCrH/AMKLV/8A5Kr7yooA+Df+IZn9h/8A6IVY/wDhRav/APJVH/EMz+w//wBEKsf/AAotX/8AkqvvKigD4N/4hmf2H/8AohVj/wCFFq//AMlUf8QzP7D/AP0Qqx/8KLV//kqvvKigD4N/4hmf2H/+iFWP/hRav/8AJVH/ABDM/sP/APRCrH/wotX/APkqvvKigD4N/wCIZn9h/wD6IVY/+FFq/wD8lUf8QzP7D/8A0Qqx/wDCi1f/AOSq+8qKAPg3/iGZ/Yf/AOiFWP8A4UWr/wDyVR/xDM/sP/8ARCrH/wAKLV//AJKr7yooA+Df+IZn9h//AKIVY/8AhRav/wDJVH/EMz+w/wD9EKsf/Ci1f/5Kr7yooA+Df+IZn9h//ohVj/4UWr//ACVR/wAQzP7D/wD0Qqx/8KLV/wD5Kr7yooA+Df8AiGZ/Yf8A+iFWP/hRav8A/JVH/EMz+w//ANEKsf8AwotX/wDkqvvKigD4N/4hmf2H/wDohVj/AOFFq/8A8lUf8QzP7D//AEQqx/8ACi1f/wCSq+8qKAPg3/iGZ/Yf/wCiFWP/AIUWr/8AyVR/xDM/sP8A/RCrH/wotX/+Sq+8qKAPg3/iGZ/Yf/6IVY/+FFq//wAlUf8AEMz+w/8A9EKsf/Ci1f8A+Sq+8qKAPg3/AIhmf2H/APohVj/4UWr/APyVR/xDM/sP/wDRCrH/AMKLV/8A5Kr7yooA+Df+IZn9h/8A6IVY/wDhRav/APJVH/EMz+w//wBEKsf/AAotX/8AkqvvKigD4N/4hmf2H/8AohVj/wCFFq//AMlUf8QzP7D/AP0Qqx/8KLV//kqvvKigD4N/4hmf2H/+iFWP/hRav/8AJVH/ABDM/sP/APRCrH/wotX/APkqvvKigD4N/wCIZn9h/wD6IVY/+FFq/wD8lUf8QzP7D/8A0Qqx/wDCi1f/AOSq+8qKAPg3/iGZ/Yf/AOiFWP8A4UWr/wDyVR/xDM/sP/8ARCrH/wAKLV//AJKr7yooA+Df+IZn9h//AKIVY/8AhRav/wDJVH/EMz+w/wD9EKsf/Ci1f/5Kr7yooA+Df+IZn9h//ohVj/4UWr//ACVR/wAQzP7D/wD0Qqx/8KLV/wD5Kr7yooA+Df8AiGZ/Yf8A+iFWP/hRav8A/JVH/EMz+w//ANEKsf8AwotX/wDkqvvKigD4N/4hmf2H/wDohVj/AOFFq/8A8lUf8QzP7D//AEQqx/8ACi1f/wCSq+8qKAPg3/iGZ/Yf/wCiFWP/AIUWr/8AyVR/xDM/sP8A/RCrH/wotX/+Sq+8qKAPg3/iGZ/Yf/6IVY/+FFq//wAlUf8AEMz+w/8A9EKsf/Ci1f8A+Sq+8qKAPg3/AIhmf2H/APohVj/4UWr/APyVR/xDM/sP/wDRCrH/AMKLV/8A5Kr7yooA+Df+IZn9h/8A6IVY/wDhRav/APJVH/EMz+w//wBEKsf/AAotX/8AkqvvKigD4N/4hmf2H/8AohVj/wCFFq//AMlUf8QzP7D/AP0Qqx/8KLV//kqvvKigD4N/4hmf2H/+iFWP/hRav/8AJVH/ABDM/sP/APRCrH/wotX/APkqvvKigD4N/wCIZn9h/wD6IVY/+FFq/wD8lUf8QzP7D/8A0Qqx/wDCi1f/AOSq+8qKAPg3/iGZ/Yf/AOiFWP8A4UWr/wDyVR/xDM/sP/8ARCrH/wAKLV//AJKr7yooA+Df+IZn9h//AKIVY/8AhRav/wDJVH/EMz+w/wD9EKsf/Ci1f/5Kr7yooA+Df+IZn9h//ohVj/4UWr//ACVR/wAQzP7D/wD0Qqx/8KLV/wD5Kr7yooA+Df8AiGZ/Yf8A+iFWP/hRav8A/JVH/EMz+w//ANEKsf8AwotX/wDkqvvKigD4N/4hmf2H/wDohVj/AOFFq/8A8lUf8QzP7D//AEQux/8ACi1f/wCSq+8qKAPz58V/8Gun7Efiax8mH4PTaTJggTWHijVo5FPr81yy8e4Ir5B/ax/4Mq/h94k026vfgv8AE/xJ4X1PaXj03xRFHqVhI/ZRNCkcsS9txWU98HpX7iUEZFAH8S3/AAUA/wCCUPxx/wCCZ/iyOw+KXg24sdKupDFp+v2Mn2vRtTPX91cKMBio3eVIEkAySoHNfOSuV+b+IcnP6/j/AJ5r+834u/Bjwx8e/h1q3hHxpoOk+JvDOuQG3v8ATNRt1ntrpCc4ZGBGQeQw+ZWAIIIzX8tX/BwX/wAEBdQ/4JgeKh8Qvh2uoa18D/EF59nRpczXPhS5ckra3D8l4W5EUx5JHlud+0yADP8Ag37/AOC+2vf8E1viRYfDz4g397rXwL166CzRSMZZvCM0jAG8tup8nJzLCOCMug35En9WXhjxPp/jLw9YatpN9a6lpeqW8d3Z3dtKJYbqGRA8ciOuQyspDAjggg96/gVUMjK35YNf0Mf8GgX/AAVeufGmiXn7LvjfUmmvNDgl1bwLcTylpJLVSXutOyeSIs+dEOfkMy5Coq0AfvDRSBs/ypaACiiigAooooAKKKKACiiigAooooAKKKKACiiigAooooAKKKKACiiigAooooAKKKKACiiigAooooAKKKKACiiigAooooAKKKKACiiigAoY4Wig9KAPh3/g4a/bguP2E/8Aglp8QNe0m8ax8VeLY18JaBKr7ZI7m9DrJKh6h4rdZ5FI/iRa/jpaXLfxe3PSv3t/4PdPjtPJrnwL+GcMxW3hg1LxRexbv9Y7NHa25I/2QlyM/wC2a/A9eWH86AP1J/4NaP8Aglpa/t2fto3Hjzxhp8d58Ovg+0Goz200YaDV9Tcs1nbMGHzRpsadxzny41YYkr+q5Idhz+eO9fAH/Bsn+y1a/sy/8Eh/hvN9nSHVviKJ/GWpuI9vmtduBb+/FpHbD04yOtfoHQAUUUUAFFFFABRRRQAUUUUAFFFFABRRRQAUUUUAFFFFABRRRQAUUUUAFFFFABRRRQAUUUUAFFFFABRRRQAUUUUAFFFFABRRRQAUUUUAFFFFABRRRQAUUUUAFFFFABRRRQAUUUUAFFFFABRRRQAUUUUAFFFFABRRRQAUUUUAFFFFABRRRQAUUUUAFFFFABRRRQAHpXH/AB0+Bnhr9o/4O+JPAnjHS7fWvDPiuwl07UrSbkTxOuODj5WHDKw5VlVhyM12FDDcuD3oA/h7/wCCkn7EWtf8E7f2zvHXwn1qSS8Hhu8zp1+ybP7UsJQJLW544BeFl3AH5XDjqK479kz9pPXf2Q/2lfBHxN8MzSR6z4I1m31aBQ+1bgRv+8hbH8EsZeNh/dkYd6/bX/g9m/ZbtYB8HPjRZ26pdTG68G6rME5lUA3dpkjjI/0wc9j7V+AinDUAf3qfB34o6T8b/hT4Y8ZaDcfatD8WaXbaxp8oI/ewXESSxtwT/C4GK6evzy/4NdPjrN8b/wDgjb8NY7uY3F94Knv/AAvK5bJ2W9wzQA+m23lhXHoor9DaACiiigAooooAKKKKACiiigAooooAKKKKACiiigAooooAKKKKACiiigAooooAKKKKACiiigAooooAKKKKACiiigAooooAKKKKACiiigAoPSiigD+Xv/g8/wBZuL7/AIKi+D7STf8AZ7L4b2AhyOG3X+osxH44H4V+RMfJ/A1+6/8Awe7/AAdNh8XfgT8QI4s/2to+peHriQD7v2aaK4iU/X7XIR9DX4Tp94UAf3O/sDafZaR+w58GbTTWjfT7XwNokVqyfdeJdOtwpHttr16vjH/g3x+MQ+N3/BHL4C6s0wnm03w8PD8nPKtp80tkAffZApr7OoAKKKKACiiigAooooAKKKKACiiigAooooAKKKKACiiigAooooAKKKKACiiigAooooAKKKKACiiigAooooAKKKKACiiigAooooAKKKKACiiigAooooAKKKKACiiigAooooAKKKKACiiigAooooAKKKKACiiigAooooAKKKKACiiigAooooAKKKKACiiigAooooAKD0ooJwKAPyl/4PELCyvv+CSNvJdNGs1r460mWz3dXkMV4hC+/ltIfoDX8rp+9X9GH/B7j8YhpP7PfwP8Axzc694hv/EEkQPO2ztkgQn2zev+Rr+c8cmgD+nX/gyw1i4vf+Cafj+0k3eRZfEi6MJI4O/TdPLAfQjP5V+w9fm3/wAGonwdPwr/AOCNXgfUHj8m48cavqviGYEctm5a1jY/WO0Qj2r9JKACiiigAooooAKKKKACiiigAooooAKKKKACiiigAooooAKKKKACiiigAooooAKKKKACiiigAooooAKKKKACiiigAooooAKKKKACiiigAoPSikf7h+lAH5Ff8Hlfwb/4Tj/gmP4e8VQxZufA/jW0nkkA+7b3UFxbP+cht/yH0r+XkcN61/Zt/wAF/Pg7/wALy/4I8fHvR1g+0S2Php9diAXcwbT5Y77I98W5H41/GXt5z2z1oA/p+/4MzPjN/wAJv/wTW8VeFLiTddeC/G90sS5+7b3VtBOvHvJ9oP51+vlfzq/8GRnxibTPjh8cvAMkylda0PTvEEMZI4NpcSW7kfVbxM49BX9FVABRRRQAUUUUAFFFFABRRRQAUUUUAFFFFABRRRQAUUUUAFFFFABRRRQAUUUUAFFFFABRRRQAUUUUAFFFFABRRRQAUUUUAFFFFABRRRQAUUUUAFFFFABRRRQAUUUUAFFFFABRRRQAUUUUAFFFFABRRRQAUUUUAFFFFABRRRQAUUUUAFFFFABRRRQAUUUUAFFFFABQxwKKbL9zjr2oA/mH/wCDzj4zf8Jn/wAFHPBnhGGXzLXwb4IgaRM/cuLu6nlb6ZiS3P5V+PycNn05r7T/AODhz4xH42f8FkPjpqSzCWDS9dXw/CFOVjWwt4rQgY/24nP4mvmz9k/4SSfHv9qL4c+B0jaRvGHibTdF2AZJFxdRxH9HJoA/tD/4JhfBv/hn3/gnj8E/BzQ+TcaD4K0mC6UjH+kG1jkm/wDIrufxr3ioLO3S0to4Y0VI41CIijAUDj9MVPQAUUUUAFFFFABRRRQAUUUUAFFFFABRRRQAUUUUAFFFFABRRRQAUUUUAFFFFABRRRQAUUUUAFFFFABRRRQAUUUUAFFFFABRRRQAUUUUAFFFFAHM/GD4e2/xa+FHibwreBfsfiXSbvSZgehS4heFs/8AAXr+DvxV4cuvB/ibUtJvY2hvNLuZLSdCOVeNyjA+4INf30SnCfTmv4o/+Cz3wdX4Df8ABVX4+eGUjaGCHxnf39tGR9yC7k+1xAe2ydf0oA+hP+DUr4xD4Vf8Fm/A+nvL5MHjjSdV8PSknht1q9zGv4y2sQ+uK/rYjk3KK/h5/wCCZXxn/wCGfP8Agod8E/GRk8m30HxrpVxcuTgC3N0iTg/WNnFf3CQjgYG1VOAB7cUASUUUUAFFFFABRRRQAUUUUAFFFFABRRRQAUUUUAFFFFABRRRQAUUUUAFFFFABRRRQAUUUUAFFFFABRRRQAUUUUAFFFFABRRRQAUUUUAFFFFABRRRQAUUUUAFFFFABRRRQAUUUUAFFFFABRRRQAUUUUAFFFFABRRRQAUUUUAFFFFABRRRQAUUUUAFFFFABRRRQAVS13WrfQNGur66kENrYwvcTux4jRFLMT+AJq7Xzb/wV6+Mh+AP/AATC+PHihZFiuLDwVqUNpITjZcTwtbQnPr5kyUAfxh/Hj4lz/Gf43+MvGN0SbrxZrl7rExPJL3E7zN+rmvsD/g2s+DjfGX/gs98GbeSLzLXw7fXfiG4OP9X9js5poyf+2yxD6kV8Js24/pX7Nf8ABlb8Hf8AhKP27PiZ41kjaWHwj4MGnxt2jmvbyLB+vl20o/E0Af0uRJsVR/CBxUlA4ooAKKKKACiiigAooooAKKKKACiiigAooooAKKKKACiiigAooooAKKKKACiiigAooooAKKKKACiiigAooooAKKKKACiiigAooooAKKKKACiiigBHGR/jX8qH/B3z8Gj8N/8Agrnda8sJjj8feEdL1lnxgPJEJLFvx22iE/Wv6sK/n/8A+D3n4Njf8BfiBDH94at4evHx2H2e5gGfxuT+dAH4D2dw1pdRyxsY5I2DKwOCpByDX92n7JPxdX4//sufDnxykgkXxj4Y03Wt2QctcWscrD6gsQfpX8JCttYH0Pev7Cv+Daj4xf8AC5f+CMnwZnkkMl54es7vw7cAn/V/Y7yaKMf9+fKP0NAH3jRRRQAUUUUAFFFFABRRRQAUUUUAFFFFABRRRQAUUUUAFFFFABRRRQAUUUUAFFFFABRRRQAUUUUAFFFFABRRRQAUUUUAFFFFABRRRQAUUUUAFFFFABRRRQAUUUUAFFFFABRRRQAUUUUAFFFFABRRRQAUUUUAFFFFABRRRQAUUUUAFFFFABRRRQAUUUUAFFFFAAelfmB/wdy/GX/hWX/BHzW9FWbypPH3iXS9DUBsF0SRr5/w/wBDAP1Ffp+elfgj/wAHvPxj+zeEvgL8P4JP+Py81bxDdx5+75SW9tCfx82fH0NAH8+Ofmr+kr/gyb+Df/CPfsg/F7x48Plv4o8W2+jq5H347G0Egx7b75/xFfzbIMsK/r5/4Nhfg2Pg/wD8EY/hOZI/LvfFX2/xDc5XG43F7L5R/GCOH9KAP0CooooAKKKKACiiigAooooAKKKKACiiigAooooAKKKKACiiigAooooAKKKKACiiigAooooAKKKKACiiigAooooAKKKKACiiigAooooAKKKKACiiigAr8q/+DwD4N/8ACxv+CSMviBYd03gHxbpmsF1HKRzGSxb8N11H+Vfqo3Svlv8A4LU/Bpvjx/wSj+P3htYfPkk8G3uowR9d81mn2yIDj+/brj3oA/ioP3q/pd/4MqvjH/wkv7C/xO8EySiSXwn4zGoRqT80cN7aRAfh5lrIfqTX80ZTDc/Wv2s/4Mn/AIxDw/8AtifF3wG83lr4o8JW+rIhP+sksbtU/PZev+AoA/pOBzRQOlFABRRRQAUUUUAFFFFABRRRQAUUUUAFFFFABRRRQAUUUUAFFFFABRRRQAUUUUAFFFFABRRRQAUUUUAFFFFABRRRQAUUUUAFFFFABRRRQAUUUUAFFFFABRRRQAUUUUAFFFFABRRRQAUUUUAFFFFABRRRQAUUUUAFFFFABRRRQAUUUUAFFFFABRRRQAUUUUAIxwv+Ffyyf8HifxiPxB/4Ks2XhxJlaHwH4M0/T2jXos07zXb/AIlJ4vyFf1NS8p1xX8W3/Bcv4xr8eP8Agrh8ftfWbz4o/F11pMMgPBisdtimPbbbr+dAHyhEu9toBYngADqa/uk/Yd+Do/Z8/Y4+FfgYR+S3hHwlpekSLj/lpDaRI5PuXDfnX8Xf/BPv4Mn9oL9ur4P+CGh8+HxP4y0rTrhCDjyZLuMS546CPcT9K/uWiDAfNyaAJKKKKACiiigAooooAKKKKACiiigAooooAKKKKACiiigAooooAKKKKACiiigAooooAKKKKACiiigAooooAKKKKACiiigAooooAKKKKACiiigAooooAKzPGPhq18ZeFtR0i+TzLPVbWWynX+9HKhRh+RNadNkGUoA/go+LHgG6+FXxR8SeF77ct74b1S50qcHtJBM0TA/RkNfb/wDwbEfGVvg9/wAFnfhMJJPLs/FX2/w7cAtjeLmzm8sf9/44eK8//wCC+fwc/wCFG/8ABYP4+aMkPkQ3fiaTXI1xtBXUI473I9t1wa8P/Yk+MT/s/ftj/Crxykxh/wCER8W6Xq7v6JDdxyOD7FQw+hoA/uojfco+nenVHbyCWPcpDKx3Ag9R2/SpKACiiigAooooAKKKKACiiigAooooAKKKKACiiigAooooAKKKKACiiigAooooAKKKKACiiigAooooAKKKKACiiigAooooAKKKKACiiigAooooAKKKKACiiigAooooAKKKKACiiigAooooAKKKKACiiigAooooAKKKKACiiigAooooAKKKKACiiigAozRQelAGH8R/Glp8OvAWt+IL47bLQbC41G4YnAWOGJpGz/wFTX8HXxE8ZXnxG8e614g1Bt99rt/PqNw2c7pJpGlf/wAeY1/Zb/wXR+MjfAj/AIJHfH7Xo5vs80vhK50eF8jIkvitkmPfNxX8XLPjPJ9KAP0O/wCDWv4Of8LZ/wCC0Hw1uJI2mtfB9tqfiKcYzjyrOWKMn6TTxGv66o12oK/nE/4MlPg5/bf7UHxq8evDu/4RzwzZ6HHIVyFa+ujM2D64sR+df0e0AFFFFABRRRQAUUUUAFFFFABRRRQAUUUUAFFFFABRRRQAUUUUAFFFFABRRRQAUUUUAFFFFABRRRQAUUUUAFFFFABRRRQAUUUUAFFFFABRRRQAUUUUAFB6UUHpQB/Ln/weT/Bz/hA/+Cnug+J4Ywtv448F2VxI4XrPbTXFswz3/dpD+lfkgp5r+h3/AIPefg6t98KvgT4/jiw2latqnh+4lA+99phhuIlP0+zTY/3j71/PCDg0Af3Mf8E9fjKP2hP2F/g942M32ibxR4N0rUJ39ZntI/OH4SBhXslfnZ/waz/GM/Fv/gjP8N7eSQTXfg681Pw9O2egivJJYlP0hniH4Cv0ToAKKKKACiiigAooooAKKKKACiiigAooooAKKKKACiiigAooooAKKKKACiiigAooooAKKKKACiiigAooooAKKKKACim+YB6/l0rk/iz8fPA/wE8P/wBreOPGHhjwbpbdLvW9Ug0+Bvo8rKpPtnNAHXUV826J/wAFiv2VPEWsrp9n+0R8G5LqRtqqfFlnGrH0DM4X9a+gvDfivTPGOi22paRqFlqmnXi77e6tJ1nhnX1V1JVh7g0AaFFNWTcejfWnUAFFFFABRRRQAUUUUAFFFFABRRRQAUUUUAFFFFABRRRQAUUUUAFFFFABRRRQAUUUUAFFFFABRRRQAUUUUAFFFB6UAfk5/wAHi3xk/wCFf/8ABKax8NxylZ/H3jLT7Bov+ekFuk145/CSGH8xX8s2fmr96v8Ag93+MhufF3wG+H8Mu37HZ6r4hu488sZXgt4SR7eTOPxNfgsoywz0zzQB/Td/wZdfBr/hEP8Agnt4+8ZTRqtx4y8avbxnaRugs7WFFPv+8mn/AFr9ja+H/wDg3J+Dv/ClP+CM/wADtPaHy7jWNIm8QzEjDSG+up7pGP8A2ykiH0Ar7goAKKKKACiiigAooooAKKKKACiiigAooooAKKKKACiiigAooooAKKKKACiiigAooooAKKKKACiiigAooooAKKKKACiiigAooooAKKKKACiiigAooooAKKKKAPzP/wCDsn4NH4pf8Eb/ABZqiQmaXwJruleIY8DlR9oNm5/CO8cn6V/JoRg/jX9vP/BVP4Mf8NBf8E3fjj4RWHzrjWPBOqLaoBktcR2zSwfj5saV/ETL8r/e+bnn1oA/o4/4Mk/jF/bP7Mvxq8AtNubw54ms9dSJmyVW9tTCxA9N1iPzr9wAc1/Md/wZffGT/hEP+ChvjzwbLIy2vjLwTLPGucbrizu4HQe58uac/nX9OI6UAFFFFABRRRQAUUUUAFFFFABRRRQAUUUUAFFFFABRRRQAUUUUAFFFFABRRRQAUUUUAFFFFABRRRQAUUUUAFI3IP8AhSnpXh3/AAUg/a2h/YW/Ya+J3xXkijmm8G6HNc2EMrYjuL18RWsbez3DxKfZj1PFAH53/wDBwb/wcdp+wFqd58HvgrLpuqfF4wj+2dZnRbm18Iq6goixtkS3hVt+18xxgqWDs2wfza/G79oHxt+0p4/vPFXxA8Va94w8Q3zFpr/Vr17qcgnO0M5O1BnhVwqjoKyfiB8QNY+KHjbWfEXiDUbrWNd8QXs2o6jfXLbpry4mcvJK5/vMzEn6n1rEoAcJOef5dK98/YV/4KbfGn/gnN4+h1z4V+NdS0WDzRJe6NM5uNH1UZGVuLVjsfI43jbIoPyupwR4DQOtAH9l3/BGj/gsL4J/4K4fARta02GHw/8AEDw35cXirw0ZvMaykYEJcQngvbSYO1mG5SpRuVDH7OzX8Wf/AARZ/by1L/gnv/wUU+HvjmK8kt/D15fx6H4mgD4jutLupFjm3DofKJWdR/fhXkDNf2kQPvQfTI9PwoAkooooAKKKKACiiigAooooAKKKKACiiigAooooAKKKKACiiigAooooAKKKKACiiigAooooAKKKKACiiigAoY8UUyY/u+eO1AH8oX/B3F8Yf+Fnf8FhNc0dZ/Oj8AeGdK0PAbKxs8bXr/jm8wfpX5maVpk+r6lb2lvE01xdSLFEijl3YhVH4kgV9Df8FdvjL/wvv/gp58ePFKyeZDfeNtThtWzkG3t52toTn0MUKVW/4JQ/Bj/hoH/gpR8DPCLRma11bxrphu0AzutorhJpuPaKOQ/hQB/Z/wDs3fCuL4Gfs++BPBduu238IeHtP0SIY6LbW0cI/wDQK7eo4htH45/nUlABRRRQAUUUUAFFFFABRRRQAUUUUAFFFFABRRRQAUUUUAFFFFABRRRQAUUUUAFFFFABRRRQAUUUUAFFFFABRRRQAUUUUAFFFFABRRRQAUUUUAFFFFABQaKKAK+pWMep2M1vMqyQ3CGJ1YZDKwwQfqDX8Iv7TXwok+BP7Rvj/wAEzRtHJ4R8R6hozK2cj7PcyRfySv7wJBuQ1/HT/wAHH3wePwW/4LM/G2zWPZa65qcHiK3PaX7baw3EjD/tq8g/CgCH/g3M+MB+Cv8AwWZ+B9+0vl2+savL4emB6OL61mtUB/7aSRn6gV/Y3E3y8jBzX8HX7O3xSl+CPx/8C+NLdmWfwj4gsNajI6hre5jm/wDZK/u90jUYNZ0+3vLeRZre6jWeF1PyujDKkfUHNAFuiiigAooooAKKKKACiiigAooooAKKKKACiiigAooooAKKKKACiiigAooooAKKKKACiiigAooooAKKKKAA81+a/wDwdhyXi/8ABFvx79m8z7O2s6ILzb08r+0IiM+3meX+OK/Sg814T/wUy/ZHX9uv9g74ofCkGFbzxdocsOnPLjZHfRlZ7RmJ6KLiKIk+maAP4e9hIz+NNrW8Z+EdU8CeKtV0PWrG40zWNFu5bG/s7hNktpPE5SSN1/hZXBBB6EVk0AFA5NFA60ASIrI/f/69f3ofBZr1vhF4VOpbzqJ0iz+1FzljL5CF8++7Nfxn/wDBHT9hvUf+Cgv/AAUP+HPw9t7OS40f+0U1bxHKFylppVqyyXLN6bwFiUnq8yL3r+1WFdka4VV46DoPpQA+iiigAooooAKKKKACiiigAooooAKKKKACiiigAooooAKKKKACiiigAooooAKKKKACiiigAooooAKKKKACuP8Aj78TYfgt8D/GXjK42i28J6DfazKzYwFt7d5j/wCgV2B6V8T/APBxF8Yl+CX/AARs+OmoibyZtW0NPD0Kg/M5v7mG0YD/ALZyyH6A0Afxz61qlxr2r3V9dSma6vJWnlc9XdzuY/iSa/Sj/g0t+DQ+KH/BY7wzqzQ+dD4D8P6trrErwhMP2JD/AN9XYx9K/M0nP8q/eH/gyI+Dn234j/Hj4gSxjGnadpnh21k/vefLNcTKPp9mhP40Af0MLxS0UUAFFFFABRRRQAUUUUAFFFFABRRRQAUUUUAFFFFABRRRQAUUUUAFFFFABRRRQAUUUUAFFFFABRRRQAUUUUAFFFFABRRRQAUUUUAFFFFABRRRQAUUUUAFFFFAAeRX8yn/AAek/BpfCX7f3w98aQxeXb+MfBi2shxw89ldTK3PtHPCPyr+ms81+Iv/AAe0/B3+3f2U/gz48WDfJ4b8U3eiySKPuJfWvmc+26xH4mgD+b9PvcfxcV/bl/wSZ+Mn/C//APgmn8C/FjSebc6p4J0sXbbt264it0gm59fNif8AKv4jFGT75r+sX/g0o+Mn/Cz/APgjp4Z0lphNJ4D8Q6roDc/MimYXqD6YvABQB+m1FFFABRRRQAUUUUAFFFFABRRRQAUUUUAFFFFABRRRQAUUUUAFFFFABRRRQAUUUUAFFFFABRRRQAUUUUAFI4ypzS0HpQB+M/8AwcOf8G3s/wC2tr2o/Gz4GWdla/E+SPd4g8OOyW0PisouBcQu2EjvAoAYMQkwAJZXBL/zf/FP4P8Ain4HeOdQ8M+MvD+seFfEWlv5d3purWclpdW7ejRyAMPY4weo45r+9RoSR/CBjjjoa4H48fsn/DP9qHRk0/4jeAPBvjqziBWJNe0eC/8AIBOf3ZkUlOe6kUAfwjhDx798V7N+xb/wT6+Ln/BQL4nw+FfhV4L1XxReeai3d3HH5en6Wjf8tLm5YeVCoH945booY4Ff1v6L/wAEJf2QdB1v+0IP2e/hk827cFn0v7RCDnPEUjNGPptxX0v4E+Gfh/4XeF7fRPDOh6L4b0a1BEOn6XZR2drFnrtijCoPwFAHx/8A8ETf+CMnhL/gkd8CZrNbi18SfEvxUkUvibxEkJVJCvKWdsG+ZbWNixBOGlYl2x8ip9vUwR/Nn5euelPoAKKKKACiiigAooooAKKKKACiiigAooooAKKKKACiiigAooooAKKKKACiiigAooooAKKKKACiiigAooooACMivx5/4PPPjL/whv8AwTl8F+EYZNtz408awPKucF7e0triVhj2ke3r9hicCv5yv+D3D4xtrH7Q/wAEfAKzcaB4dv8AXpYg3Rry5WFSfwsT17GgD8ORyfxr+o//AIM3/g2PAf8AwS61jxNJFi58deNL68SUjBaC2hgtUH4SJP8Ama/lxThx37mv7Pv+CDfwb/4UT/wSE+AOhNB9nmuvC0OtTKR82+/d75s++bgCgD68ooooAKKKKACiiigAooooAKKKKACiiigAooooAKKKKACiiigAooooAKKKKACiiigAooooAKKKKACiiigAooooAKKKKACiiigAooooAKKKKACiiigAooooAKKKKAA8ivzz/wCDov4N/wDC3f8AgjF8Tpo4/MvvB8+m+IrcbclfJvI45T+EE03NfoZXkP7ffwdX9oP9iH4ueCGh8+TxV4N1bTIV7+bLaSLGR7h9hH0oA/hjZMH3r+hX/gyI+MgvPh98ePh/JMy/2dqWl+IraMn73nxT28xx7G3g/wC+hX89kgw3Oc/5/wDr1+s3/BnF8Y/+ED/4Kk6x4ZmkAg8deC760SM/xT280F0mPpHFN+f40Af1JA5opFPFLQAUUUUAFFFFABRRRQAUUUUAFFFFABRRRQAUUUUAFFFFABRRRQAUUUUAFFFFABRRRQAUUUUAFFFFABRRRQAUUUUAFFFFABRRRQAUUUUAFFFFABRRRQAUUUUAFFFFABRRRQAUUUUAFFFFABRRRQAUUUUAFFFFABRRRQAUUUUAFFFFABRRRQAjNtGa/kc/4Oo/jF/wtn/gsz8QrOObzrfwTp2l+HYT/uWkc8o/Ca5lH1zX9cUxAT5unev4cP8Ago58YT+0F+3z8ZfGnnCeLxJ401W7gYdPJN1IIv8AyGF/KgDynwV4Uu/G/jHS9FsV8y91i7hsYFxndJLII1H/AH0wr+8b4W+BLT4XfDfw94ZsVC2Xh3TbbS7dQOBHBCka/og/Kv4zP+CJXwbX49f8FZPgD4dkha4hbxjZapPGOjw2TG8kB9ttuc1/ajD9z8c0APooooAKKKKACiiigAooooAKKKKACiiigAooooAKKKKACiiigAooooAKKKKACiiigAooooAKKKKACiiigAooooAKKKKACiiigAooooAKKKKACiiigAooooAKKKKACmSruXmn02VPMQr60Afwv/t1/B5v2e/20vi14F8n7PH4T8XarpcKEdIoryRYyPYoFP0Newf8EHfjGPgT/wAFe/gDrjTfZ4rrxVBoszlsKI79HsWz7f6T+lenf8HQvwd/4VF/wWd+KckUfl2fiyPTvENv8uN3n2cSyt+M0U3618LfDHx5dfDH4j6B4lsSVvvD2pW+p27DgiSGZZVOfXKCgD+9qNsjnqOtPrI8DeKrTx14P0vW7F/MstZtIb63fOd8csaup/FSK16ACiiigAooooAKKKKACiiigAooooAKKKKACiiigAooooAKKKKACiiigAooooAKKKKACiiigAooooAKKKKACiiigAooooAKKKKACiiigAooooAKKKKACiiigAooooAKKKKACiiigAooooAKKKKACiiigAooooAKKKKACiiigAooooAKKKKAPM/2zfi+v7P37JPxO8dNKIf+EP8ACeqayjE/xwWski/mygfjX8KczmaRpGYszYLMTkk9ya/r9/4OaPjL/wAKd/4IwfF945GjvPE0Nj4etyGxv+1XkKSj/vwsx/ycfyAmTLnsxOeKAP1V/wCDPr4ON8R/+CtDeImhDw+APCGp6ospHyxyzmKyUfUpcy4+hr+qMDivwK/4Mhvg3jTPj38QJo/9bLpPh6zcrwoUT3M6g/8AA7c/lX77DgUAFFFFABRRRQAUUUUAFFFFABRRRQAUUUUAFFFFABRRRQAUUUUAFFFFABRRRQAUUUUAFFFFABRRRQAUUUUAFFFFABRRRQAUUUUAFFFFABRRRQAUUUUAFFFFABRRRQAUHpRQ3K0Afzb/APB7L8Hv7D/a0+DvjxLfYvibwnc6M8ir8rvY3Zl599l8Pwr8TUG5wOmeK/ph/wCD1D4Ot4q/YH+G/jSJPMm8H+NBZTNjmOC9tJsn6GS3hH4iv5nAMmgD+1L/AIIj/GJvjx/wSb+APiJpvtE3/CHWemTvn70tkPsUmffdbtX1VX5T/wDBnt8Yh8RP+CTjeH2m3SeAvGGp6WkWf9XFOIb1fwL3Mv61+rFABRRRQAUUUUAFFFFABRRRQAUUUUAFFFFABRRRQAUUUUAFFFFABRRRQAUUUUAFFFFABRRRQAUUUUAFFFFABRRRQAUUUUAFFFFABRRRQAUUUUAFFFFABRRRQAUUUUAFFFFABRRRQAUUUUAFFFFABRRRQAUUUUAFFFFABRRRQAUUUUAFBOBRQx2rmgD8V/8Ag9b+MJ8OfsUfCnwNHMscnirxhJqjoDzJFY2jrj6b7xD6cCv5qxya/aT/AIPWvjCPEf7bPwr8DRzGSPwn4Ok1J07QzX15IpH18uzj/AivxdThvpzQB/Vh/wAGhnwf/wCFa/8ABInT9cMOyTx/4r1XWt5XBdI2jsV/D/RGx+NfqVXzL/wRu+Dn/Chf+CWvwF8MvH5Nxa+CtOvLqLGNk9zELqXPv5kz5r6aoAKKKKACiiigAooooAKKKKACiiigAooooAKKKKACiiigAooooAKKKKACiiigAooooAKKKKACiiigAooooAKKKKACiiigAooooAKKKKACiiigAooooAKKKKACiiigAoooJxQB8K/8HJXwcHxn/wCCMvxqtUi33Ph/T7bxDAw5Mf2O7hnkP/flZR+Jr+O8ptfHoccV/d5+1L8Jo/jz+zV8QvA80ayR+MfDWo6Iyt/F9otZIR/6HX8JOoWklhdSQTK0c0LGN0YYZWBIYH6HNAH73f8ABkL8ZNmsfHrwBPJnzodJ8Q2iE/3TcW05x/wO3H5V/QNX8pX/AAaIfGL/AIVr/wAFfNO0VpvKi8f+FdV0TYWwrvGsd8o+v+hnH1r+rRT8tAC0UUUAFFFFABRRRQAUUUUAFFFFABRRRQAUUUUAFFFFABRRRQAUUUUAFFFFABRRRQAUUUUAFFFFABRRRQAUUUUAFFFFABRRRQAUUUUAFFFFABRRRQAUUUUAFFFFABRRRQAUUUUAFFFFABRRRQAUUUUAFFFFABRRRQAUUUUAFFFFABTZG2ox6YFOqK8nW2t2kdlRIxuZicBQOpoA/j//AODmL4xf8Lj/AOCznxgeOQNZ+G57Lw7bgNkJ9ls4UlX/AL/mb8zXxh8FvhxcfF/4w+FPCdp/x9eKNYs9JhA6l7idIV/VxXRftifFxvj/APtZ/E7x08jTf8Jj4r1TWlYndlbi7llXH4N+Qr6C/wCDfT4O/wDC8P8Agsd8BtKaHzodP8RDX5fl4VdPhkvcn23QKPqRQB/ZB4X0C28KeHrHS7KNYbPTbeO1gjH8CIoVR+CgVoVHEu1R/P1qSgAooooAKKKKACiiigAooooAKKKKACiiigAooooAKKKKACiiigAooooAKKKKACiiigAooooAKKKKACiiigAooooAKKKKACiiigAooooAKKKKACiiigAooooAKKKKACiiigBki7k+b1zX8QX/AAVF+Dn/AAz/AP8ABRr43+EFQJb6L411WO1ULt/0drl5IeP+uboa/t+dd64r+S7/AIOw/g4PhX/wWV8ZakkLQw+OtF0rxDGMfKSbYWjkfV7Rz9SaAPm7/gjh8Zh8Bf8AgqX8BfEzSNDDbeNNOs7mQH7kF1KLWY8kceVM34V/bBA4ZOua/gV8N65c+GfEFjqVnIYbvTriO6hcHBR0YMp/AgV/eJ8EviNb/GH4P+E/F1oVa18U6NZ6xCR023ECSjH4MPzoA6qiiigAooooAKKKKACiiigAooooAKKKKACiiigAooooAKKKKACiiigAooooAKKKKACiiigAooooAKKKKACiiigAooooAKKKKACiiigAooooAKKKKACiiigAooooAKKKKACiiigAooooAKKKKACiiigAooooAKKKKACiiigAooooAK8R/wCCknxmX9n39gL4z+NFmaG48O+C9Wu7ZlIz54tJBCByOTIUH417dX5w/wDB1X8Yf+FUf8EZfiBZxyCK68aajpfh2A5xkPdpcSAfWK1kH0NAH8kkj5bgbf8A9Vfrt/wZofBv/hOf+Cl3inxZNGGt/BPgq6eNtv3Lm6nggXntmLz6/IbHzV/RR/wZFfBkad8Evjp8QJISW1rXNO8PwykdFtIJLhwPqbyPP0FAH7pqMY9MUtA4FFABRRRQAUUUUAFFFFABRRRQAUUUUAFFFFABRRRQAUUUUAFFFFABRRRQAUUUUAFFFFABRRRQAUUUUAFFFFABRRRQAUUUUAFFFFABRRRQAUUUUAFFFFABRRRQAUUUUAFFFFAATiv52/8Ag92+Dp074vfArx/HDn+1tG1Pw9cSj+H7LPFcRKfqLuU/nX9EhOBX5Ef8Hlfwb/4Tj/gmR4d8Vwx5ufA/ja0llfH3be6t7i3f85Dbj8BQB/L2pwwr+y7/AIN9fjJ/wvD/AII6fAXVmn8+bT/Dv9gS85KnT55LIA++yBT+Nfxoj73rzX9QP/Bmd8ZG8b/8E1PFHhS4k3XHgnxtdJEpP3be6t7edOPeT7Qf8mgD9eqKKKACiiigAooooAKKKKACiiigAooooAKKKKACiiigAooooAKKKKACiiigAooooAKKKKACiiigAooooAKKKKACiiigAooooAKKKKACiiigAooooAKKKKACiiigAooooAKKKKACiiigAooooAKKKKACiiigAooooAKKKKACiiigANfhn/we4/GT+yf2e/gj4Ajn/wCQ/wCIL/xBJEGwdtnbJAhPtm+k/Kv3MJwK/mF/4PN/jH/wmf8AwUd8GeEYZN9p4N8EW7SLn7txd3NxK30zGkB+gFAH4+jk1/Wx/wAGovwePwr/AOCNfgnUHhWG48caxqviKZe5zdNaRk/WK1Qj2xX8lKcMK/uC/wCCYfwaH7P3/BPL4J+D2h8m40HwTpNvdKRj/SDaxyTf+RXc/iaAPeKKKKACiiigAooooAKKKKACiiigAooooAKKKKACiiigAooooAKKKKACiiigAooooAKKKKACiiigAooooAKKKKACiiigAooooAKKKKACiiigAooooAKKKKACiiigAooooAKKKKAA9K+N/wDgv/8ABz/heX/BHj496OsHnzWPhttdiULlg2nzR32R+EBH4mvsgnArl/jR4Bt/ir8I/FXhe8XfZ+ItHvNMmXH3kngeJhj3D0AfwW4+b2zX7of8GRnxjbS/jf8AHL4fyTArrWh6b4ghiJ5DWlxJA5H1W8jz9BX4a39o1hfzW7/6y3kaNvqpx/Sv0z/4NH/Gc3hf/gsl4dsYZ/LXxF4Z1nTpl/56qluLkL/31bKf+A0Af1g0Ui/dFLQAUUUUAFFFFABRRRQAUUUUAFFFFABRRRQAUUUUAFFFFABRRRQAUUUUAFFFFABRRRQAUUUUAFFFFABRRRQAUUUUAFFFFABRRRQAUUUUAFFFFABRRRQAUUUUAFFFFABRRRQAUUUUAFFFFABRRRQAUUUUAFFFFABRRRQAUUUHpQA2Yny229e1fxs/8HDnxiPxu/4LJfHbUlmWS30vXV8PxBT8sa6fbxWZA/4HC5+pNf2TS9B9RX8IH7Tnjab4j/tIfEDxDcTfaLjXvEmo6jLJ/wA9HlupZC34ls0ATfsofCR/j3+1F8OfA8cbSt4w8T6bou0DJIuLqOI/o5r+7Szt0tLaOGNVSOJQioowFA4/TFfx2f8ABt98N4fif/wWo+BdlcJuh0/VLrWCMZ+ezsbm5Q/g8SGv7F412qo/hX86AH0UUUAFFFFABRRRQAUUUUAFFFFABRRRQAUUUUAFFFFABRRRQAUUUUAFFFFABRRRQAUUUUAFFFFABRRRQAUUUUAFFFFABRRRQAUUUUAFFFFABRRRQAUUUUAFFFFABRRRQAUUUUAFNlHy+nNOpsi7k9fY96AP4Z/+CgXwbn/Z6/bk+L3gm4g+zt4Y8X6pYxoR1iW6k8oj2MZRh7GvQP8Agi3+0fa/sof8FSvgj431C4+yabY+JYbC/mZtqw2t6r2U7t7LHcMx9lr7M/4PAv2L5/gb/wAFEdP+KVlaMnh/4xaTHcSTKuI/7TskS3uF9ATD9lk65YyP6V+SaPtkUjt05xigD+/hHyO/fmnV8L/8G+3/AAUtsv8AgpF/wT78N6jqF8tx8QvAcMXh/wAWxMczNcRpthvD3K3ESh93TeJV6oa+5hIpPXryPf8AzmgB1FFFABRRRQAUUUUAFFFFABRRRQAUUUUAFFFFABRRRQAUUUUAFFFFABRRRQAUUUUAFFFFABRRRQAUUUUAFFFFABRRRQAUUUUAFFFFABRRRQAUUUUAFFFFABRRRQAUUUUAFFFFABRRRQAUUUUAFFFFABRRRQAUUUUAFBOBQTimPOqr7dMj1oA8d/4KE/tH2v7JH7EHxU+I91N5B8I+Gb6+tskDzLoRFLeMHOMvM0Sjnqwr+GySTzXYksxPOTzknr/Wv6EP+Dx//gpdZ6d4M0H9mPwvqCSalqE0PiDxp5L8W8KfPZWbdtzuRcMvUCOA9HFfz2KNx/GgD9X/APgzu+DU/wAQf+Cq174n8km08B+D9QvjL/DHLcNFaIv1KzTH6K1f1Nr0H0r8cf8Agzc/Yxm+D/7Efiz4uarZtBqHxa1dYNNaRMM+mWG+JHGeQHuXufYiJTX7HjgUAFFFFABRRRQAUUUUAFFFFABRRRQAUUUUAFFFFABRRRQAUUUUAFFFFABRRRQAUUUUAFFFFABRRRQAUUUUAFFFFABRRRQAUUUUAFFFFABRRRQAUUUUAFFFFABRRRQAUUUUAFFFFABQRkUUUAfHX/Bcj/gmpD/wU/8A2BPEngmyht/+E40U/wBveEriQhAmpQowEJY/dSeNnhJ6DzFb+EV/Gv4i8NX/AIO8Q32k6tZ3Gn6lpdxJaXlpcIY5raaNikkbqeVZWUqQeQRX99jDcvNfhR/wc/f8ECtQ+Lt1q37SPwW0R73xEsZm8b+HLG33TamiDH9p2yKMtMFH76NeZABIBvV94B+Of/BKz/gp140/4JYftU6f8QvC+/UtJugLHxJoUkxjg16xLBmjY87JVPzxygEowHVWdW/r8/Yd/bt+Gv8AwUJ+BGm/EL4Z+IIdY0m92pd2zsq3ukXW0F7W6iyTFMvHHRhh1LKQx/huMJV8cHjPHNew/sVft8fFT/gn18XIfGfwp8Xah4Z1ZgsV5EhEllqkIbPk3MDfJNH1wGGVzlSrANQB/cssqt05+lOzX4mfsIf8Hlnwy+IWl2Wl/Hzwjq3w/wBcUATa5oMEmp6LKehZoebmAf7Kifp97tX6QfCD/gsL+y78dNPjuPDfx7+Flx5yhlt7rxBBYXXPTMFw0coPsVFAH0nRXlo/bd+DbDI+LHwzIPQ/8JTYc/8AkWj/AIbc+Dv/AEVf4Z/+FTYf/HqAPUqK8t/4bc+Dv/RV/hn/AOFTYf8Ax6j/AIbc+Dv/AEVf4Z/+FTYf/HqAPUqK8t/4bc+Dv/RV/hn/AOFTYf8Ax6j/AIbc+Dv/AEVf4Z/+FTYf/HqAPUqK8t/4bc+Dv/RV/hn/AOFTYf8Ax6j/AIbc+Dv/AEVf4Z/+FTYf/HqAPUqK8t/4bc+Dv/RV/hn/AOFTYf8Ax6j/AIbc+Dv/AEVf4Z/+FTYf/HqAPUqK8t/4bc+Dv/RV/hn/AOFTYf8Ax6j/AIbc+Dv/AEVf4Z/+FTYf/HqAPUqK8t/4bc+Dv/RV/hn/AOFTYf8Ax6j/AIbc+Dv/AEVf4Z/+FTYf/HqAPUqK8t/4bc+Dv/RV/hn/AOFTYf8Ax6j/AIbc+Dv/AEVf4Z/+FTYf/HqAPUqK8t/4bc+Dv/RV/hn/AOFTYf8Ax6j/AIbc+Dv/AEVf4Z/+FTYf/HqAPUqK8t/4bc+Dv/RV/hn/AOFTYf8Ax6j/AIbc+Dv/AEVf4Z/+FTYf/HqAPUqK8t/4bc+Dv/RV/hn/AOFTYf8Ax6j/AIbc+Dv/AEVf4Z/+FTYf/HqAPUqK8t/4bc+Dv/RV/hn/AOFTYf8Ax6j/AIbc+Dv/AEVf4Z/+FTYf/HqAPUqK8t/4bc+Dv/RV/hn/AOFTYf8Ax6j/AIbc+Dv/AEVf4Z/+FTYf/HqAPUqK8t/4bc+Dv/RV/hn/AOFTYf8Ax6j/AIbc+Dv/AEVf4Z/+FTYf/HqAPUqK8t/4bc+Dv/RV/hn/AOFTYf8Ax6j/AIbc+Dv/AEVf4Z/+FTYf/HqAPUqK8t/4bc+Dv/RV/hn/AOFTYf8Ax6j/AIbc+Dv/AEVf4Z/+FTYf/HqAPUqK8t/4bc+Dv/RV/hn/AOFTYf8Ax6j/AIbc+Dv/AEVf4Z/+FTYf/HqAPUqK8t/4bc+Dv/RV/hn/AOFTYf8Ax6j/AIbc+Dv/AEVf4Z/+FTYf/HqAPUqK8t/4bc+Dv/RV/hn/AOFTYf8Ax6j/AIbc+Dv/AEVf4Z/+FTYf/HqAPUqK8t/4bc+Dv/RV/hn/AOFTYf8Ax6j/AIbc+Dv/AEVf4Z/+FTYf/HqAPUqK8t/4bc+Dv/RV/hn/AOFTYf8Ax6j/AIbc+Dv/AEVf4Z/+FTYf/HqAPUqK8t/4bc+Dv/RV/hn/AOFTYf8Ax6j/AIbc+Dv/AEVf4Z/+FTYf/HqAPUqK8t/4bc+Dv/RV/hn/AOFTYf8Ax6j/AIbc+Dv/AEVf4Z/+FTYf/HqAPUqK8t/4bc+Dv/RV/hn/AOFTYf8Ax6j/AIbc+Dv/AEVf4Z/+FTYf/HqAPUqK8t/4bc+Dv/RV/hn/AOFTYf8Ax6j/AIbc+Dv/AEVf4Z/+FTYf/HqAPUqK8t/4bc+Dv/RV/hn/AOFTYf8Ax6j/AIbc+Dv/AEVf4Z/+FTYf/HqAPUqK8t/4bc+Dv/RV/hn/AOFTYf8Ax6j/AIbc+Dv/AEVf4Z/+FTYf/HqAPUqK8t/4bc+Dv/RV/hn/AOFTYf8Ax6j/AIbc+Dv/AEVf4Z/+FTYf/HqAPUqM4ryu4/bl+C9nC0k3xc+GEMS8s7+KrAKB/wB/a8P/AGgf+C+f7Iv7OOn3EmtfHLwTq11DkCz8OXJ165kbsu20EgUnp85UepA5oA+wGmXZ/d4/i/w/P8q+Df8Agtj/AMFxfAv/AASk+D9xY2tzp/iT4xa7aE+H/DQm3/ZwwIW9vQpzHbK2SAcNMRtXgO6fmf8A8FGf+DyXXvGWlah4Z/Zu8JXHhOGZXg/4S3xLHHNqKD+/b2SloYm9HlaXg/6tTX4k/Er4neIPjL471TxN4p1rVvEfiLXLhrq/1HUrl7q6vJTxueRiWY4wBk8AY6cUAWPjF8YfEnx++KPiDxp4v1i917xN4ovZNQ1K/umzJdTSNuZj2A7BVAVQAoAAAr0z/gnH+wn4o/4KNftg+EfhT4XjkSbXLoSanfBdyaRp8ZDXN0/bCJ90H7zsiDlhXl/wk+EXib47fErRfB/g/Rb7xF4o8RXSWem6bYx+bPdyt0VR7ckk4CgEkgAkf1uf8EE/+CMek/8ABJ79nqR9a+w6v8XPGkUU/ifU4VDRWarzHp9u2P8AUx5yz8GWT5uioqgH2j8E/g1oH7Pvwi8MeB/CtlHpvhzwjptvpGnWy/8ALK3hQIgJ7tgZJ7kk966uiigAooooAKKKKACiiigAooooAKKKKACiiigAooooAKKKKACiiigAooooAKKKKACiiigAooooAKKKKACiiigAooooAKKKKACiiigAooooAKKKKACiiigAooooAKKKKACiiigAooooAKKKKAA8ioXtPM6+uf8AJ/z1PbipqKAPxx/4LX/8GsXhv9r3U9Y+J3wDbSvBPxJvHku9U8PzDydF8STNlnkQgYtblzklgDE7HLCMlpT/ADo/tHfsr/ET9kT4m3Xg/wCJfg7XvBfiOzOWs9StjE0q5IEkTfcljJB2vGWVscEiv7uyMivPP2iv2Uvhz+1v4Dfwz8TPBPhvxxoTkstrq9klwIGI5kiYjdFJ/toQw7GgD+EvbuHK+9JvY4/i+vNf04ftTf8ABmf8A/ipeXF98M/GHjL4V3UxJWzfbrelxHttjlZLgc+tw2Owr428f/8ABk38atNuZP8AhF/i98L9at0yEbUre+02Rh7qkU4H/fVAH4s+Y390f980nmN6D8q/XOT/AIMwP2pA+F8ZfBFl7N/bWoc/+SNH/EGD+1L/ANDl8Ef/AAdah/8AINAH5GeY3oPyo8xvQflX65/8QYP7Uv8A0OXwR/8AB1qH/wAg0f8AEGD+1L/0OXwR/wDB1qH/AMg0AfkZ5jeg/KjzG9B+Vfrn/wAQYP7Uv/Q5fBH/AMHWof8AyDR/xBg/tS/9Dl8Ef/B1qH/yDQB+RnmN6D8qPMb0H5V+uf8AxBg/tS/9Dl8Ef/B1qH/yDR/xBg/tS/8AQ5fBH/wdah/8g0AfkZ5jeg/KjzG9B+Vfrn/xBg/tS/8AQ5fBH/wdah/8g0f8QYP7Uv8A0OXwR/8AB1qH/wAg0AfkZ5jeg/KjzG9B+Vfrn/xBg/tS/wDQ5fBH/wAHWof/ACDR/wAQYP7Uv/Q5fBH/AMHWof8AyDQB+RnmN6D8qPMb0H5V+uf/ABBg/tS/9Dl8Ef8Awdah/wDINH/EGD+1L/0OXwR/8HWof/INAH5GeY3oPyo8xvQflX65/wDEGD+1L/0OXwR/8HWof/INH/EGD+1L/wBDl8Ef/B1qH/yDQB+RnmN6D8qPMb0H5V+uf/EGD+1L/wBDl8Ef/B1qH/yDR/xBg/tS/wDQ5fBH/wAHWof/ACDQB+RnmN6D8qPMb0H5V+uf/EGD+1L/ANDl8Ef/AAdah/8AINH/ABBg/tS/9Dl8Ef8Awdah/wDINAH5GeY3oPyo8xvQflX65/8AEGD+1L/0OXwR/wDB1qH/AMg0f8QYP7Uv/Q5fBH/wdah/8g0AfkZ5jeg/KjzG9B+Vfrn/AMQYP7Uv/Q5fBH/wdah/8g0f8QYP7Uv/AEOXwR/8HWof/INAH5GeY3oPyo8xvQflX65/8QYP7Uv/AEOXwR/8HWof/INH/EGD+1L/ANDl8Ef/AAdah/8AINAH5GeY3oPyo8xvQflX65/8QYP7Uv8A0OXwR/8AB1qH/wAg0f8AEGD+1L/0OXwR/wDB1qH/AMg0AfkZ5jeg/KjzG9B+Vfrn/wAQYP7Uv/Q5fBH/AMHWof8AyDR/xBg/tS/9Dl8Ef/B1qH/yDQB+RnmN6D8qPMb0H5V+uf8AxBg/tS/9Dl8Ef/B1qH/yDR/xBg/tS/8AQ5fBH/wdah/8g0AfkZ5jeg/KjzG9B+Vfrn/xBg/tS/8AQ5fBH/wdah/8g0f8QYP7Uv8A0OXwR/8AB1qH/wAg0AfkZ5jeg/KjzG9B+Vfrn/xBg/tS/wDQ5fBH/wAHWof/ACDR/wAQYP7Uv/Q5fBH/AMHWof8AyDQB+RnmN6D8qPMb0H5V+uf/ABBg/tS/9Dl8Ef8Awdah/wDINH/EGD+1L/0OXwR/8HWof/INAH5GeY3oPyo8xvQflX65/wDEGD+1L/0OXwR/8HWof/INH/EGD+1L/wBDl8Ef/B1qH/yDQB+RnmN6D8qPMb0H5V+uf/EGD+1L/wBDl8Ef/B1qH/yDR/xBg/tS/wDQ5fBH/wAHWof/ACDQB+RnmN6D8qPMb0H5V+uf/EGD+1L/ANDl8Ef/AAdah/8AINH/ABBg/tS/9Dl8Ef8Awdah/wDINAH5GeY3oPyo8xvQflX65/8AEGD+1L/0OXwR/wDB1qH/AMg0f8QYP7Uv/Q5fBH/wdah/8g0AfkZ5jeg/KjzG9B+Vfrn/AMQYP7Uv/Q5fBH/wdah/8g0f8QYP7Uv/AEOXwR/8HWof/INAH5GeY3oPyo8xvQflX65/8QYP7Uv/AEOXwR/8HWof/INH/EGD+1L/ANDl8Ef/AAdah/8AINAH5GeY3oPyo8xvQflX65/8QYP7Uv8A0OXwR/8AB1qH/wAg0f8AEGD+1L/0OXwR/wDB1qH/AMg0AfkZ5jeg/KjzG9B+Vfrn/wAQYP7Uv/Q5fBH/AMHWof8AyDR/xBg/tS/9Dl8Ef/B1qH/yDQB+RnmN6D8qBI3p+lfrn/xBg/tS/wDQ5fBH/wAHWof/ACDR/wAQYH7Uv/Q5fBH/AMHWof8AyDQB+RvmHH3V/wC+aQMQAvbP4V+u9n/wZe/tQzTKs3jX4IwrkDd/bGoN+n2GvUvhR/wZGfEDUb2H/hOfjl4N0a3DbpE0LRbnUpGHcBpmtx+JH4UAfhuFyDx/9avpL/gnl/wSW+OH/BTLxvHp/wAM/CF1NosM4i1DxLqCtbaJpfTPmXBUhnAIPlRh5COQhGa/os/ZA/4NO/2WP2abu11LxNpWu/F3XLciTzPFNyv9nq47rZwBEZc/wzGX0zX6SeDfBOk/D7w3Y6Poel6bouj6bEILSwsLaO3tbRB/BHGihUUHkAAD2oA+Lf8Agj7/AMEI/hd/wSd8IjULAL4w+KWqWvk6t4tvIBHKqHBa2s48t9ngyBkBi74BZiAoT7kSDy9vzN8oxz+tPAxS0AFFFFABRRRQAUUUUAFFFFABRRRQAUUUUAFFFFABRRRQAUUUUAFFFFABRRRQAUUUUAFFFFABRRRQAUUUUAFFFFABRRRQAUUUUAFFFFABRRRQAUUUUAFFFFABRRRQAUUUUAFFFFABRRRQAUUUUAFBOBRQelAFLXfEVj4X0S81LUry10/T9Phe4urq5lWKG3iQFnd3YgKqqCSSQABk1+bnxz/4Oyv2Qfgx40utFtPEHjDx0bKQxS33hnRBcWO4HB2SzyQiQZHDR7lPUEjmvm//AIPNv23vEnwq+DXw5+C3h2/uNP074iNd6v4keB9jXtpatEkNq2OsbTOZGHRjBGDkZB/nHefd/eLHJPPc0Af1Jn/g8o/ZMP8AzB/jJ/4Ttp/8mUf8RlH7JmP+QP8AGT/wnrT/AOTK/lo3UbqAP6lv+Iyf9kw/8wf4yf8AhO2n/wAmU7/iMo/ZL/6A/wAZv/CetP8A5Mr+WfdRuoA/qY/4jKP2S/8AoD/Gb/wnrT/5Mo/4jKP2S/8AoD/Gb/wnrT/5Mr+WfdRuoA/qY/4jKP2S/wDoD/Gb/wAJ60/+TKP+Iyj9kv8A6A/xm/8ACetP/kyv5Z91G6gD+pj/AIjKP2S/+gP8Zv8AwnrT/wCTKP8AiMo/ZL/6A/xm/wDCetP/AJMr+WfdRuoA/qY/4jKP2S/+gP8AGb/wnrT/AOTKP+Iyj9kv/oD/ABm/8J60/wDkyv5Z91G6gD+pj/iMo/ZL/wCgP8Zv/CetP/kyj/iMo/ZL/wCgP8Zv/CetP/kyv5Z91G6gD+pj/iMo/ZL/AOgP8Zv/AAnrT/5Mo/4jKP2S/wDoD/Gb/wAJ60/+TK/ln3UbqAP6mP8AiMo/ZL/6A/xm/wDCetP/AJMo/wCIyj9kv/oD/Gb/AMJ60/8Akyv5Z91G6gD+pj/iMo/ZL/6A/wAZv/CetP8A5Mo/4jKP2S/+gP8AGb/wnrT/AOTK/ln3UbqAP6mP+Iyj9kv/AKA/xm/8J60/+TKP+Iyj9kv/AKA/xm/8J60/+TK/ln3UbqAP6mP+Iyj9kv8A6A/xm/8ACetP/kyj/iMo/ZL/AOgP8Zv/AAnrT/5Mr+WfdRuoA/qY/wCIyj9kv/oD/Gb/AMJ60/8Akyj/AIjKP2S/+gP8Zv8AwnrT/wCTK/ln3UbqAP6mP+Iyj9kv/oD/ABm/8J60/wDkyj/iMo/ZL/6A/wAZv/CetP8A5Mr+WfdRuoA/qY/4jKP2S/8AoD/Gb/wnrT/5Mo/4jKP2S/8AoD/Gb/wnrT/5Mr+WfdRuoA/qY/4jKP2S/wDoD/Gb/wAJ60/+TKP+Iyj9kv8A6A/xm/8ACetP/kyv5Z91G6gD+pj/AIjKP2S/+gP8Zv8AwnrT/wCTKP8AiMo/ZL/6A/xm/wDCetP/AJMr+WfdRuoA/qY/4jKP2S/+gP8AGb/wnrT/AOTKP+Iyj9kv/oD/ABm/8J60/wDkyv5Z91G6gD+pj/iMo/ZL/wCgP8Zv/CetP/kyj/iMo/ZL/wCgP8Zv/CetP/kyv5Z91G6gD+pj/iMo/ZL/AOgP8Zv/AAnrT/5Mo/4jKP2S/wDoD/Gb/wAJ60/+TK/ln3UbqAP6mP8AiMo/ZL/6A/xm/wDCetP/AJMo/wCIyj9kv/oD/Gb/AMJ60/8Akyv5Z91G6gD+pj/iMo/ZL/6A/wAZv/CetP8A5Mo/4jKP2S/+gP8AGb/wnrT/AOTK/ln3UbqAP6mP+Iyj9kv/AKA/xm/8J60/+TKP+Iyj9kv/AKA/xm/8J60/+TK/ln3UbqAP6mP+Iyj9kv8A6A/xm/8ACetP/kyj/iMo/ZL/AOgP8Zv/AAnrT/5Mr+WfdRuoA/qY/wCIyj9kv/oD/Gb/AMJ60/8Akyj/AIjKP2S/+gP8Zv8AwnrT/wCTK/ln3UbqAP6mP+Iyj9kv/oD/ABm/8J60/wDkyj/iMo/ZL/6A/wAZv/CetP8A5Mr+WfdRuoA/qY/4jKP2S/8AoD/Gb/wnrT/5Mo/4jKP2S/8AoD/Gb/wnrT/5Mr+WfdRuoA/qY/4jKP2S/wDoD/Gb/wAJ60/+TKP+Iyj9kv8A6A/xm/8ACetP/kyv5Z91G6gD+pj/AIjKP2S/+gP8Zv8AwnrT/wCTKD/weUfslkf8gf4zf+E9af8AyZX8s+6jdQB/UsP+Dyf9kwf8wf4yf+E7af8AyZS/8RlH7JuP+QP8Zev/AEL1p/8AJlfy0bqN1AH9S/8AxGT/ALJh/wCYP8ZP/CdtP/kyvoX9hf8A4OG/2YP2/fH1r4R8K+Mr3w/4v1BgljoviexOm3GoN/cgfc0Mkh7RrIXPZTX8cgbBq3pmrzaNfw3VrNNb3NvIskUsblHjZSGDKwIIIIByOQRkEGgD++7zRnH5+1Or43/4IJ/tl69+3X/wS7+GnjjxZcSXviyGC40PWLuQgyX1xZzvAbhz3eVFjduB87sRxX2RQAUUUUAFFFFABRRRQAUUUUAFFFFABRRRQAUUUUAFFFFABRRRQAUUUUAFFFFABRRRQAUUUUAFFFFABRRRQAUUUUAFFFFABRRRQAUUUUAFFFFABRRRQAUUUUAFFFFABRRRQAUUUUAFFFFABRRRQAUN0ooPIoA/H7/g7h/4Jm+Kf2wP2a/CXxS8A6Xda54h+EjXi6rptohe4utJnCNJLGgBaRrd4VYqvOySVudtfzENbMo6fl/n2P5V/fosPzbm27j3HHHUD8P6mvl345f8ETv2Vf2j/G1x4j8X/A3wJqOuX0hlu723tX0+a8kP3pJTbNH5jnuXyT1oA/ir8tv7rflR5bf3W/Kv7IP+Icz9iv8A6IH4X/8AA/UP/kij/iHM/Yr/AOiB+F//AAP1D/5IoA/jf8tv7rflR5bf3W/Kv7IP+Icz9iv/AKIH4X/8D9Q/+SKP+Icz9iv/AKIH4X/8D9Q/+SKAP43/AC2/ut+VHlt/db8q/sg/4hzP2K/+iB+F/wDwP1D/AOSKP+Icz9iv/ogfhf8A8D9Q/wDkigD+N/y2/ut+VHlt/db8q/sg/wCIcz9iv/ogfhf/AMD9Q/8Akij/AIhzP2K/+iB+F/8AwP1D/wCSKAP43/Lb+635UeW391vyr+yD/iHM/Yr/AOiB+F//AAP1D/5Io/4hzP2K/wDogfhf/wAD9Q/+SKAP43/Lb+635UeW391vyr+yD/iHM/Yr/wCiB+F//A/UP/kij/iHM/Yr/wCiB+F//A/UP/kigD+N/wAtv7rflR5bf3W/Kv7IP+Icz9iv/ogfhf8A8D9Q/wDkij/iHM/Yr/6IH4X/APA/UP8A5IoA/jf8tv7rflR5bf3W/Kv7IP8AiHM/Yr/6IH4X/wDA/UP/AJIo/wCIcz9iv/ogfhf/AMD9Q/8AkigD+N/y2/ut+VHlt/db8q/sg/4hzP2K/wDogfhf/wAD9Q/+SKP+Icz9iv8A6IH4X/8AA/UP/kigD+N/y2/ut+VHlt/db8q/sg/4hzP2K/8Aogfhf/wP1D/5Io/4hzP2K/8Aogfhf/wP1D/5IoA/jf8ALb+635UeW391vyr+yD/iHM/Yr/6IH4X/APA/UP8A5Io/4hzP2K/+iB+F/wDwP1D/AOSKAP43/Lb+635UeW391vyr+yD/AIhzP2K/+iB+F/8AwP1D/wCSKP8AiHM/Yr/6IH4X/wDA/UP/AJIoA/jf8tv7rflR5bf3W/Kv7IP+Icz9iv8A6IH4X/8AA/UP/kij/iHM/Yr/AOiB+F//AAP1D/5IoA/jf8tv7rflR5bf3W/Kv7IP+Icz9iv/AKIH4X/8D9Q/+SKP+Icz9iv/AKIH4X/8D9Q/+SKAP43/AC2/ut+VHlt/db8q/sg/4hzP2K/+iB+F/wDwP1D/AOSKP+Icz9iv/ogfhf8A8D9Q/wDkigD+N/y2/ut+VHlt/db8q/sg/wCIcz9iv/ogfhf/AMD9Q/8Akij/AIhzP2K/+iB+F/8AwP1D/wCSKAP43/Lb+635UeW391vyr+yD/iHM/Yr/AOiB+F//AAP1D/5Io/4hzP2K/wDogfhf/wAD9Q/+SKAP43/Lb+635UeW391vyr+yD/iHM/Yr/wCiB+F//A/UP/kij/iHM/Yr/wCiB+F//A/UP/kigD+N/wAtv7rflR5bf3W/Kv7IP+Icz9iv/ogfhf8A8D9Q/wDkij/iHM/Yr/6IH4X/APA/UP8A5IoA/jf8tv7rflR5bf3W/Kv7IP8AiHM/Yr/6IH4X/wDA/UP/AJIo/wCIcz9iv/ogfhf/AMD9Q/8AkigD+N/y2/ut+VHlt/db8q/sg/4hzP2K/wDogfhf/wAD9Q/+SKP+Icz9iv8A6IH4X/8AA/UP/kigD+N/y2/ut+VHlt/db8q/sg/4hzP2K/8Aogfhf/wP1D/5Io/4hzP2K/8Aogfhf/wP1D/5IoA/jf8ALb+635UeW391vyr+yD/iHM/Yr/6IH4X/APA/UP8A5Io/4hzP2K/+iB+F/wDwP1D/AOSKAP43/Lb+635UeW391vyr+yD/AIhzP2K/+iB+F/8AwP1D/wCSKP8AiHM/Yr/6IH4X/wDA/UP/AJIoA/jf8tv7rflR5bf3W/Kv7IP+Icz9iv8A6IH4X/8AA/UP/kij/iHM/Yr/AOiB+F//AAP1D/5IoA/jf8tv7rflR5bf3W/Kv7IP+Icz9iv/AKIH4X/8D9Q/+SKP+Icz9iv/AKIH4X/8D9Q/+SKAP43/AC2/ut+VHlt/db8q/sg/4hzP2K/+iB+F/wDwP1D/AOSKP+Icz9iv/ogfhf8A8D9Q/wDkigD+N/y2/ut+VHlt/db8q/sg/wCIcz9iv/ogfhf/AMD9Q/8Akij/AIhzP2K/+iB+F/8AwP1D/wCSKAP43/Lb+635UeW391vyr+yD/iHM/Yr/AOiB+F//AAP1D/5Io/4hzP2K/wDogfhf/wAD9Q/+SKAP43/Lb+635UeW391vyr+yD/iHM/Yr/wCiB+F//A/UP/kij/iHM/Yr/wCiB+F//A/UP/kigD+N8RMf4W/Kug+F/wAJ/Enxp+IWj+E/Cejah4h8Sa/dJZ6dptjCZri8mc4VEUdev0A5OACa/sA/4hzP2K/+iB+F/wDwO1D/AOSK9o/ZX/4JsfAv9iaee4+Fvwt8H+C9Quo/Jmv7GyDX8kfeNrmTdMUzzjfjNAHJf8EdP2Hbj/gnZ/wTu+HPwt1KaG48QaTaSX2uSRN5kZ1C6meedVccMsbSeUrfxLEDX0/UYgw4OF65PHP+e30qSgAooooAKKKKACiiigAooooAKKKKACiiigAooooAKKKKACiiigAooooAKKKKACiiigAooooAKKKKACiiigAooooAKKKKACiiigAooooAKKKKACiiigAooooAKKKKACiiigAooooAKKKKACiiigAooooAKKKKACiiigAooooAKKKKACiiigAooooAKKKKACiiigAooooAKKKKACiiigAooooAKKKKACiiigAooooAKKKKACiiigAooooAKKKKACiiigAooooAKKKKACiiigAooooAKKKKACiiigAooooAKKKKACiiigAooooAKKKKACiiigAooooAKKKKACiiigAooooAKKKKACiiigAooooAKKKKACiiigAooooAKKKKACiiigAooooAKKKKACiiigAooooAKKKKACiiigAooooAKKKKACiiigAooooAKKKKACiiigAooooAKKKKACiiigAooooAKKKKACiiigAooooAKKKKACiiigAooooAKKKKACiiigAooooAKKKKACiiigAooooAKKKKACiiigAooooAKKKKACiiigAooooAKKKKACiiigAooooAKKKKACiiigAooooAKKKKACiiigAooooAKKKKACiiigAooooAKKKKACiiigAooooAKKKKACiiigAooooAKKKKACiiigAooooAKKKKACiiigAooooAKKKKACiiigAooooAKKKKACiiigAooooA/9k=;" parent="1" vertex="1">
          <mxGeometry x="54" y="306.5" width="55.12" height="53" as="geometry" />
        </mxCell>
        <mxCell id="K8HsDQawc-SPM4IhQZPu-3" value="" style="endArrow=classic;html=1;rounded=1;strokeWidth=1;entryX=0;entryY=0.5;entryDx=0;entryDy=0;" parent="1" source="K8HsDQawc-SPM4IhQZPu-2" target="K8HsDQawc-SPM4IhQZPu-7" edge="1">
          <mxGeometry width="50" height="50" relative="1" as="geometry">
            <mxPoint x="109.12" y="329" as="sourcePoint" />
            <mxPoint x="176" y="327" as="targetPoint" />
          </mxGeometry>
        </mxCell>
        <mxCell id="K8HsDQawc-SPM4IhQZPu-14" value="" style="edgeStyle=orthogonalEdgeStyle;rounded=0;orthogonalLoop=1;jettySize=auto;html=1;" parent="1" source="K8HsDQawc-SPM4IhQZPu-7" target="K8HsDQawc-SPM4IhQZPu-11" edge="1">
          <mxGeometry relative="1" as="geometry" />
        </mxCell>
        <mxCell id="K8HsDQawc-SPM4IhQZPu-7" value="&lt;p style=&quot;line-height: 200%;&quot;&gt;&lt;font face=&quot;Times New Roman&quot;&gt;&lt;b&gt;Order_key&lt;br&gt;Cust_key&lt;br&gt;Total_price&lt;br&gt;Order_date&lt;/b&gt;&lt;/font&gt;&lt;/p&gt;" style="rounded=0;whiteSpace=wrap;html=1;" parent="1" vertex="1">
          <mxGeometry x="189" y="265" width="79" height="136" as="geometry" />
        </mxCell>
        <mxCell id="K8HsDQawc-SPM4IhQZPu-16" value="" style="edgeStyle=orthogonalEdgeStyle;rounded=0;orthogonalLoop=1;jettySize=auto;html=1;" parent="1" source="K8HsDQawc-SPM4IhQZPu-11" target="K8HsDQawc-SPM4IhQZPu-15" edge="1">
          <mxGeometry relative="1" as="geometry" />
        </mxCell>
        <mxCell id="K8HsDQawc-SPM4IhQZPu-11" value="&lt;p style=&quot;line-height: 180%;&quot;&gt;&lt;b&gt;&lt;span style=&quot;border-color: var(--border-color);&quot;&gt;&lt;font style=&quot;&quot; face=&quot;Times New Roman&quot;&gt;Order_key&lt;br&gt;&lt;/font&gt;&lt;/span&gt;&lt;span style=&quot;background-color: initial; border-color: var(--border-color);&quot;&gt;&lt;font face=&quot;Times New Roman&quot;&gt;Cust_key&lt;br&gt;&lt;/font&gt;&lt;/span&gt;&lt;span style=&quot;border-color: var(--border-color);&quot;&gt;&lt;font face=&quot;Times New Roman&quot;&gt;Total_price&lt;br&gt;&lt;/font&gt;&lt;/span&gt;&lt;font face=&quot;Times New Roman&quot;&gt;&lt;span style=&quot;border-color: var(--border-color);&quot;&gt;Order_date&lt;br&gt;&lt;/span&gt;&lt;/font&gt;&lt;font face=&quot;Times New Roman&quot;&gt;&lt;span style=&quot;border-color: var(--border-color);&quot;&gt;Free_delivered&lt;/span&gt;&lt;/font&gt;&lt;/b&gt;&lt;/p&gt;" style="rounded=0;whiteSpace=wrap;html=1;" parent="1" vertex="1">
          <mxGeometry x="358" y="265" width="79" height="136" as="geometry" />
        </mxCell>
        <mxCell id="K8HsDQawc-SPM4IhQZPu-15" value="" style="shape=image;verticalLabelPosition=bottom;labelBackgroundColor=default;verticalAlign=top;aspect=fixed;imageAspect=0;image=data:image/png,iVBORw0KGgoAAAANSUhEUgAAAOAAAABfCAYAAADxsctBAAAAAXNSR0IArs4c6QAAAARnQU1BAACxjwv8YQUAAAAJcEhZcwAADsMAAA7DAcdvqGQAAE06SURBVHhe7b0HYB3VlT7+TXn9qfduucrGYINtsKkudINNCYE0SkKyye4mpO1ufkk2YZNsstl/NiSEkECAUBN6N2CMK7j3KlmWZUlW79Lrb9r/nDvv2bJxxU0W+aR5b97MnZl7zz31tsFZAinx/Q/sB9PkH3T5OM4qmgzezEpSseJ0z1D9qVMkhyMVWqxXCwbWGLHYYsBqSaT6tMEnq+pU1Zd6heLyFFuWpRuR4E49HFpsmcYWOq/byT5VkCVJHq14vLNUX8o5kqJ4zVisTQv2LTe1+Id0vsdONjgxGAVQVZyuW/ylI3/gzio413B5VBMyFJM+9agW7mjaGGqo+QURdx6lNe1Lhj6IySo8uYU/8ZWOuAEef4pkyeK4ZZHUBXtaQnu2Pxbv6/k9HeoSJz4d8Dr9qf/kG1bxTSUjZ5gkKTY/E1HMWDQab6ldHGyuu98yjDXi+CCEkvgeNCDN/qX08ZP+IGXnDjdVB3GZDNmSYEkydFVVlLT0IldKxgytp30PEbYycdmQhiRJI1PKKx53l4+dbTrdLslSiB6kfSSmC21uT4o7L/8yhMNZeji4hC6J21cOaThdqRk/8I2b8lMzNStHgsKUsM/QnqS4VDU9a5TL6b441tO5loSy2T45uDCoBFCS5XNTxkx4WErPL5KJySTiMqIlMZoFSyZjR/us+SW33+92OMZHu9s+oMuGusZ3eXIKfukZPu4mQybBowPMaCx8JtGDBZF/W6T93ekZ4+OdbXtNXVtvXzp0ITuc16WdM/nXus/nl6n8KrsCzCwJ8J5JStvhT82VDaMk3t/9Dh2KipODCLYfM0jgSMm4zZ2RN4JYS/xOkpO/2QoqRGPOMJ9Xc4vHEXFvFgmGMCRZOc9VNHIOl1qm8jMNbHrY+2Ijcinsdqlup69o2N10OktcPHThcmUX3gVvarpKClkI38Egpc2CaRK11OKyK2Sn6/LEmUGFwSSAfmdm9qXsUpFeJ43Om32C7KD4s1mPYcGgdK70rEvph9s+NjRBLvlkR0p67n4KDPxMUIQ+WGUxvRyp2RWSoozgw0MWklTgyMy9gKnAiojZ2Oab/RgokorD7VF9/mmJn4MKg0kAvZLbl8NuFW9HAruknIaYM5d+DmkBlF2uIoNcqaQyOhSY2ZJ0M1SXR5LkDPvM0ATFxOmqx5OW+HlUMH2ILMX0Nag8PsZgypAhm6Zm2Tr9iBCxIbkehmGyTz+km94tQw/SxwEa/fCgaFA12Bhq9u8hCw2GLuqd6ZLcjgTT1MP0dWxkPI0YPAIoSS5JN+LkRPEPZiX7+CEgcxM8CaFl6r300w4YhyYUWVZUjmWOBDs+loVSUnRELcsadI0NJxeSWzIsjSv+WDwmcdow+8SPQYbB0Arqlh3Oa/0l5f/rLRw+1ZBVhd0tJtrh6GqS489pnF5PgRUJFxixSB0sqzNxeiiAvCy5wp2V+yPfiHO/ajncXg5x7MjvEBhwWFZll6ooY/VQf69lGPV0aChZQ3I9vV9IKR/730pWwSiTqUQHeTscrzC4xVjxesvNUMBvxGO1dKjfPnPmcaR8n2rIkiyf784p+Ka3dMxNptuTxq1ZqT4fesPsLZBGPyiwZpDo0XELDlVFNBbnYRAwerr2hOt2/DkeDDxNKVoTSc9SSLkOn/8LvrJRX3dk5Y/SLEVKdTtIgZuIaIYo78EQLgDRzs00MQzhHZjRUDDetPPtSFvz70kQ11IKOnHWwimrjis8haXfdhWMmgWHw+UiqfN5vOgNhWAoxCuUyG6Q2Q/yBKDQOZnSxjUdKlEx1tG8JVRf85AeCb9MSc64VTwzFlCSSp1pmd9NGz3x187i8ssNxenOTvPj87OvxH33fAGRSBi1DY3QKZwRnc3c/0UUNg0NLsrxzTOvwD9//jOIhiNobO+G4fRmeHLyZ8pu16VGKBCkuIk1/9nWGe2Vna45JHgPpIw47x7Ln5KjKqp08YRz8ONv3IPzxoxEZXU1+kk5GRJXG+t9YjISTIkYbdywYvy/f7oL5cUFaGhqRkDTnM7svPHetJzZJIzZRiy6m5Kzy342gUycPN6dnffT1Irz75eyi8+zZFktz8vC1++4GXffeiOampvR2NYGg2jAipmFjrgGuqkj3evGl2+dg89eOwud7W1o6w5Ihi8935NVfA0J5flGONhO9Guk55wx5XS6LWCa6vbe6isZ8U0lv/A8HQ7Z71Qwc/JEfOW2mzH13Aq4nQ609YXw2oLFeGfRUtQ2tSBK2svrcmBkcSHmzLoCs2nLTvGjqz+ANxcvx9OvvoXte+qhsz4h1aY11Lwbbm0kza+vpGcO9kYaRVKUKS7yBNzFFXMkj9cvWToqygrwxZtuxJwrZ6AgPRWabmDF5m144e13sbGyGt2BkLCGuZnpuHTyJHz+xqtxDglhnJTWhu3VePzl17Bg1Xr0RzSosmHGO1q3R+p3/VGPhF6iZ3bbjx7MkAqcKal3+coqviZl5ZWzB5Dpc2P25dNI8ObgvBHlZN0U7Glpw8vvvI8FK9ehqb0LBtHJ7/PgnBEluPW6qzFr2hR4HA4S0g688O4CPD/vfTS09ZBCJ8sY7u0O1+98Mdrd/hAJ4g566GlvpDldAsguxOWe/NLvuArLZlkuj0siqzZh1DDcS8S8/rJpSPN5YVqsiIgGpOE53ukLhtDc0YlQNAaf14Oi7Cykeb1EPHK6SMORD0sWkiqhuRV/e2s+XnxvEZo6+4mj6XSouyO0p/KZeG/XI6QVq+1sDDJI0nBXWuZXvWVj7kZadr5JZr4w3YdbrroCX7hpNsaQNeMoh5Q6UYM1vISYpqG1sws9pHwUUuNZGenIISF0yMJFEJ6CRDQJRuJ4b8VqPP7Sm9hQtRsxOqeaWjzWVLcs3LTnAdpdSDmI2RkZVPArLveN/qIR33LmFU3RFIfiUp247Pzx+PJnbsClkybC71ITZeUwhehD7NDV34f2ri5oRJ9UfwoKsrPhcbuIdqKpxqadKWH77j14+pW38NbSVegKholuFozO9trQ3uq/xAN9TxH/ndaB/qdaAIUL4crM/WfSZJ81femZJgnO8LxMfO7Ga/HZ665ESU4OpSIO26d7OEvMbHyYP+yjDE7CGyeHxE3zlI5b/+hbJzpvqN6NvxLDvbd8DXrIVVNlxdI7W6pDdZUP6+Hg3+mqDtoGAzJVj++zvmGj/8WRnTvOsFQ51eUhbT0J9952IyaPGyNiXBa8JITSoXLaLaLJpgcGHeduCmZEcYxcMLqQVRjoWGtXN16ZvwhPv/Uu9uxtE8esWKgvXFf1SrSrlTX/ZvsmZxxUXerFnrzibznKhl9nOfxehYRnXHkR7rplLm6afgmy01JJ2GzeYNCevUNg93Mg+JytuJK/qJB8LSmqaDyGJRu24rGX38CKjdvIwyJ6mXHDaGtcF2is+T25629R8qC49BRjfwlONiSp0OkXLsRXpYy8ctZEGX4frrtiGvnlN2LCSHIhEpQU8iT2DoEkXRMJBqbdv79/LxCL4YNV60jzv4G123aKOFIivRhvqlsZbqp7wIjH5lOyiEh8+uGSHc4rvUVl33YVlV1uSi6nSlZs8pjhpN1vwjWXTUWK5/DjCuxS2gRJMl/yd3KPj+6jhuBAiQTSxLb6RuGqv7XwI3T09Qv5tXp794brKx+PB3ofp7QcC50JkLMjjXRl5HzDN2zcFyVfWo5OLnhxdgZuv2YGvnDD1SgrKiJvJ1GmxOfBSFLhYHwsdUKr8ciZNqLD24s/xFOvv4Mde+qEwjf1aDhav/u9aFvj705HCHPo0pwYhAvhLR55n5pXMtmSFcXjkHHJxPGk3efiYnIhvE6nsGJM1JOOhDVo7enHGxRHPvvGO6hs2CseZkWjgUjDrjdjHS1/sAxjHaU+XcE3ecvKRHd27r96yypuMd0pacwxI4tyKHa7BrdcM0swnG3TTjJRiOGY5ywqf0SLY9Xm7XjipdexdN0WBOImnBLFh22Nm8INux4i3nuFrjidTfQ5qi/l80STbyjZ+aNNU5LSvA5ce8mFFJrciPMrRkHmJkwGCYzd1nkSQPQw6SMR8KCJ4sjn3nqPQpiFFML0imeZwd72SP3O5+I9HX+mEGZXIulJx8msbVVS1GnevKJvO8rKr7UcqV4m2Lnlhbjn5htw3YzLkZPqh8wMkXhswgCeVFikPZlWkqSS5geqGhrx3Bvz8OqCJWjppbiJhFPu72oJ1Fc/Gevr/gtdsMe+8hRBkoodKWlf8ZeO/YqUkVXCAUtWWhrmzrwMd95McV5ZCfleXBEGbdy6efKJYit99gRoh4jeHQjjvQ9X4YlX38aW6j30ZGLFeDwabapZEG3d+ztT13ki66nsP/QqTtd13qLh33IXlk/TFMXhpFjswvHj8JXPzMHMCych1UPxm+D5hAASThZlbHokwfGhBY1IsK6qBs+Ql/De8tXoCkfgIG7Vu1ophKn6kx4O/I0Sn/QQ5mSUibtDRzszs75OmuwL8KXnSGSFirKycMfsq0TrXFl+XqLU+x9n++wnn9lYswkB5D9BaAtRwyJ3tBJPkM+/aNUGBKMxSIpsxTsat0fqqv+QaBk82TOnUxW35xZf6ehvqtmFEwxFUfwOJ2ZOHo+7brsZF5NH4BFxHmUyQYbDdrSfIBJksJ9DCoAF0ZIUNLR34vm35+Nv8+bTfpdo1EIk0EXx4Quxro6HKGyoSl5+kkD6T7nAk1vwbU/pmLmmy+fjWRyjSvLxxZuuw81Xz0R+ehoHa8KL4REuA/vJThZ1kvQQ5BA7tPFBemY4GsWiNRvxyCtvYN2WSsR1ig8tTYs11a4IN9f/7mSHMCdYJtFpTC7EmK8jJ3e0REo83evBNZdeiLtvuREXVIyGUxlIwjOLvnAY81esxV/JBduwsxYamUjFItXfsHtJuKX+AVPTFlOyE20ZFJ3GvsJh9ymFI2ZJDqdboQo+b2SZ0O7XXToV6Sl+u77FdrLY6pMhTsy+ZfcePPXKW3h3yQp0B4OQuTenq60mXF/zqBYMPEPcecKDG0hLD3emZd7rHzbmLqRkFnJcysJ2y1XTcfuc68gTKIaDSHGm6cEKioW/qadPhDDPUXxY3dgEHhAvRcOBWEPNm5H2pgct0+A5lyccwhyutB7auDWAO7MPNYg14UKU3+cqGEkuBLGcClx0zlh89bY5mH7RZKS6VFIsrF0GhwCypeF5hNyw2kh+/kvk7/+NtH9tcycdJUcn0t8bra9Otgzy+ioHtwxSCeGzdxGi7eDgnFt8z3Fn5f6Lt3TMZ01veqZElVmWm4nbb7haeAOluVlESJvkSUY7s+xm8SBlnnOIUNzAh+s24fEXX8XyLVsR0U2oBvRYS/3aSHPtg4mWQS73QHD2vbQ5aePxp7wdzCuixddfNuqf1dzS8ZolSX63giunTCRemYsp5HY6SElz9zlbIvkUueHHCuGoUW44P7xb3diCZ197B69+sAytPUHRxYVAR3NwT9VTsf6ew4UwTA+mCwsoy89hBXVgSXlo2DjVn3armp49zeH2ZJtapF/r79uq9fW8YeraR5TGkBRlMrkQ33Jyp7Hb6+c4bjS5EHfNvQ43zZouOoa5FOxi2jff78OfcTB1aWMh1Enz76xrwJOvzcPri1egqy9ABCDnrLezIVhf9Rct2PckpeWWwSxyJW9wZuZeq/pTyvlyIxSoj3d3LDCiEWJKq53IWOD0p9zpLeVO45zhBrngmf4U3HD5NNx16404d0Q5XMTkPI0qicEigHZTBOeD8kfZ6+zrx5uLP8TTb7yDqtpGkWdTC4WjdXveibY3PphoGZQo3p/qSsu42ZGSeb7kdPqNeLxH7+tcE+/vfZWswyZK45AdzlneorLveIpKLtdkr9NBynjy2BFiBMs1F1+EVK8d53HzShKHGn54OpGQv8SHzccxzcKa7VV4/OXXsWj1RgSiGglizDQ72ioDYlhb6AVK3EOJyxwe31xnRu4M2eMvlEwjrgW7d8V7u98m13UBpQnwnQciWVqH6vHelTKi4odyRkm5KfNEx2TFUDZCfTxi4O9kRWLekhF3WClZhTz0pzAjA7dddQW+NPdajCgpEmQUeScinlkyHgUsiJxTIm5YM/HRpm3CLV26fgvCZAkckmbqrU0bIm2NrzrSs6/wlJTPNBWXY9+kT5JgSdP1eGvNsnhX2wfurPwbHfllF3KnsUeVMG3iObj39ltw+aSJ8Dkc4nlMERZ8xuCijagxAuWK6UJfFDKjvqUNz7w1Hy+/9wGaOig8lmVYwe52csGY2QxP2Zgvqr7UbF72IXkHmSy+3t/ZEG6oeU52eQo9xSPnSh5vOrdMDy8swOe57/faK1GYnSkey8JnE2Nw8guXi70mUXFU972RCOYvX4O/vvwG1lfWkPdgQDG1eKSxfonW27HElV9yqzs3/3xT5pGqtjSwF2Ro0Qh5V6+HW/f+iGh8gMUU5Vbd3nvSzr3wAXj8abwCGR8caLeY70iaRWqDMuN1qpg1bTK+cttNuHBcBcV5yUogQoo7ni3QibyUdypTTzCMd5Ytx18pFtpWU0clYe0HS6cicdnEGjX2RXRGFv6pBNKEtMftl0y1c4aV4M6bb8DsGZcjNy2FznCDB9NyIDUHP0TDECFmGNi4s4YY7k0soNi5n1sGmShcflHRdrqPw7ZrBpnUvFQP5sy4BF+8ZQ4qysvg4DMktGcjuC+bV2Jo7OrBqxTC/J28hD3NHaSbFLKIpkVxooi6DgUWxGh95TuBhtov053aEoeJFpI0KrXi/Lek3JIx4gCTN6Gx98MS4yy5YsYNK8J9X7oN114yFWleZ6KyiDnPKsGzIeIOzj5t7Pqwhatv68Azb74rmuh7iOGSLhHPkUoWkS9hAWTFyOX3u124a861+PJN15Omz7fT0XHhchKznbT+q9MKyjt36ZDb2BeNk+u1Hn946nlsqWkQg8FZ8TCvHAriKBX54vPOwX133oZLJ4yHizwBMSyMjg90Oc8qcB8zu+yii0vCDgphHnn+Nby6YBk0noVyBLBEwYqYgU2rfxwP9P0qcRiy6vXfqGYXjkku7mOvN3lgwwm7FkxwHn85qqwYN06/FKlinB0z7VlKTAKLFMuXJdshN6uvYXlZuOnKK0io3FRunugqQTUPVEcM/s2TYFVTRopDxdxZl2NEUYHgPmEduNWMFdPHrjxbwPlWYVHZU5wOzL5sKs4ZOQymoZP4MLOxCjociAiGhgvPq8D0yRPgVFl583GiieCvsxMiBCHlI+qetnPJol93xcViPKlwpw8D1sOqwbLikT2FpbfRIV5KRUBW0zIuFFqaKMQBJztXwu8dAB7wLB5KsWFN/V508VAmSsvHmEkTRuIshCgB/Sk8UIbKycdk1IoycotXQnwOKp99FX8TrYj4vf1B7N7DM6DoGJ0ULEbfor7E0bMTooapEOxiBchFr6ytF8qFLR8vmnUkaJRme00txdQ63cLmEd7OZoLYgQaLHtUwFYYpsGNXLYKxOB0/fMGYr3TZ9hjUlMxySVGGJU4RbR2eTHGnYwA/JEyBaDQWE0QdakiSob8/IKa1HCt0ck36AnYD1zGS8uwCFYonPwfD4eOodwn9gSB0jXtrhh6vMLiu+/r7RBhyVAgSUFyswklylOzOgmzq8b5jpSk/R+HmdG6vHoJE3VciIshxKRjuxyK6MFXIIRh6oDIZFOPw9KfjAY/jNM0juapnN3jWCXsHR7J+B4LS64iT/7CvP1Uhko5w5xdfyRNYON5hJmKTefAthcjRwXA0gsbmZmRlZSE/OxMqt4DySYa47lgzc2YwUFlxToXvTjEut8zxJNeX3l+Ex156S4yUT5Q68XkwqKQcz0hkKemmDS32NLKywgJ4KT7meFKsbSqOclqxc6gbDRpwFu0cJ/NriMaF9Tuq8cCTz2Ft5W6y9txFRTRhJcVJEhDp6YAtbnxOJQsYQntXJ4ryc5GTkU7H+O6UQsTHgmyCpwY7BM+IDPMv5hWgqaMbT778Bl58dyF5BkGSGQ7jRJs60cbuFUgWjb85xGO50rpbqmIdbQ/TITHdibsxuh2+tOssvzdDJE1clbyYYdhRDZlLA7quoWpvMxavXIeOri4U5OcjPT2V4iV6pGBkvnLg1YMXEjg+kREiN2npuk34xR//gsdfext7u3vtcZEEZjS2ageWihmJIkCJW/Zoj3iqtbcPH67fhE2V1fD5fcR0eXDxKGtRe4l70Ta4GY7qj+uQ/rh8NU0t+MNzL+OXjz2LtduroYkxmgqc9C3U0oDCiD36sONou30gGtOwuXonlq5ZT6FLDCWF+Ujze+1rE1w9uOmRyKYoj604ekIRvLH4Q/z0ob/ghYUfoZOUjJMVlewWtEk2SooyCirYYAHlTrzwrm0Pm/EoL5MvQBGl1aGH+nRnZuZ0OBxOZhbWcAOupVtZcFCcM2fmJZg8brSYvtHeF8aGyhosX7cecUNHUVEhUjweJilfcMD1gw1CaCh/3OG8bXcdafe/4XdPPo8tu/fSSQVF7nRMyh5B6spCvxYRDS0DuxKYuEwidq/GlhWJAeeB/n60dfdjd1Mblq1eiwbyEgpzcpGVyXrNrg7+tqtnkILowqzW3hfEC+++j/v/+Cje/WgF+iJxKL4syOMnAfmliHZ3sOam4uyniS14vGOBlxn5AtGkJCcDTa0taOoJYuWmrVi3ZSucThcKC/LEN1NFXDaYpZAUkkWuNC92tZzK8D+P/BWPvvQmdrd2wG3FMbnQg7nnFaOT6r4vqsNQnFTH5K4zLRPlsktpIVq/c2Gso+V++rFvRIzobzA1bYve093r9Pgmym5vitDYdA1Lv0XCleZW8bnZV+GH3/gy5ky/BOeMHoHevj40t3eiiazFio2bsWnrNnh9PpSQ5nfywFDBcoODsMmc2NqMSidLYqmLx199G//98ONYvH4rQnETWaofF2WPxOyyKZiUOQJ5KRnoCfchGA2JeyTdLosqg8OhSRXD8fNv3isWk7p8yvnwksVrIcHr6AuQMNdi8er16AsGSTkVIDPFLypFYJAwnCgTbUn3MRTX8P6q9fjFw0/gmTffR0tnLyynB+bwc+CYdTNwybVQR4wjr5s0flcbpDivSsdCSzzE96LjeRlp+OcvfAbfu+t2XHvZRWIybQfRurW7C3VtnViyeiMqa+uQmZmJopwsCmH2d3klqHPGuGb/85N79rGq+r148JkX8f89/izW76ylcpoYmaLgK1OL8b2ZI3H9qBTkp/uxt70LXWFN9BGKQjC/sEdhxuKRusp5kcba7xATfnwkTAI8VWSSMz3zDl/ZuM9L/rQ8n9eFa6dNxs2zLsdlk4nBKLax3UygIxDGm4s+xDPksm3fUydmFqR5/bj64sn4yq03YuKYkXCqKj1g/yPOBN8levj25aMnGMKCFavF1KSN1XsoxrHglZwYnV6ESwrGYqSXFAhZQbsTHejSQ9jeXY+tXXtQHWkl70DFpDHDcAPR5Ibpl6Iszx5WxeuwaLoupj09+tIbWExuV29EEyP8zx1VjnuIJjdcNhWZqakieE9OxxpIn9OFpB5g0RExG1nyjdW1eOLVtzD/w9XoJhqBnaHsArimzIB57jTEUtKhk+JSKa2Lp3PV74C+dS1QuQZyJChivBsun4o5s6ZjyvixcKssWLZF3dvegb/Pe5+2Bahv7RRPzclMxW2U9s6bZmNUaTExH3sk7NqyrzGAKqeBPPvpQRvVC1swzncrWbXX3l+Ep994FzsbW0XCbLeM6yuy8IVJBRif6yFeoTCGvENddmJnr4F3d7ThnR0d2N4VZ4/VNBpqlgRbGp7Ro5E36PYfm/K2X/0IallNRiS8kJhjopKReW5FaREe/Mm/4YIxo+CQOWmCGpRJXqVs4pgRmH7RBbTvwt7mVrT1B8ila8DSVVSJ5JIVF7LmJ4MqtCQLLl9/Gii6D0RSils5novrJlZs3o5f/Plx4ULUtXTBYaoo92bjyuIJmFV4HgpdGXSMAmjKL7tUPDDBL7tQkpoLxaFgR1e9aNn7wde+hC/PvR7pfp40wmDHkpiGrikh92rm1EkYWVaKzo4OtHX1oKGzB0vWbsK2mj1IT0tFfl4unMxxQhBPr1NqMxt9UBm5Jhpa2vHnl17HLx95Aqs270CM4mErLR0KCZ7zqtuhVUxC3O2jtII9+TKYigo9twjuknIYNTthkUt6+eTz8Ov/uA+jinKhkqAm65o/07xuXDThXFx8wQSynhqamlvQ3ttLIcxOfEh04YYebrxK8dr05CfZgxlOH7dwufhZPCA/FI1j3kdr8F9/fIxc8Q/Q0BeHX9FxZZkX/3blSNxzQTaG+UzR6MJU5I0tXa7LxLSyNPRpwIraLujxWKC/atNXjXj8Tbr1IVcrHyiASViqL+VGNSt/Yn5WOm6/bhZ8bp6ZZDMYE5YzahPGQkaqH1PPn4Ap542HFg1TfNgqYoh123dixfqNwpIUEnH9Lre4Pnnl6YEkxq5W1jXiwWdfwG8eexabSNMbuoRCRxouKxxHRL0AY3wF8ICsteheEZeB5JD8eTu3POKlK9qPjd176LeJuTMvxtjyMmJmOzC3BZB2RQEtuElYK0aUY/q0KchOT0FLgibVe5tJOa2iuKgNubk5dI4Y/Tib9k8UdmMCxXnkwbxM2v3+hx8TSzt2hzRYnhTIFRPguvqzMCbPQjw1E7pkUvl1YflEQwL9s3KS+UOPwdq6EmZvCyqGl+HmGZfbc/p4VIOgXBKWsHAFWVm44sJJGDtqOIJ9/WihEKaFrMxyCmE2btsOr9eL/HwSYAfPRbfvYPPMqQc3aEcp3Fq/Yyf+59Gn8Me/vYJde5ugUtnPz3HgW5eV4V8uG4bzs3kYHhCTiZ/pO+muJgVRlQysb43hw9o+WJoWiTTX86yaw74c9FACKDlSUm+WMwsn5Gdl4tZrZ4lhWeLEPmKwRWNLoQgGZ+KWEEPNmDoF46giunp60Uxav7mrGx+t34ytVbuQTpawkOJDB3d8kBoWrYv0x0U4WTQWpGAVLywLMRnl4+m33sPPickWrNpAmk1DmuLFpKwRuKZ8EiZmliNdTHskQaVMsOuedN/Z+jET2IxA7kisVwggn5w9nQVwGO0n825/2uBjLFQWUknzXzj+HFxC7js3TAvNT4K4uboGyyk+jMV1lFJ86GfNTwxuX564p02aTwi+l01dZgqBBE3iWgzL1m/Bf//pKTxJLmdTWzug+mCWV1CcNxfSpbMRKRguFCevSsaZEAMRJTuut2lEdUebTPfCljXkWHVgDCmkOeSS81qddhn2Z160DCYsPS9CNZI8qxkXX4RS8gRa6PltVE+1rR0UM29ATV0dcnJyUJBN8aHNKjaSdDkJ2HfLxA6XaRd5cA8/9xL+95HHsXJ7jfCYylMkfOmCAnz/ytGYNcyLNGhiTDSPDHOaUVGnTB+GLX50L9mB9U1BfLS7n/tOo9GW+meoEMctgDcpWXkTCjKz8NlrZ5IFdHH5B8AmMB9ik21rfoiYb/SwUky/+ELkZWWgtbUVHT19qGlsw6JVa1DX1Ix8ElSOF3hYG8eTNjls5kgW5nhhVxITgHboPv2RGN77aDXuf+hRvPDOQnJ3AnDBgdGpBbiubBIuyxuHfLKAnJydCEby6ckccKUkv4UwkwBu7qoV979BCGAZpbWv4KwP3PgwX8PuJbOvvXju+ZhQMRKhQD+aiema+wJYsWkr1m7eCpfTKVoGPS5erMoWHHEP/vgE2LfcEKl1kR360Ojn1tp6/OapF/DbJ/+G7TU1YtEXK3cYlMuug0LCp5eNhc6tk1Qv/Gy7FS9ZSpvBeBPqhXZcsTjFgatIANsxllzuG8kzkEkAuc/LJoSN5HVi4+N0sY/ClgkVo3DZRZOIv5zCc+LGK16dbCkpS27kK+ZuC1Lc9q3sPNl3OUEIhuHy2fMfX3z3ffz8oUfwzkfr0ENxe5bLwk1j0vAfJHg3n5OFHPotG7a7yVIr5sIIhbI/L7wn+gIps+saQ1haFyRPK0YC2HD8AqiSAKqZ+SSAmbjt2hlCAI8NXDBTWMwp4ypwKbkbHA80t7Sgoz8klj5YsnotghTklxYVUgzlF+kFcQWVbS15AGxa7f8+FJhp6VLuDllLru+vH30SDz3/CnY2d9CdFQxzU5xXNJFivYkoo30HJSYvlCrAZqqjgfPWRgK4qftAATwmkAvH8S8vnDucyjxr6oUoI6vXRvFhS1cv6ts6sWzNOuzaU49sondeTjYxMbEaC0HCahw/iFhMEKYn5beZO41ffxs//9MTWLZuMyIU4xjkXsqTZkK95vMwx16AmCc1cQ3Xx9HBlHPEYzBIAC0WQFK8N868hBQrCSAnEPV5ZLAcZKV6KTY8D5MpRoxHI6ScOtHWG6IQphor1m0Q7i63InM7g/3K8mOpsSOAHsq34BbfBUT3X/zxcTz11gI0dPXDo1i4uNiH780ox1en5GNEKikwqocDauEwj+fDwiugbV1TCMv2BGDq8dMtgJQNJpK9h5y0VFxCgfekcWMQDYfQ2tZB7kYQq7dux5qNm4jRHKL/0Ofi4Dt51YFgLZVQWIc4y2CLYWFXUxse/vsr5L8/izU7angwPvIUPy7NG4trKc4bm1pEcZ6YjSYIJazlMeKEBJBzzYUQ5bCEtTt31AhccdFk0TjRTG5pJ7mlO+tasHjlKrGQbmF+PsWHaUdktn3h6iGS2AsaU9waiVB895FoTODWvI6+EEyPD/LYyXBdczvMKTMRS8uhfMl2Fwn7ZId/5AEYKIDCAn4CAeTycSoe9F6Um43pZA3HUuzc3dODps4uNHX1UAizCdu2V8FPyrqEXFZesPhISLDKYaET4Tbt2o3/e+xpPPjMS9hW1ywGmJyTqeKbFxfiO5eX4oJ84hSKPZguB7TjH+HGfGqgAC49MwKYIGpiY2qwz19KrsRM8vlHlhaLlsEWImx9Rw9p443YvqsGmenpKCDXlFuueY0S1jnNnd2Yv2K1WLvlDWIiFtqeYBCpxJh+D2tDbiqGWEri7+8swP1/egzzPlwt3E+/4sYFFN/NHjYFkyneS5M8QoiTncXCnTpaTQ0Al+VEBFDQgsokLBrts2OYkeLDNNL6U0lB6WS597a2iQVzeab1CrJSBjFFYUE+vB4K9qmsfIcwuXyrt1XipfcX4+UPllDMtBZ7GpvhpPrJImXHfXJ8/5iuY/nWHfjVn5/EX156HfXN7eINQlbJSDim3wz1stmIFpQiRu6iwnSk67jR6XhwIgLIp5Lbvh3KOnddjBlWghmXXCRCmBYe8NFLIUxzM5au3og9FMLk5eWQS59BT2eaGKINYjcdn7d0BV587wMxqXpj5S5ENA0ZFOpwgxgvAMVxKL8f4tEXX8Mv//wUlm2qohhcQ6HPwhcm5OLfrxqDK4enIk2xhxZSpuiP6Sl2hQ49Evg0P8MWwCBZwP5jEsBD3VZyFxQ/6Ro54c7zR47ECw/8DLlUuScDvIxFIwnWK/M/wHNvvofdrZ1EHAO5qam4acZluPOW2SgnIV24fDUeeu4F7KjejbhmkrvI4S6PsFAxYcxIfPPOz2Hq+ediJWnHx156Dcu37CCCm/DCiVHePEwpGoPR6cVIs1w28RPP/6TgbowtfXV4ctcH5KVJ+NNPv4dbZp74O/+5nrlig8QIy9dvxBPEHMs3byf3CPAQ40wZNwp33zYHM8latpFlfOipv2HBRyvRGYhAkzjW4uUzLNGhfcfsa3D3Z+aim2KnZ15/F2++v1QsTmySUpMzcyCRuylNvBRaRraIEMXz6dncyPRJwBGZJ9iP+HO/g7V7K26+4hI88vN/IwvlSFjT45RoAc6MHWvxKKXdDU149s138PKCJWjq5rG5EvjNSHdcNwu333ANstJT8eI7H+CJl95ELQlr3CBlQs9mpk7z+nDZBePxrbs+h2Hkwr639CM8/do8bK6ph67LFCbpuHp4Cu6cUoqJhanw8UqDxCuGaGw6frCw6nQtNxz9eXUrfr6oEXo01Nu74cOrLVO8Hu6QOK0CaM+wlqGRKaqkYPspIsgbS3ip9DBP/cSo4lxccO54LF61ViwLxy1qYrlw0io2s1CtkHYvyc7AOaOGYy1ZxY5gBE7ZgUJnOi7MG4MJWeXIULxifCYXjlvzPiGP7cMpE8ABH2wE2vqDeHvhUmKUd8g1ahKWMdPnwuUUS7d091B5d1BmiCaUH5kky2Zxi5iVBFG1cMmE8SK2rKnbizgJqJ5C8e7YiXBcOBPxwpGIEXdYlJYfxsYy2dT/SXBqBJBLQxVHgsDaSSLvKU4swwsi/YUU7UJeECkcFi3pE8eMwvCSQry/bCV6Yzwyia25Hb+yCLLSloy4WMEhLzsbq7ZVIRDT4Zd0nEcu5j1Th+EaEsAUB5WESMLekcbX0POT9zkefFIBPOku6JHB1W030udnpuPyyRMwYewYhPoDaGon17Q3gK27asnVYs3ODMakZOa0hPBxZpnQfeRm7m5sIutoIUtNxcXZo3HNsMk4N7VEjGrhF5mw4Nm275Oy2H6cmAt6eOzPmU0Xv8uF88eOErGQx+kQLYNdFLdV1jeLhhSJXUZKKaxWsoxMTKIV92LUNTWhLRCG5k4BRp4L15W3wJp6DWIZeczWfCX98Sx/pitfZz/5k4DvcKIx4KFgu32scBXhZHJ8WJafi5lTp2B0WTE6OjvECJXGjl5U1dZDo7LIQtuym0n5Ys1Cm0S/mVc6egLY09wmBgCMSZfwtanF+LcZw3FRoQtu8LAxfqjdjmA/8ZPxDF9ht4JigAuqHdUF/WRq6pOCK4W2ZEetx+nGzCnn4/c//g5++e2vYVh+PiyFA1k7OadhceV3wvOfXUzKNN+DCluYmoXPV1yB2aVTUOSkuIBoJ4SOakK0mInUgxsJkoiNM8y5Li8swA+++iU8+osf4epLp0Ch2MhB5eVlQ0SpuPz0xxRhYRKrGPBhsj4WCZ9zxk1Qb/sa4uMuhObgBi5xoZ0uIYriccxrgw6sImxFwQ0gXNeMNK8Ht1x5BR797//E9++5A1kp5OUIi8V/7I7zluAV0ajE30QfYiYevXT16Ew89NmJ+Ma0QpR6yaySQDI1GEky2N/2sdOF0yuAA8Dais0+++w8XO3mK6djRG4uZHK7hBAdlQ4W0snVLPNmC2LzfT7OT6eXmCcTTmKaaeMrMP3CC8gjixFNkpHbx5EsJdOApBVm+RjE/VlES7YkA6/7OIXOJkiWhtLsdNx01Qyk+91U3mN0FSndyEzyLjK5P4870/cr8wNx+vnljAkgQ5CPNBy7GZFIFN299huUbS19eGZhzcZxYYhdILHkwdnNWIdCskT80kle3k9YvqOBaGIQg6mhECi0Sdzj7FVCB8N2nCUEA0Hxqm67dfno4Pmsrf1RhMWC1QRWVIMEZ1QA+eHJDIgRFE7ywkXsx87B4YnEg2A5BS+pzosID1VwRwtP0VTJwh8JbPu560YmoWN3LO5wIE4/dPJZhxJ1OC5ksEsOcrf5fQ3MJjzyx36B6X7Yv/iTxM8yxOB3e8Z6Ms4bHDhjAsiMwQ9PMkiKz4Py4gJBM45qjgSNhI7/cl2p/CaUxNGhBWYSZjce2if6suzDhwSzkxhcQIwmeb1ETIqHRacnCeYQkkDBFSRE3EdYlJNNu0QVKp9ofBEpBoLEkgSUWyYVEs7hOX64hDs+kOvOPM6YAB4Mt6riqksuQhpZQW6cPZzuZkLz6sRplhNjM0vgJK04ePTZyYTNKJPPqRCtf7we55HAY0h1ootcXgEpk5iTyMcU5IaboQMujISs1DRcRbGxS/gIfJS7qwayMnMPe0nEG0SXUj8wbXiWOMN0SjZEDQYMGgHkgPrKi6cIITTFwFeb3ANh/7bg0iVMyCzDqDTbYg5FiEYqKmtRdgbu/ezNSPe4ceBqdPxt7wuXnehnZJeIPr+Yy8ecxv9iGzrgwsjg5fFvv/4qnF8xUsS8YgwrbfvLmqSNRYo6gtsnleCcLAfRj9xy2e7cGiwYPAJIRM1K8eFH/3Q3rr9kEmluIha5VCxf7EaxruM3uTqIyOdnDMMVpRPgN52iSoYiBAtxVwptt8y6HN+9+w7kpHjF8oDsSDFdmJF4DiOPMDLySuC97g6YRcPF2EZmRiHEg4fXThjcPWH3t0CsQv7Tb30dkytGiA53XmWAC6xRwbmV0zRlZMpx3H1RCe6cXEzWkj0IjgPtOw0WDBoBZKLw4NcRRYX4zX98C//5jbsxZcwIqCq/AoVftkYup7sQ15VeiNkjLkKu4icmY2oOVRG0wULmdjjwtc/OxUM/+S7mTr8ImaleOq6LJSJiuSVQpl0P3633QhszkRiQe8+GKgaUjOr+ovFj8Mf/+iHu++KtqCjL5fW0KImFQlcU1wz34VfXj8R3Li1GthIdTA2fB2DQCGCy64EJlZ+Rin/+3M144MffR1lutpiLdW5aKb5YMRMzcs9FFomjQqpdDDPb73cMObCy5wWkeFgXv1/hyqmT8Puf/LuY+CqxVvJnwzX3S7Cu/yKCxaMRVlRh9T4N4HLyaJfRRfn4f1//Mu7/1j8h1e2Gi3jlrgvL8NBnxuKWsWnwKDyWePA21A0eAWTJY4GiHHEfH8c1GX6ye8RULJVuhxM+hWcGsKhKMCidqIShbQD3gZvgWUXxi1L8XooHSQJFq3xKBuKKk84lZ7Dz9mlAop2Y6t9Bv/i136ZqL6fEq/hlKBS+MG/QxjM+TgfsNWKSODZNOHhcUOImFjvOkPD1aWMScycq93Pxn+h8IP4SIkglZWE81oKezRBhD5U3QQFBGS41DwwnE2kron1nhz49GFxKpoMgDsF+kQ7HeCQEpLBZDdktnjbdTj34Kbb48ed+QTwyBo8Afgz7iXY6yPcP/AMnG2Q0jiqHg1gA/4HBhiQ38fdApXiwghSOyacUB9IlYZ6PgEMKIF9lE5s+RcxFX0KY2RH8dMQY7BDzoDjh5nJsSl/cVWLKA10NpgXHF/bvU42j1uYpBJefB0BwwxfHmfwlBgTSNwcOPCRQuH30ebSRTEMRPMhNDAfkRgyik8xzX4+BL45CKR28zIFM3xLf8IAgc2iDF23iTXAYKzKilJhoSiy2X6/ZkSkfOz04c9Tn/jMXDwq3eOSRA4biIIJwqytTQIPK7CcxA3KaTwuXHAhuApJ5QK6sQpe5aUhU2BGJcbAA+mVVnaH6Mis4wO3oC+KDVevQ0t1Hmo+Tcpj76SAuM5KDNh4K0BDtwq7eJrvbgzTcis07sLWuHhGdBfAoOuyk4nQJ+sfBJdVICpkPHKSQ/b3NcOzcCAS7xRzOhpZWLFm3GZ3BqPAUPm1gQxUyVaxsiWFrY6/gCtPh9Th8KVeSxi6ln4ckCjdkC0iycoGvoPS3qRUTf+jIyBvOUz36wlEsWbEGqzduRWpaOspLCqEKhX/qmY4fE4hE8OJ7i9HZ24dh/lyMTS8hwaAzbJVOMkSx7F1xe/Yk+hDDktbtmFe/DtWBZsGArLO2VVbh/Q9Xoac/gHEjyuH38Nw00vyC8ThN8k4nGcLaSMToG7F6y3ZY/nQoEy+G7k2jo6c2NGABZOFz6zrclesQnf8ijLVLoZIASqTxW7t6seDDFdiycxeKCgtQnJNNeaKruLro71SjpbMLL72/FPFYBDNGZOKCQl8ibDqVsOub6702IOOBZfX47ZIGbGpjJaRCUmXVl1U43ZGScr0eCsDU4tvpAu7B3QchSZKiTEsZc/4z3pHn3WK4U1J5lWi+NXdfRg0Lq7ZX49/+53fiZYT6UA0BWegSu2z9+60Y3iPBW9C8Ge1GPzEfu6DsYlHkY6nY29GDh/72In764J9IQfCCQXw9u+hDlUDkghom1G2rEXnzaai7d0CNhYhSPBOdYh4SzmBUw/wV6/HtX/wGSzZssukpwpZTLQhnClQuEr76fgP/+e4uPL2xE+0xXquN7Rq55HTacDhUNbt4bMr4i3/jTM34DzpxwPouLIDZvuLhP3Nm54/jDm6+aKCBEbpLVdEeCOGBvz4r3qIzFCEaGYga9reF9Z01WNexW8yr4wYZQYd9IMeTGI7HHL66aBmefGMeqTUmGm8HphwykBQ42hoQW/QylECHbe2Fxd8PPqZQXLirsQW/fvQpsban6LVkog45sDeiI2w58ejqZnywJ0CuuD0M8OAwjX+ZXpfbN/r87ypO11z7qA1ZdXmu8RSXXW6IUeJ0gD6EpzUAQijJzahv68Jr8xfCMO3OzqEEVjr2mitAtxnGho4aBJQ4/bLdvoEQbhVtvESSbih4Zf5iioHaEqkOTDtUoJoGjK2roXQ0k4JyUDEPbemZLrLixMadtXh/+SqiFdNjaPGKDbb6Kna0hzCvqgsmycfhGp9YIBWTlLbX7/fkl3yFDvGS8AKympZ+hal4nMyAgnX44yAe4p/MnDz0Z+22KnRT7MMrldku19CAECoqDFu71nAPuiL99qJAh9DeyTKzYlLJEvIrvrbvYs+Ah0Z9PP1ZD7Zs0TBQX0N8wO8IJJV0BAXMFIjrBlZs3IqodkDIM6TAMfHmxl60R3Q4RLfD4cF044YFNTN3giTL5YnDpKy8/hLW8Entz2Q9JGmZO2VJrETdF6bKOHzKsxasUthd6o+GoJHG537AQzU3JUUsQVNiNh2tHZ2Jo0MTZjwGKcQxH5ee4uAkEQ6BZINQW2c3YnHyIo6Q9mwFcz73AHcEYjCZCcSA70MXlH0o+32HZLCcDj+5k5mJU8Rfhj3V+lhEid1ORSEpJnd16GE/BcQrto6Dazj2Odo7C856kPLld6WLzvfEoSPDEjThJQGPjbvOPjAdVJ4scBy8QtRg7bRvdLishwJV4vID7nEwwRK/6Ss1JQVOl/1OPZJI++BZCjbqDGHJRKxCTEZfDqcDKi9xfJSyJUvvdDiQnp4ujonbJHA2Uoa1tQ3+Fj4BfdtK13S7oQnduz9VEocqa2ZmBhShmPYr7CTNBu4NZtgNKgfnlRvh6EtW4PN5oTAjWbbVT/LUQAyklRkOdcI0WhI/IWv9ve9ZkVCf6GSmpKIh/aAAO/l4bvnbXd+In//xUfESkWSXBMuhvR3i6YMYLGwMdjS5bGFJx7qeGixr2ISoFbdpwensZAdAqDFBM1O8WfWh517G3+YvQi+5aQxBD/4Wv84m2CUWeSdt4jQMuJp2w1jwKqzWBuGWc5qBMSDvsV1MHhFUI0+JXwTKraE7G5vFrP3kOR7ekNzsqwcv7HJxx5TNLOwD8OrfLVEFf13bghfX10Pn1dj55QrkivLaNEzBj7nodJxLGm9vWkJy0mAf5NjQNJvNWLjImZM/xZB4+IzMTQkHgFeXYtF06LoeJYd3S00dlq5cjd7Ee/74TT/CvyWC2u+0O/jpxw++w6nuiOfpPA4qLzPF7nAb3m1Yh8VtO9CpBen5cdMyTCqtgwrETTP7wXEiVwoPw1KMOC9/i+bOfolfLLmjphbpmeniRaROYmBx3UCzeCKg5/EdT1VHfHL6Do/r5OXenb09kFe9j/gHz0PatRWqHhM8IJFfmVwikMHl5yZ57j9mxpMlYkP6GYprMr+q/EPKL78WrIx4hd8dyfTj7gnmNX5gkrlPBKeiI55LxS9r4cF33IjCrwYImioW7gniVwt24flNbUIQLdkyZWiWbssfwS7d/lJxDEi06WqtDTXU/IAytjdxQsiaoUfCG6RYtMiVmllhkq/BFw4kCS/4E2+sWRmo2fIzRIJR1Zda3hfXnKu37MCqDZsp/lRQVFAAL79dNeHKnSj4DqdSALnS+RlN8V580LYF8/euR32oA1EpDvR07g1Vb/1DvK3xfbfXP15xuilwtq8T4Cyw9g70dgaqNv1vrK1pidPtKdednvTqhkYsWbUGHV1d4pXcmfyeP/sS+hh4k0+AUyyAwg0nhvNEw3BsXQ1t/ovA5o+ghPoAPRaJ1VXNC+yp/C25UBlqakYppU+UyKYme1FKLGLE6qveCtVu/z8lHvcrqRklHf1B5SPK86YdlUihECaf3/Pn4DZm+4//TxSnQgA5W6qlkYtpIKJ4sKlDw++X7sbvl9ejuocbohyW1tW8I1K14ddad3uV25c+XizkygqbBTbJpzx4g4QvsGvz9yxDX2QftJFUY0Et2L8o3tPWqlhGlqooPoNEVtYiEa2vcw8R84lI694fmpq2WAv0vat1NFcqslyoeDMLW3v65GVr16Oyejcy09JQkJdD8QIvB8cWkUBVtE9ejoPQnPRkCKBImnjuvl1ST0EjitWd1Xhr7zps7asne0eCFwsHorU7XgjW7fyOHg0/b8SiK2KdLevJQ/BRTJhG2s1B6ko3g/2d0abdi4K1lT/SI6GnKd3SWGfzIivcp7r8KcPDpuzZQJr/o7UbENcMlCTeA2+7bQcR4aCfRwQVhhn2RAXQdjDJbtGzec92sSiWJQvnrN0GY+FrMFbMh9rZAmcsbkTbm9YHqzf9ONbT+T+mrq2K93Ut1Hs7Q5KsZCmy5DFMqpV4NBjrat0R2b39wWhn288o3fJ4f9c8raulWVXdwxSvN7u2pV1auHItdjc2IpeEkNf3tF9VTv+JvBwPOQbiRAWQnyv6v0X4xb/YihFVFRXVQRVPrN6L/1tUjY+aNGgm8Xeopy1YvfHhcGPt98149F0jEloa72ythqmlK5Lit4g4phWJW8HellDdztfCDbv+nYRvMd34ABxcXv6dSaZ2JF2fQe5p0DKNOioJB437Wm5sSHkOf+qdvvJRX1My8kZQJUjZKV7cMH0a7rllDsaVl9nE5ZRUMDbBrC8PfuChYFcEuXVkRW697yeorKvH9LzxuKXsYnL5+EYJ4T4GsDvFz7fdHgsRxLEz0IzlrTtRG2iHJmlQjZgWadqzLNRc96AZj79Pl0Xtq/fBTa71MKJLMf+wDKOZFEwd7XJ/zEC4ZNVxhaeg7DuuwmEzLIfb5ZBlTB4/Gl+5dQ6unDoZqSSIRM/93HaMVlFcQuXmePX+Pz2BB599AWbeMDjv+j4i2SVUviP3QyVhx/oUsfDrzchx4vcHWqTlPS11MDd8CG3rKqiBbsqaCrO/vSFYW/VoPNj3V0p08Bt+iD+lAuKTcnJJfcQnvUQX7gzl/pgDqofqfYQrPfOfvKUVX0JqZj4P5CjJzcYd18/E52ZfgzLyFASrUCGTNvV4sb6qGrd9/78Q7OvCz64egXsn5ZChPohljwDmEeEOJn/IKjrjMuZXdeCptY3Y1kk+NVdYPBKKN1TNC7e3PEjlXU2pDyZ8CtFjuKSo+WT5NEqzlxRBPR3nUR0fw35Hfj8iRIgmImgN3YCDRR7oeABBEwiZ8djKWEfrAiPQC1dK6ghyXLybdtVi2Zo1iEWjIj70seYXAkPhrBDAYyMwpzpxC8gjFZmVeIVkE3XRDnzQuAlLm7ahUe8h/96w9NaGHaTdfxHpaP0pEWsTXXQoTqZjVicppFreaL+Djh2qh9mg87u1/u55WndrnexUymSfL7e+tUtavGoVahv2Ijc7C9m0SQqX8DgZjsrN9DsRC8jp+E2uJsVwPH3G1d8Fee1ixBe8Aqt6M7uQxAHB3lDNtqeD9Tu/Y8Qir9Jl9mDXA8GVEGAeIV7ZzTxDvw9WSEn06NHI4mhn83I5Fk5xetPLAprpXL15B1Zu2EBcyG9R5leVk/dGQsg3Pl5B/OQWkNPQRs/jjnU2GlHisSX1Ifxq8R48uaGFQhPyEQzo8ZbdK0LVm38Y6+v5Dd18N114KKLH6Vwb04R4YQ/97qbtsJrgUAJ4nLA6yfx+EGtvWq1osQzVn1baE445VmzcgtWbtkJxOFBMxPVwfEipkwIoiCz2Dg0+d2gBTJw8CvY9i9zNdq0Pi9u34T2K83YH2xCTNciB7rbIzk1/DjfXfd/U4vMpOXHeSUOUXLAN8a72d83erpDT6xkRc7hTK3fvxaKVq0V5igsLkJmawg0WiUuOASdBAO1GEgXeSD+UHWtI8Ei+Ni4jQewkvonHIw27Pwjt2vp9Ldj3MB1gq3csXHwsIMm39tJ934l3Nu1QZatI8aYVNvf1yx+tWY/tO3cilUKYQgphPkmf6vEJ4H4mEg1IvGgThU264sS2Lg1/+LABf1jeiK1k9SxLsaTulprAzg3/S674j0hJ88s2T9rwnpMggAImSXtdvL9nXryzeZciySWKJyW/sbtfXrpmHXbU1iI3IwP5OVnCIjEbMSMcSIgDwb8DkRgJ4Afo6A2gnAUwrfiQ6dggMh8Lw5hgUtag/VYUazp3YV7DemyiOC9ixiDHIqHInh2v99dWflcPh56mK7r4PqcIfWRBlpKXsBSRsNvlTx0e0A3Xuu3VWLmOZwtYKOb3wPMLUCnvds5tqghBEbfYD2515bjkaALI1zOStGLHlRfN5EYB1dDhbqiGTnGeRnGeo7MZDjNoxtqbtwR3brk/3tX6M6pLnjZz7P7b8YHdsh0UT76t9bR2OF2ucsvly6xpbJaWrFwn3pVfQC5pdnr6gPILitiVvK9UB0II4PxliJPnNWNkxhEFkGklXkVN9+NGFovczYaQjOfI2v1m4W4srg8iSL65Eu3rJov3ZLBh93eMeOwtutTuYzqJOFkCmETc0vUt8d6OeVpPR4/T6x6pO7zpO+v2YikRt6WzG4XEcDnpqeKFGcxwDCEwYm8/+HcgHMNLJICdPUGygDkJATwwJXukPIshuc/dIHHJwI5gI96vX4c17bvQZYYgaXFda9mzor968w9ifd3sQnC8cmxm48RAcmY166H+92KdzVtU08xz+TOK2/rCylISwg2VlUj1+1FETOfizn/u0CXGsJdmPBDHKoAMQRfaRMsmuVXMaB4SNix/D7GFr0Our4JHC8Ps62zq37X9oVBzPXsC3EhwcPx7qsAhzKpYZ+sCM9BjOlPTR4Ytxbu5eg+Wrl6DcDSCsqIipPp4EWIu25G7uPZZQLruaALIXSiqSUaMrF676cNbVd349cJavLqjW0wnMklravVV7/bXbP+eFup/lK5oT1x60nGyBTCJABF3eayjZRHCAYfblz48aCju9ZU7sXzdemi6hhJywfyeRIOEoOmBosX7wUgUL85faFvAlFyMIxdUWLkB4HT8LjyOaDTZREOsE0sat2ARbfXxTo7zYPSQC1G18VeR9uYfW4a+ji45EyOEddL8O+N93fPIyjQ7XI5h8KSJlsFFq9aiobERObk5yM7MpDiExSxpDwcgYd2Xrt8vgDIJoOZJFemTSIbJfBeVBNAV6IOyYSmM95+HuWMDHOEQ1GgoEKiteinALb6R0N/pMvvljKcdVic9fyGHMJIey5BTUkp7I1HHSgpf1m3eCpVCl4KCArEuLJf9cLEhjzt9ccFSaLEoZo0mASwgwT2MAKqk/GNQsaopigcXVuGZNY2oDLlgGKZhtO5ZH6ze/ONYd8evyBPYSclPqZI+VQLIYM3fpocD86OdTetlU88hLVfaEYgoH67fjA3bKuHzuFCYn0/EJXeAiCVoy/JIO5ppYVdDI177YCl6gxFkO/0o9mfDTX66zZ4EZjT64pa8Tj2Ile2VmF+/AVWhZkR54dpwsCu4c/MT4Ybd3yUX4m1KetJdiE+AMFmaNaT555uBbs3lTRkRk5z+rTWs+deiTwxuKEA6WUW720IQxC4nffNMlHc+XInNu2phudyQS0ZBSUkjrnIQp3B1svVkJpPgIWugVG+EPv/vsNYthaOvB7IZ16LNNcv6arb+e7y/+3dEd25oOzSnnj6IEEbr752ndzTvUhW1VPKk5O3tCsiLV61D9e5a5GRloYBCGDEOWXRxJfwnKmdM18mToFBj2SpoWhwjsz0YneuH16nySBOiC9OPvQd6ELmbVT0G/riiCb9d1kQekoGY5QDFeQ3hXRsfiLTu/YGla8sp6SFbLU82RBlOEzJUj+8z7rJR33TkFpxjmaqc6nHgymkX4t5bZ+OCcWPgVHjMAVDT2IInXnkTC5evRkNHDwUNkngNWY7Dj/PSSjElbzSyXSmUkuI8M4LK3kasbqoUa7fESbtRJB7Vmna9H27d+ztT1z+ihIN1TowqKcqF3tyi+xwlY2ZLTqePXfPzRpTjns/MxbWXX4wsv0+wTz/FNq8vXIq/v/0ettTuBZWQeI80eUo2pLIKeCZdCm3kuYipTjjIw3A218JYvRB65TpIkQCcpmHFutp3hut3/lELB5+nZw/e6RuSVOhMSbvHN7zia1JKdim/eCU/Ix1zZ12GO+dejzFlRRArE5DCWVe1C3996TV8tGEr2vuC4g1IbtLnozMduGl8Hj5zXh5ynbrwCpoiKt7c2ooXNzSiukcDOWWQoqG+cN2OV6KdrQ+SEthKTz+lFu9gnE4BtCFJw1xpmff6SkfdbaVnFxmmjMKsdNx+zXR8nojbEwjgJ//3ENZW2jPveVwOj8ThIT7cKqBSwDfaX4BryycjrsfxUWslqvqaSYuJEQtmvLVxY6hh1++MaOQNSh4QNxn88CpO9w2e0hHfduWUXGjIiuIh63bZBeNx721zMH70SDz07PN48rW3EYmRPpedpNl5dmZcxHlUcuhpOfDNuBHysNGIbV0LY+OHULvbSOvL0EM97ZHaymdifV2PkFu2K/HMwQ5ZkuVz3Vn5/0q88hnLl5HOgji6OBdfnHMtbrp6JjbvqML9Dz6CmqZOMYMlOfKEraNOaT2koPj9EF+fPhbVLd346+p6rG2JEa/IUOLRWLylYWm4Zc/vTE3j0SkxcfFpxukXQBuKJCvne3ILvu0qHT3HdKWmqNBRMayIBRQ7ahuJydjRtCEaGARtuf+KjpNAZrtSKZbU0WsEhXaz+jsbwrU7/xIP9HKnMfdJnYXgwQ0pX/KVjfk6sgpGWKaO/FQvRpYPx4aqaoQ1TXQhCG3ENGECEaOxJeTOS8ubAcVL7mhXIymqOEw9Fo401M2Ltjb8nmLfQ3Uanw1wyqpjhrdw2HdcJeUzdNnhdJNSnjhmFNp7erCnpY1iZofonmI+YDB/KFYccdkFt6WjNDsVbX0h9MfJDZU0U+to3x6s3/UHij1fouRnKPa1caYEMAmP7HRd7S0o/7anqOwSTVEdPGKFO2ZVIiILnd1pLHZFJ7wYCE0Mx5Mgedy5HO7rJYv3cqSr9aEz4UKcAlAILI91ZeX+i6+84g64vJm6pcBBTLf/TVB2TGhHQUwTOk40Yc3PNJJ1zYh2NK4J7t39eyMWGSyx74kinUKY2/ylI//VkZs/XreIIqSsObBT+FXVtGNPKbMhul4SFNKJl8TqBoGelv66yifjfV2PkifAI5nOOPbn+Mwiy+FPvTt13OQfya6UDHs6lM1khwKfZ1aUetvre3ds+maiI/20BM2nEQ7S/Jf5h43+hVI4cpqaUDxHg2zoRn/lut9Gu9t/Qz9PWfP5GYMklXkycu7zj5vwL5bscSaOHhGsmOLN9WuCe7Z/yzIMbgU/VX2cxw1WE4MBXVqw/ymjv6cxqcWPqBmEITBgBoOtJHzL6MdQEz6GZuraomhHywJh8Y9RVeqGpZMbzjHN0BM+hmXVR3u7njaj8WOO75nJ9UB3JQnfGtodNMLHGCwCKKCTZOnkzB+N2RRyyUw4YdjrHQx52J0uSffz8BAp2B0dPJ7NKcLhevgGYn8Kns8KiXz4QYjBxMAhhEPNYrD1URnOFLGgHg5zH9bhBgAPCZjxaJ3DNMj3PDz/cAzITjm3iBJRApaht9pnhiZI/LqscLiTfHIqO5c/cSIB9qJ4AAYrI44F2eQZkSDHfEdiqjOCwSSAkVh32wcOU0+w2pEUlgmXFTa1nvYP6Mdg7eM7KTCi0VXsmh881GwghM4ienGns9HVutkyzRpxYqjCslpinU3L+aUw7DHpxMUHShYTxG6U4YY6NRro10MBDlUGHQaVC6eFAi/F2+s3sAY7kqri1sBoc8NKPRLivr4hDcsydwbrdj4tm9HDSiC39YnB27FQf7Cl4RE6dLb0f35SGJGutsfMvq4mtm9sAW3PyYbYs1SbJpaBaH31GxRPrxQnBxlO5VC0T4K+eF/vHkdK6iWyOyWDScnMxZpMrKvIIC2vdbVWBXZX3gfT3GEfHNKwjFh0m6XHS50ZmeMs2UGUSC55kEjAf1ooHNyx6X/1cPBxOjSoGhpOCSyrSevv6XOnZVyqONweW+y4T5RP8odMHgEJX0P1Yh5oTgfa+Mxgw2ATQJIvszbe2boWWjzb6XEVyKrqkrhnjHv+wv19kYbqt0J11d+1TDEb+dOCsBboX6r3dsccLneZQ3WkGIrMzVWwYtGY0d28PVi1+SfkZj1Kac/IiI4zAbJqW+Nd7ZWyhGLL68mRZKcj0fNnktveFq3d9nSode+/k7DyxNhBiYQOHZTwS4o6UXW5z6PvdNPQus1YdLNpGJvp3JBueDkCFNJFIxSne4rkdJYQY2lGPLrL1LR1HBfR+UHXyHCakCWrjsmKyzMWsuwx9XgL8cpGUuaVdG4odlH9A//AP3DiAP5/nPXn/Cn+kWkAAAAASUVORK5CYII=;" parent="1" vertex="1">
          <mxGeometry x="512" y="294.75" width="180.38" height="76.5" as="geometry" />
        </mxCell>
        <mxCell id="K8HsDQawc-SPM4IhQZPu-17" value="User" style="text;strokeColor=none;align=center;fillColor=none;html=1;verticalAlign=middle;whiteSpace=wrap;rounded=0;fontFamily=Times New Roman;fontStyle=1" parent="1" vertex="1">
          <mxGeometry x="56" y="371.25" width="60" height="30" as="geometry" />
        </mxCell>
        <mxCell id="K8HsDQawc-SPM4IhQZPu-18" value="Blockchain" style="text;strokeColor=none;align=center;fillColor=none;html=1;verticalAlign=middle;whiteSpace=wrap;rounded=0;fontFamily=Times New Roman;fontStyle=1" parent="1" vertex="1">
          <mxGeometry x="565.19" y="382" width="74" height="30" as="geometry" />
        </mxCell>
        <mxCell id="K8HsDQawc-SPM4IhQZPu-19" value="Final Order" style="text;strokeColor=none;align=center;fillColor=none;html=1;verticalAlign=middle;whiteSpace=wrap;rounded=0;fontFamily=Times New Roman;fontStyle=1" parent="1" vertex="1">
          <mxGeometry x="356.75" y="410" width="81.5" height="30" as="geometry" />
        </mxCell>
        <mxCell id="K8HsDQawc-SPM4IhQZPu-20" value="Initial Order" style="text;strokeColor=none;align=center;fillColor=none;html=1;verticalAlign=middle;whiteSpace=wrap;rounded=0;fontFamily=Times New Roman;fontStyle=1" parent="1" vertex="1">
          <mxGeometry x="182.75" y="410" width="91.5" height="30" as="geometry" />
        </mxCell>
        <mxCell id="K8HsDQawc-SPM4IhQZPu-21" value="Append" style="text;strokeColor=none;align=center;fillColor=none;html=1;verticalAlign=middle;whiteSpace=wrap;rounded=0;fontFamily=Times New Roman;fontStyle=1" parent="1" vertex="1">
          <mxGeometry x="437" y="299" width="60" height="30" as="geometry" />
        </mxCell>
        <mxCell id="K8HsDQawc-SPM4IhQZPu-22" value="Check Free Delivery" style="text;strokeColor=none;align=center;fillColor=none;html=1;verticalAlign=middle;whiteSpace=wrap;rounded=0;fontFamily=Times New Roman;fontStyle=1" parent="1" vertex="1">
          <mxGeometry x="278" y="299" width="69" height="30" as="geometry" />
        </mxCell>
        <mxCell id="K8HsDQawc-SPM4IhQZPu-23" value="&lt;font&gt;&lt;b&gt;Buy&lt;br&gt;&lt;br&gt;Create Order&lt;/b&gt;&lt;/font&gt;" style="text;strokeColor=none;align=center;fillColor=none;html=1;verticalAlign=middle;whiteSpace=wrap;rounded=0;fontFamily=Times New Roman;" parent="1" vertex="1">
          <mxGeometry x="107.75" y="293.25" width="75" height="79.5" as="geometry" />
        </mxCell>
      </root>
    </mxGraphModel>
  </diagram>
</mxfile>
